<svg width="19" height="20" viewBox="0 0 19 20" fill="none" xmlns="http://www.w3.org/2000/svg">
<path d="M3.00222 7.99114C3.00167 6.74357 3.38973 5.52682 4.11249 4.50994C4.83524 3.49306 5.85679 2.72656 7.03519 2.31695C6.98956 2.03105 7.00649 1.73865 7.08483 1.45993C7.16317 1.18121 7.30104 0.9228 7.48894 0.702535C7.67683 0.482269 7.91028 0.30539 8.17317 0.184101C8.43606 0.0628115 8.72213 0 9.01165 0C9.30117 0 9.58724 0.0628115 9.85013 0.184101C10.113 0.30539 10.3465 0.482269 10.5344 0.702535C10.7223 0.9228 10.8601 1.18121 10.9385 1.45993C11.0168 1.73865 11.0337 2.03105 10.9881 2.31695C12.1646 2.72824 13.184 3.49546 13.9049 4.5122C14.6257 5.52893 15.0123 6.74479 15.0111 7.99114V13.9956L18.0133 15.997V16.9978H0V15.997L3.00222 13.9956V7.99114ZM11.0081 17.9985C11.0081 18.5293 10.7973 19.0384 10.4219 19.4138C10.0466 19.7891 9.53747 20 9.00665 20C8.47582 20 7.96674 19.7891 7.59139 19.4138C7.21604 19.0384 7.00517 18.5293 7.00517 17.9985H11.0081Z" fill="black"/>
</svg>
