<svg width="5" height="20" viewBox="0 0 5 20" fill="none" xmlns="http://www.w3.org/2000/svg">
<path d="M2.5 12.5C1.83696 12.5 1.20107 12.2366 0.732234 11.7678C0.263393 11.2989 0 10.663 0 10C0 9.33696 0.263393 8.70107 0.732234 8.23223C1.20107 7.76339 1.83696 7.5 2.5 7.5C3.16304 7.5 3.79893 7.76339 4.26777 8.23223C4.73661 8.70107 5 9.33696 5 10C5 10.663 4.73661 11.2989 4.26777 11.7678C3.79893 12.2366 3.16304 12.5 2.5 12.5ZM2.5 5C1.83696 5 1.20107 4.73661 0.732234 4.26777C0.263393 3.79893 0 3.16304 0 2.5C0 1.83696 0.263393 1.20107 0.732234 0.732233C1.20107 0.263392 1.83696 0 2.5 0C3.16304 0 3.79893 0.263392 4.26777 0.732233C4.73661 1.20107 5 1.83696 5 2.5C5 3.16304 4.73661 3.79893 4.26777 4.26777C3.79893 4.73661 3.16304 5 2.5 5ZM2.5 20C1.83696 20 1.20107 19.7366 0.732234 19.2678C0.263393 18.7989 0 18.163 0 17.5C0 16.837 0.263393 16.2011 0.732234 15.7322C1.20107 15.2634 1.83696 15 2.5 15C3.16304 15 3.79893 15.2634 4.26777 15.7322C4.73661 16.2011 5 16.837 5 17.5C5 18.163 4.73661 18.7989 4.26777 19.2678C3.79893 19.7366 3.16304 20 2.5 20Z" fill="black"/>
</svg>
