<svg width="20" height="20" viewBox="0 0 20 20" fill="none" xmlns="http://www.w3.org/2000/svg">
<path d="M5 5C5 3.67392 5.52678 2.40215 6.46447 1.46447C7.40215 0.526784 8.67392 0 10 0C11.3261 0 12.5979 0.526784 13.5355 1.46447C14.4732 2.40215 15 3.67392 15 5V7C15 8.32608 14.4732 9.59785 13.5355 10.5355C12.5979 11.4732 11.3261 12 10 12C8.67392 12 7.40215 11.4732 6.46447 10.5355C5.52678 9.59785 5 8.32608 5 7V5ZM0 16.68C3.03851 14.9201 6.4886 13.9954 10 14C13.64 14 17.06 14.97 20 16.68V20H0V16.68Z" fill="black"/>
</svg>
