<svg width="19" height="20" viewBox="0 0 19 20" fill="none" xmlns="http://www.w3.org/2000/svg">
<path d="M14.0068 2H16.0068C16.5373 2 17.046 2.21071 17.421 2.58579C17.7961 2.96086 18.0068 3.46957 18.0068 4V18C18.0068 18.5304 17.7961 19.0391 17.421 19.4142C17.046 19.7893 16.5373 20 16.0068 20H2.00684C1.4764 20 0.967695 19.7893 0.592622 19.4142C0.21755 19.0391 0.00683594 18.5304 0.00683594 18V4C0.00683594 2.9 0.906836 2 2.00684 2H4.00684V0H6.00684V2H12.0068V0H14.0068V2ZM2.00684 6V18H16.0068V6H2.00684ZM8.00684 11V9H10.0068V11H12.0068V13H10.0068V15H8.00684V13H6.00684V11H8.00684Z" fill="black"/>
</svg>
