<svg width="19" height="20" viewBox="0 0 19 20" fill="none" xmlns="http://www.w3.org/2000/svg">
<path d="M11.873 16H8.87305L10.873 11.5V9C10.873 7.9 11.773 7 12.873 7H14.873C15.4035 7 15.9122 7.21071 16.2873 7.58579C16.6623 7.96086 16.873 8.46957 16.873 9V11.5L18.873 16H15.873V20H11.873V16ZM6.87305 13H8.87305V9C8.87305 8.46957 8.66233 7.96086 8.28726 7.58579C7.91219 7.21071 7.40348 7 6.87305 7H2.87305C2.34261 7 1.83391 7.21071 1.45883 7.58579C1.08376 7.96086 0.873047 8.46957 0.873047 9V13H2.87305V20H6.87305V13ZM4.87305 6C4.0774 6 3.31434 5.68393 2.75173 5.12132C2.18912 4.55871 1.87305 3.79565 1.87305 3C1.87305 2.20435 2.18912 1.44129 2.75173 0.87868C3.31434 0.31607 4.0774 0 4.87305 0C5.6687 0 6.43176 0.31607 6.99437 0.87868C7.55698 1.44129 7.87305 2.20435 7.87305 3C7.87305 3.79565 7.55698 4.55871 6.99437 5.12132C6.43176 5.68393 5.6687 6 4.87305 6ZM13.873 6C13.0774 6 12.3143 5.68393 11.7517 5.12132C11.1891 4.55871 10.873 3.79565 10.873 3C10.873 2.20435 11.1891 1.44129 11.7517 0.87868C12.3143 0.31607 13.0774 0 13.873 0C14.6687 0 15.4318 0.31607 15.9944 0.87868C16.557 1.44129 16.873 2.20435 16.873 3C16.873 3.79565 16.557 4.55871 15.9944 5.12132C15.4318 5.68393 14.6687 6 13.873 6Z" fill="black"/>
</svg>
