<svg width="165" height="54" viewBox="0 0 165 54" fill="none" xmlns="http://www.w3.org/2000/svg">
<path d="M25.4512 17.7148H27.1562C27.7422 18.5586 28.2109 19.332 28.5625 20.0352C28.7383 20.375 29.0312 21.1016 29.4414 22.2148H26.2949C26.2246 21.8164 26.166 21.4766 26.1191 21.1953L19.1582 21.9512L19.2285 22.1621H16.082C16.0117 21.6582 15.9648 21.3359 15.9414 21.1953L9.33203 21.9688V19.4551C10.3633 19.0332 11.4297 18.3594 12.5312 17.4336L9.49023 17.7676V15.4824C10.709 14.5684 11.7051 13.4727 12.4785 12.1953H16.2402C15.6309 13.0156 14.998 13.7012 14.3418 14.252C13.9902 14.5332 13.3574 14.9785 12.4434 15.5879L14.5 15.3945L14.8516 14.9902L15.2383 14.5332H18.9121C17.7051 16.0098 16.6797 17.0703 15.8359 17.7148H17.0312C17.8984 19.0156 18.5957 20.3867 19.123 21.8281V19.4551C20.0137 19.0684 21.0039 18.4004 22.0938 17.4512L19.2637 17.7676V15.4824C20.3887 14.5801 21.3203 13.4844 22.0586 12.1953H25.8203C25.2344 13.0273 24.6309 13.7129 24.0098 14.252C23.7051 14.5215 23.1133 14.9668 22.2344 15.5879L23.957 15.4297L24.2031 15.1309L24.6953 14.5332H28.3691C27.1387 16.0566 26.166 17.1172 25.4512 17.7148ZM25.3281 17.8203C24.7422 18.3008 23.9102 18.8457 22.832 19.4551L25.7324 19.2969C25.6504 18.957 25.5156 18.4648 25.3281 17.8203ZM15.3086 18.1016C15.2266 18.1602 15.1328 18.2246 15.0273 18.2949C14.5586 18.623 13.8965 19.0098 13.041 19.4551L15.5898 19.3145C15.5078 18.916 15.4141 18.5117 15.3086 18.1016ZM3.83008 1.96484H14.7988C15.8184 1.96484 16.5625 2.19922 17.0312 2.66797C17.5 3.13672 17.7344 3.88086 17.7344 4.90039V11.3516H8.38281V33.7461H3.83008V1.96484ZM8.38281 4.37305V5.67383H12.4258L13.252 7.58984H8.38281V8.94336H13.4102V4.37305H8.38281ZM23.2715 26.1348H24.5898V23.1816H28.1934V28.2969H23.2715V32.3926H19.668V22.4961H23.2715V26.1348ZM14.623 28.2969H12.3203C11.5 28.2969 10.9023 28.1094 10.5273 27.7344C10.1523 27.3594 9.96484 26.7617 9.96484 25.9414V23.1816H13.5684V26.1348H14.9395V22.4961H18.543V26.6797C18.543 27.9336 18.2324 28.8711 17.6113 29.4922C16.4277 30.6992 13.9199 31.6895 10.0879 32.4629V30.582C12.5371 29.9961 14.0488 29.2344 14.623 28.2969ZM29.7227 11.4043H20.3184V1.96484H31.3398C32.3594 1.96484 33.1035 2.19922 33.5723 2.66797C34.041 3.13672 34.2754 3.88086 34.2754 4.90039V30.248C34.2754 31.7363 33.959 32.709 33.3262 33.166C32.9043 33.4707 32.166 33.623 31.1113 33.623H26.418L25.5918 31.2324H29.7227V11.4043ZM29.7227 8.99609V4.37305H24.6426V5.67383H28.7734L29.5996 7.58984H24.6426V8.99609H29.7227ZM48.4012 9.18945H45.6766V5.83203H61.3563V9.18945H52.9539V12.6875H56.5223C57.3191 12.6875 57.8992 12.7578 58.2625 12.8984C59.0008 13.2031 59.5164 13.7246 59.8094 14.4629C59.9617 14.8262 60.0379 15.4062 60.0379 16.2031V29.8613C60.0379 30.6582 59.9617 31.2383 59.8094 31.6016C59.493 32.3398 58.9422 32.8613 58.157 33.166C57.782 33.3066 57.1727 33.377 56.3289 33.377H52.2684L51.4598 30.0195H55.4852V16.0449H52.9539V19.0859C52.9539 21.2305 52.5965 23.5215 51.8816 25.959C51.3191 27.8926 50.3992 29.5273 49.1219 30.8633C48.2664 31.7539 47.0828 32.7617 45.5711 33.8867V30.8281C46.4031 29.5977 46.9832 28.5254 47.3113 27.6113C48.0379 25.584 48.4012 22.6953 48.4012 18.9453V9.18945ZM72.0086 0.804688H72.3074C72.6707 3.00781 73.3152 5.09375 74.241 7.0625C75.0379 8.73828 75.9051 10.1445 76.8426 11.2812C77.323 11.8672 78.0145 12.5762 78.9168 13.4082V16.9062C77.6277 16.2852 76.6316 15.7285 75.9285 15.2363C73.948 13.8066 72.1492 11.8262 70.532 9.29492C70.3094 8.93164 70.0809 8.54492 69.8465 8.13477C68.9676 9.76367 67.8484 11.2637 66.4891 12.6348C65.282 13.8535 64.0105 14.8379 62.6746 15.5879C62.2527 15.8223 61.6316 16.1328 60.8113 16.5195V13.127C61.8895 12.166 62.7098 11.293 63.2723 10.5078C65.1941 7.88281 66.4188 4.64844 66.9461 0.804688H72.0086ZM54.0438 0.681641C54.8758 2.00586 55.6023 3.54688 56.2234 5.30469H50.7039C50.6688 3.80469 50.4344 2.26367 50.0008 0.681641H54.0438ZM75.8934 27.7344V33.9043C74.1941 32.1699 72.741 30.8223 71.534 29.8613C69.2371 28.0332 66.6648 26.1289 63.8172 24.1484V20.4746C66.3484 21.9395 68.2176 23 69.4246 23.6562C71.6863 24.9102 73.8426 26.2695 75.8934 27.7344ZM74.4695 18.1367V24.166C73.3328 23.123 72.4832 22.332 71.9207 21.793C70.6668 20.5859 69.618 19.6602 68.7742 19.0156C68.0945 18.4883 67.0984 17.7734 65.7859 16.8711V13.9531C68.868 15.0312 71.7625 16.4258 74.4695 18.1367ZM112.941 20.8613C113.914 19.3379 114.722 17.5332 115.367 15.4473H120.693C119.369 19.877 117.4 23.2812 114.787 25.6602C115.068 26.1406 115.273 26.5039 115.402 26.75C115.742 27.418 116.005 27.8691 116.193 28.1035C116.38 28.3262 116.72 28.6133 117.213 28.9648C117.541 29.2109 118.056 29.5391 118.759 29.9492C118.947 29.2695 119.152 27.7812 119.375 25.4844H122.38C122.31 28.4141 122.099 30.3887 121.748 31.4082C121.209 32.9902 120.183 33.7812 118.671 33.7812C117.511 33.7812 116.275 33.418 114.963 32.6914C113.439 31.8477 112.068 30.4766 110.849 28.5781C109.138 29.668 107.779 30.4297 106.771 30.8633C106.033 31.1797 104.574 31.6953 102.394 32.4102V29.6504C105.394 28.209 107.65 26.7676 109.162 25.3262C108.412 23.4746 107.861 21.4531 107.509 19.2617C107.275 17.7617 107.064 15.9395 106.877 13.7949H100.777V18.4004L105.98 17.5742V20.6328L100.777 21.9863V29.8789C100.777 30.6875 100.689 31.2676 100.513 31.6191C100.138 32.3574 99.5055 32.8789 98.6148 33.1836C98.1695 33.3242 97.4605 33.3945 96.4879 33.3945H91.2848L90.4586 30.0371H95.5035V23.3574L89.4215 24.9395V20.2109L95.5035 19.2441V13.7949H89.4742V10.4375H95.5035V6.32422H90.8805V2.9668H98.8258C99.5172 2.9668 99.9918 2.75 100.25 2.31641C100.379 2.08203 100.472 1.78906 100.531 1.4375H105.681C105.47 3.26562 105.119 4.47266 104.627 5.05859C103.912 5.90234 102.804 6.32422 101.304 6.32422H100.777V10.4375H106.666C106.654 10.1914 106.648 9.89844 106.648 9.55859V0.998047H111.921V9.62891C111.921 9.96875 111.921 10.2383 111.921 10.4375H121.414V13.7949H112.08C112.314 16.9121 112.601 19.2676 112.941 20.8613ZM116.457 2.33398C117.851 3.85742 119.246 6.11328 120.64 9.10156H115.05C114.605 6.64062 113.855 4.38477 112.8 2.33398H116.457ZM134.502 16.168C133.928 16.6719 133.032 17.2988 131.813 18.0488V14.1465C133.008 12.8223 134.016 11.1113 134.836 9.01367C135.493 7.36133 135.955 5.73828 136.225 4.14453C136.33 3.55859 136.512 2.39844 136.77 0.664062H141.34C141.094 2.33984 140.901 3.55273 140.76 4.30273C140.338 6.43555 139.77 8.31055 139.055 9.92773V33.7988H134.502V16.168ZM141.604 1.96484H148.811C149.83 1.96484 150.575 2.19922 151.043 2.66797C151.512 3.13672 151.746 3.88086 151.746 4.90039V15.6934H146.403V33.7461H141.604V1.96484ZM145.682 5.09375V7.18555H146.913L147.932 10.3145H145.682V12.582H148.143V5.09375H145.682ZM155.455 33.6055L154.295 30.248H159.288V15.6934H153.838V1.96484H161.151C162.17 1.96484 162.914 2.19922 163.383 2.66797C163.852 3.13672 164.086 3.88086 164.086 4.90039V28.9121C164.086 30.3418 163.946 31.3965 163.664 32.0762C163.454 32.5918 163.084 32.9844 162.557 33.2539C162.088 33.4883 161.291 33.6055 160.166 33.6055H155.455ZM160.008 12.582V5.09375H157.442V7.18555H158.655L159.692 10.3145H157.442V12.582H160.008ZM17.2 52.28C17.32 52.32 17.36 52.36 17.36 52.72C17.36 53.08 17.32 53.14 17.2 53.14C16.74 53.14 15.44 53 13.98 53C12.92 53 9.96 53.14 9.5 53.14C9.38 53.14 9.34 53.08 9.34 52.72C9.34 52.36 9.38 52.3 9.5 52.28L10.68 52.12C10.88 52.1 10.92 52.04 10.82 51.84L9.78 49.66H5.4C4.74 51.58 4.9 51.7 5.42 51.9L6.46 52.28C6.58 52.32 6.62 52.38 6.62 52.74C6.62 53.1 6.58 53.14 6.46 53.14C6 53.14 4.72 53 3.66 53C2.6 53 1.6 53.14 1.14 53.14C1.02 53.14 0.98 53.1 0.98 52.74C0.98 52.38 1.02 52.34 1.14 52.28L1.8 51.98C2.4 51.7 2.48 51.58 3.82 48.88L5.86 44.8C6.9 42.72 8.16 40.02 8.72 38.66C8.82 38.42 8.92 38.36 9.44 38.36C9.96 38.36 10.06 38.42 10.16 38.66C10.72 40.02 11.9 42.72 12.9 44.8L16.28 51.84C16.38 52.04 16.38 52.06 16.58 52.12L17.2 52.28ZM5.74 48.66H9.3L7.28 44.44L5.74 48.66ZM30.3277 42.76C32.4077 42.76 34.4877 44.44 34.4877 47.76C34.4877 51.24 32.0677 53.24 28.7677 53.24C27.0477 53.24 25.5477 52.72 24.5077 51.94C23.9677 52.36 23.6077 52.66 23.1677 53.1C23.0677 53.2 23.0277 53.22 22.9477 53.22C22.7477 53.22 22.3677 53.06 22.3677 52.96C22.3677 52.72 22.5677 51.9 22.5677 49.94V41.56C22.5677 41.36 22.5277 41.34 22.3277 41.3L21.6477 41.18C21.5277 41.16 21.4877 41.12 21.4877 40.8C21.4877 40.5 21.5277 40.46 21.6477 40.42C23.2877 39.78 25.0677 38.76 26.6677 37.66C26.7277 37.62 26.7677 37.6 26.8277 37.6C26.9677 37.6 27.3477 37.76 27.3477 37.9C27.3477 38.24 27.1877 39.6 27.1877 42.06V44.72C27.8877 43.34 29.0477 42.76 30.3277 42.76ZM29.3677 52.6C29.7877 52.6 30.0677 52.22 30.0677 51.5C30.0677 49.74 28.9877 46.52 27.9077 45.44C27.7077 45.24 27.5677 45.2 27.4277 45.2C27.3477 45.2 27.2677 45.22 27.1877 45.28V47.66C27.1877 49.56 27.9677 51.58 28.6477 52.26C28.9077 52.52 29.0877 52.6 29.3677 52.6ZM39.4805 48.12C39.4805 44.72 42.0605 42.76 45.7605 42.76C49.2405 42.76 51.6405 44.72 51.6405 47.96C51.6405 51.36 49.0605 53.32 45.3605 53.32C41.8805 53.32 39.4805 51.36 39.4805 48.12ZM43.8405 44.82C43.8405 46.92 45.0605 51.42 45.9205 52.28C46.1605 52.52 46.3405 52.58 46.5405 52.58C46.9405 52.58 47.2805 52.32 47.2805 51.26C47.2805 49.16 46.0605 44.66 45.2005 43.8C44.9605 43.56 44.7805 43.5 44.5805 43.5C44.1805 43.5 43.8405 43.76 43.8405 44.82ZM69.7445 51.42C69.8645 51.44 69.9045 51.5 69.9045 51.84C69.9045 52.18 69.8645 52.22 69.7445 52.24C68.5445 52.48 66.9445 52.86 65.4445 53.3C65.2845 53.34 64.8045 53.22 64.7445 53.02C64.5645 52.36 64.3845 51.42 64.3445 50.86C63.8245 52.06 62.5445 53.32 60.7645 53.32C58.6645 53.32 57.3645 51.98 57.3645 49.82V44.2C57.3645 44 57.3245 43.96 57.1245 43.92L56.4445 43.76C56.3245 43.74 56.2845 43.68 56.2845 43.34C56.2845 43 56.3445 42.88 56.4645 42.88C58.2245 42.84 61.7045 42.8 61.8445 42.8C61.9845 42.8 62.1445 42.96 62.1445 43.1C62.1445 43.44 61.9845 44.58 61.9845 47.04V48.08C61.9845 49.94 62.4245 50.6 63.7645 50.6C63.9045 50.6 64.1045 50.58 64.2045 50.54V44.2C64.2045 44 64.1645 43.96 63.9645 43.92L63.2845 43.76C63.1645 43.74 63.1245 43.68 63.1245 43.34C63.1245 43 63.1845 42.88 63.3045 42.88C65.0645 42.84 68.5445 42.8 68.6845 42.8C68.8245 42.8 68.9845 42.96 68.9845 43.1C68.9845 43.44 68.8245 44.58 68.8245 47.04V50.98C68.8245 51.18 68.8645 51.22 69.0645 51.26L69.7445 51.42ZM82.0475 44.14C81.3475 44.14 80.4875 44.14 79.8075 44.12V48.08C79.8075 49.94 80.3075 50.4 81.1675 50.4C81.4275 50.4 81.5675 50.28 81.6675 50.28C81.8875 50.28 82.2275 50.6 82.1475 50.8C81.6475 52.06 80.2475 53.32 78.3875 53.32C76.2875 53.32 75.1875 51.98 75.1875 49.82V44.34C75.1875 44.14 75.1675 44.12 74.9475 44.08L74.2275 43.98C74.0875 43.96 74.0675 43.92 74.0675 43.58C74.0675 43.24 74.1075 43.16 74.2275 43.14C76.3275 42.64 77.4675 41.94 78.7675 40.58C78.8875 40.46 78.9075 40.42 79.2275 40.42C79.5475 40.42 79.6075 40.44 79.6275 40.58C79.7075 41.16 79.7675 42.04 79.7875 42.92L82.0475 42.9C82.2475 42.9 82.3275 43 82.3275 43.54C82.3275 44.08 82.2475 44.14 82.0475 44.14ZM102.963 53.32C98.3433 53.32 96.3033 51.32 96.3033 48.34V39.74C96.3033 39.54 96.2633 39.5 96.0633 39.46L95.1833 39.32C95.0633 39.3 95.0233 39.24 95.0233 38.88C95.0233 38.52 95.0633 38.46 95.1833 38.46C95.6433 38.46 97.2233 38.6 98.8833 38.6C100.543 38.6 102.143 38.46 102.603 38.46C102.723 38.46 102.763 38.52 102.763 38.88C102.763 39.24 102.723 39.3 102.603 39.32L101.723 39.46C101.523 39.5 101.483 39.54 101.483 39.74V47.92C101.483 50.64 102.763 51.6 104.803 51.6C107.003 51.6 108.283 50.42 108.143 47.46L107.923 42.72C107.803 39.92 107.663 39.82 107.083 39.64L106.003 39.32C105.883 39.28 105.843 39.24 105.843 38.88C105.843 38.52 105.883 38.46 106.003 38.46C106.463 38.46 107.423 38.6 108.723 38.6C109.983 38.6 110.883 38.46 111.343 38.46C111.463 38.46 111.503 38.52 111.503 38.88C111.503 39.24 111.463 39.28 111.343 39.32L110.463 39.64C109.863 39.86 109.763 39.92 109.703 42.72L109.643 46.02C109.623 46.72 109.643 47.66 109.643 48.16C109.643 51.26 108.263 53.32 102.963 53.32ZM116.26 49.5C116.28 49.34 116.34 49.3 116.7 49.3C117.08 49.3 117.14 49.34 117.2 49.5C117.6 50.5 117.92 51.26 118.26 51.84C118.6 52.42 119.04 52.6 119.64 52.6C120.52 52.6 121.04 52.16 121.04 51.42C121.04 50.7 120.66 50.22 119.24 49.8C116.8 49.08 116.2 47.96 116.2 46.24C116.2 44.26 117.98 42.66 121.24 42.66C121.96 42.66 122.7 42.74 123.46 42.84C123.86 42.9 123.9 42.94 123.9 43.34V45.72C123.9 45.88 123.86 45.92 123.48 45.92C123.1 45.92 123.04 45.88 122.98 45.72L122.36 44.14C122.16 43.66 121.82 43.38 121.16 43.38C120.48 43.38 119.96 43.66 119.96 44.4C119.96 45.06 120.28 45.4 121.62 45.88C123.88 46.68 124.6 47.86 124.6 49.38C124.6 51.72 122.76 53.32 119.56 53.32C118.38 53.32 117.54 53.18 116.5 52.86C116.1 52.74 116.06 52.7 116.06 52.3C116.06 51.56 116.16 50.42 116.26 49.5Z" fill="#20615B"/>
</svg>
