<svg width="165" height="58" viewBox="0 0 165 58" fill="none" xmlns="http://www.w3.org/2000/svg">
<path d="M8.2793 9.7168H14.4316C15.2402 9.7168 15.832 9.9043 16.207 10.2793C16.582 10.6543 16.7695 11.2461 16.7695 12.0547V21.7754H7.98047C7.67578 24.248 7.20703 26.1992 6.57422 27.6289C5.90625 29.1172 4.99805 30.4883 3.84961 31.7422C3.28711 32.3516 2.43164 33.043 1.2832 33.8164V30.3008C1.99805 29.1289 2.4668 28.0625 2.68945 27.1016C2.8418 26.457 2.99414 25.6953 3.14648 24.8164C3.36914 23.5391 3.48047 21.002 3.48047 17.2051V2.61523H12.1816C12.8145 2.61523 13.1836 2.24609 13.2891 1.50781H18.0703C17.8594 3.18359 17.5137 4.28516 17.0332 4.8125C16.3301 5.58594 15.2344 5.97266 13.7461 5.97266H8.2793V9.7168ZM8.2793 13.0742V16.502C8.2793 17.1113 8.26758 17.75 8.24414 18.418H12.2168V13.0742H8.2793ZM23.3262 15.043V16.4844C23.3262 20.5156 22.8574 23.7324 21.9199 26.1348C21.1934 27.9746 20.0215 29.6738 18.4043 31.2324C17.502 32.0996 16.2598 32.9609 14.6777 33.8164V30.3008C15.4512 29.5859 15.9902 29.0293 16.2949 28.6309C16.7168 28.0918 17.1797 27.0957 17.6836 25.6426C18.2461 23.9902 18.5273 21.1777 18.5273 17.2051V2.61523H28.002C28.6465 2.61523 29.0215 2.24609 29.127 1.50781H33.8379C33.627 3.18359 33.2812 4.28516 32.8008 4.8125C32.0977 5.58594 31.002 5.97266 29.5137 5.97266H23.3262V11.6855H34.7344V15.043H31.2891V33.6582H26.4902V15.043H23.3262ZM60.6551 18.8926C60.327 19.4551 60.1043 19.8242 59.9871 20H73.3816C74.4012 20 75.1453 20.2344 75.6141 20.7031C76.0828 21.1719 76.3172 21.9102 76.3172 22.918V31.2676C76.3172 32.0762 76.0711 32.6621 75.5789 33.0254C75.075 33.3887 74.2957 33.5703 73.241 33.5703H68.5477L67.9676 31.6543H71.9754V22.0918H57.5965C56.7996 22.5957 55.8855 23.0293 54.8543 23.3926H60.5145V22.4434H64.3113V23.3926H68.6004C69.4207 23.3926 70.0184 23.5801 70.3934 23.9551C70.7684 24.3301 70.9559 24.9277 70.9559 25.748V28.0332H64.3113V28.9824L68.0027 28.9121C67.9441 28.7715 67.827 28.5488 67.6512 28.2441H69.866C70.5926 29.0762 71.1844 30.0664 71.6414 31.2148H68.7938C68.7469 30.9688 68.6941 30.752 68.6355 30.5645L51.3914 31.9004V29.2637L60.5145 29.0703V28.0332H54.0105V23.6562C53.366 23.8438 52.5457 24.0488 51.5496 24.2715V21.8457C53.1902 21.2832 54.409 20.7031 55.2059 20.1055C55.534 19.8477 55.8973 19.4434 56.2957 18.8926H52.7625V13.8477H73.1355C74.9051 13.8477 75.8719 14.5801 76.0359 16.0449H76.0535V18.8926H60.6551ZM64.3113 26.0996H66.8777V25.3086H64.3113V26.0996ZM71.9754 16.9766V15.834H69.3563V16.9766H71.9754ZM56.8406 16.9766H59.4949V15.834H56.8406V16.9766ZM63.0984 16.9766H65.7527V15.834H63.0984V16.9766ZM60.5145 25.3086H58.0887V26.0996H60.5145V25.3086ZM51.6551 7.69531V17.7324C51.6551 20.6035 51.2332 23.3574 50.3895 25.9941C49.8621 27.6699 49.0359 29.1523 47.9109 30.4414C47.2781 31.1797 46.2117 32.1406 44.7117 33.3242V29.6328C45.7313 27.6406 46.3523 25.625 46.575 23.5859C46.7625 21.8164 46.8563 19.8535 46.8563 17.6973V1.73633H73.8387C74.8582 1.73633 75.6023 1.9707 76.0711 2.43945C76.5398 2.9082 76.7742 3.65234 76.7742 4.67188V7.69531H51.6551ZM51.6551 5.28711H71.9754V4.14453H51.6551V5.28711ZM62.0262 13.3027V8.27539H66.3504V13.3027H62.0262ZM75.7898 11.1758V13.6543C73.4813 13.1738 70.5691 12.7461 67.0535 12.3711V10.8066C69.7605 10.8887 71.9988 10.9766 73.7684 11.0703L75.7898 11.1758ZM67.0184 10.543V8.96094C68.284 8.78516 69.2801 8.5332 70.0066 8.20508H75.7195C74.3836 9.30664 71.4832 10.0859 67.0184 10.543ZM56.6824 8.20508C58.5457 8.9082 60.1219 9.65234 61.4109 10.4375H55.8387C54.8074 9.64063 53.659 8.89648 52.3934 8.20508H56.6824ZM61.3055 12.4414L52.4109 13.6191V11.1934L61.3055 10.8242V12.4414ZM103.855 18.8926C103.527 19.4551 103.304 19.8242 103.187 20H116.582C117.601 20 118.345 20.2344 118.814 20.7031C119.283 21.1719 119.517 21.9102 119.517 22.918V31.2676C119.517 32.0762 119.271 32.6621 118.779 33.0254C118.275 33.3887 117.496 33.5703 116.441 33.5703H111.748L111.168 31.6543H115.175V22.0918H100.796C99.9996 22.5957 99.0855 23.0293 98.0543 23.3926H103.714V22.4434H107.511V23.3926H111.8C112.621 23.3926 113.218 23.5801 113.593 23.9551C113.968 24.3301 114.156 24.9277 114.156 25.748V28.0332H107.511V28.9824L111.203 28.9121C111.144 28.7715 111.027 28.5488 110.851 28.2441H113.066C113.793 29.0762 114.384 30.0664 114.841 31.2148H111.994C111.947 30.9688 111.894 30.752 111.836 30.5645L94.5914 31.9004V29.2637L103.714 29.0703V28.0332H97.2105V23.6562C96.566 23.8438 95.7457 24.0488 94.7496 24.2715V21.8457C96.3902 21.2832 97.609 20.7031 98.4059 20.1055C98.734 19.8477 99.0973 19.4434 99.4957 18.8926H95.9625V13.8477H116.336C118.105 13.8477 119.072 14.5801 119.236 16.0449H119.254V18.8926H103.855ZM107.511 26.0996H110.078V25.3086H107.511V26.0996ZM115.175 16.9766V15.834H112.556V16.9766H115.175ZM100.041 16.9766H102.695V15.834H100.041V16.9766ZM106.298 16.9766H108.953V15.834H106.298V16.9766ZM103.714 25.3086H101.289V26.0996H103.714V25.3086ZM94.8551 7.69531V17.7324C94.8551 20.6035 94.4332 23.3574 93.5895 25.9941C93.0621 27.6699 92.2359 29.1523 91.1109 30.4414C90.4781 31.1797 89.4117 32.1406 87.9117 33.3242V29.6328C88.9313 27.6406 89.5523 25.625 89.775 23.5859C89.9625 21.8164 90.0563 19.8535 90.0563 17.6973V1.73633H117.039C118.058 1.73633 118.802 1.9707 119.271 2.43945C119.74 2.9082 119.974 3.65234 119.974 4.67188V7.69531H94.8551ZM94.8551 5.28711H115.175V4.14453H94.8551V5.28711ZM105.226 13.3027V8.27539H109.55V13.3027H105.226ZM118.99 11.1758V13.6543C116.681 13.1738 113.769 12.7461 110.254 12.3711V10.8066C112.961 10.8887 115.199 10.9766 116.968 11.0703L118.99 11.1758ZM110.218 10.543V8.96094C111.484 8.78516 112.48 8.5332 113.207 8.20508H118.92C117.584 9.30664 114.683 10.0859 110.218 10.543ZM99.8824 8.20508C101.746 8.9082 103.322 9.65234 104.611 10.4375H99.0387C98.0074 9.64063 96.859 8.89648 95.5934 8.20508H99.8824ZM104.505 12.4414L95.6109 13.6191V11.1934L104.505 10.8242V12.4414ZM150.36 0.787109L150.395 0.751953L150.413 0.787109H150.43C151.743 2.2168 153.325 3.45313 155.176 4.49609C156.735 5.375 158.405 6.10742 160.186 6.69336C161.147 7.00977 162.53 7.39063 164.334 7.83594V10.7188C160.842 10.0508 158.352 9.47656 156.864 8.99609C156.243 8.79688 155.317 8.46289 154.086 7.99414L154.42 9.11914H141.096L140.762 7.99414C138.055 9.08398 134.803 9.99219 131.006 10.7188V7.83594C134.229 6.99219 136.983 6.01367 139.268 4.90039C140.78 4.17383 141.981 3.40625 142.871 2.59766C143.317 2.1875 143.885 1.58398 144.577 0.787109H150.36ZM147.266 4.16211C146.305 5.04102 145.215 5.81445 143.996 6.48242H150.799C149.663 5.87305 148.485 5.09961 147.266 4.16211ZM155.809 13.373C155.61 14.6387 155.252 15.7695 154.737 16.7656H150.026C151.268 15.7109 152.235 14.5801 152.926 13.373H155.809ZM142.08 13.373C143.159 14.3223 144.026 15.4531 144.682 16.7656H140.2C140.024 15.5586 139.661 14.4277 139.11 13.373H142.08ZM134.188 19.9824V10.1738H158.112C159.131 10.1738 159.875 10.4082 160.344 10.877C160.813 11.3457 161.047 12.0898 161.047 13.1094V19.9824H134.188ZM145.297 12.582H138.741V17.5742H145.297V12.582ZM149.621 12.582V17.5742H156.495V12.582H149.621ZM135.541 32.7793V21.0723H156.705C157.725 21.0723 158.469 21.3066 158.938 21.7754C159.407 22.2441 159.641 22.9883 159.641 24.0078V32.7793H135.541ZM140.586 30.1602H154.596V23.709H140.586V25.5898H153.313L154.35 27.998H140.586V30.1602ZM0.68 47.72C0.7 47.56 0.76 47.52 1.22 47.52C1.68 47.52 1.74 47.56 1.8 47.72C2.32 49.1 3.1 50.88 3.74 51.52C4.3 52.08 4.88 52.44 5.84 52.44C7.28 52.44 7.98 51.7 7.98 50.58C7.98 49.5 7.56 48.76 5.36 47.96C1.82 46.68 0.6 45.26 0.6 42.88C0.6 40.12 3.54 38.36 8.44 38.36C9.26 38.36 10.04 38.42 10.94 38.6C11.34 38.68 11.38 38.72 11.38 39.12V42.68C11.38 42.84 11.3 42.88 10.84 42.88C10.38 42.88 10.32 42.84 10.26 42.68C9.9 41.72 9.54 40.54 9.02 40.02C8.46 39.46 7.94 39.24 7.18 39.24C6.16 39.24 5.42 39.8 5.42 40.92C5.42 42.12 5.92 42.76 7.76 43.46C11.24 44.78 12.54 46.2 12.54 48.32C12.54 51.22 9.96 53.32 5.7 53.32C3.84 53.32 2.28 53.1 0.84 52.72C0.44 52.62 0.4 52.56 0.4 52.16C0.4 50.9 0.6 48.2 0.68 47.72ZM17.4492 48.12C17.4492 44.72 20.0292 42.76 23.7292 42.76C27.2092 42.76 29.6092 44.72 29.6092 47.96C29.6092 51.36 27.0292 53.32 23.3292 53.32C19.8492 53.32 17.4492 51.36 17.4492 48.12ZM21.8092 44.82C21.8092 46.92 23.0292 51.42 23.8892 52.28C24.1292 52.52 24.3092 52.58 24.5092 52.58C24.9092 52.58 25.2492 52.32 25.2492 51.26C25.2492 49.16 24.0292 44.66 23.1692 43.8C22.9292 43.56 22.7492 43.5 22.5492 43.5C22.1492 43.5 21.8092 43.76 21.8092 44.82ZM44.7533 50.4C44.1333 51.9 42.2333 53.32 39.7533 53.32C36.7733 53.32 34.6133 51.24 34.6133 48.12C34.6133 44.92 37.2333 42.76 40.7733 42.76C43.3133 42.76 44.7333 44.1 44.7333 45.42C44.7333 46.2 44.1333 46.8 43.2333 46.8C42.3333 46.8 41.6733 46.24 41.0933 45.14C40.3533 43.74 40.0733 43.5 39.6333 43.5C39.2133 43.5 38.9133 43.8 38.9133 44.56C38.9133 46.3 39.8133 48.64 41.0133 49.84C41.6133 50.44 42.0133 50.62 42.6533 50.62C43.2333 50.62 43.6533 50.4 44.1533 49.98C44.3333 49.84 44.8333 50.2 44.7533 50.4ZM53.1675 41.74C51.8275 41.74 50.8675 40.74 50.8675 39.44C50.8675 38.14 51.8275 37.14 53.1675 37.14C54.5075 37.14 55.4675 38.14 55.4675 39.44C55.4675 40.74 54.5075 41.74 53.1675 41.74ZM49.6675 53.14C49.5475 53.14 49.5075 53.08 49.5075 52.72C49.5075 52.36 49.5475 52.3 49.6675 52.28L50.3475 52.14C50.5475 52.1 50.5875 52.06 50.5875 51.86V46.6C50.5875 46.4 50.5475 46.38 50.3475 46.34L49.6675 46.22C49.5475 46.2 49.5075 46.16 49.5075 45.84C49.5075 45.54 49.5475 45.5 49.6675 45.46C51.3075 44.82 53.0875 43.8 54.6875 42.7C54.7475 42.66 54.7875 42.64 54.8475 42.64C54.9875 42.64 55.3675 42.8 55.3675 42.94C55.3675 43.28 55.2075 44.64 55.2075 47.1V51.86C55.2075 52.06 55.2475 52.1 55.4475 52.14L56.1275 52.28C56.2475 52.3 56.2875 52.36 56.2875 52.72C56.2875 53.08 56.2475 53.14 56.1275 53.14C55.6675 53.14 54.3675 53 52.9075 53C51.4475 53 50.1075 53.14 49.6675 53.14ZM71.4294 46.78C69.8494 46.86 67.5694 46.9 65.6694 46.84C65.9694 47.84 66.5094 48.8 67.0694 49.36C67.8294 50.12 68.3694 50.32 69.0894 50.32C69.9094 50.32 70.4894 49.98 71.0294 49.5C71.2094 49.34 71.7094 49.72 71.6294 49.92C70.8094 51.96 68.5494 53.32 66.3894 53.32C63.4094 53.32 61.1094 51.28 61.1094 48.12C61.1094 44.9 63.5294 42.76 67.0894 42.76C70.0694 42.76 71.6894 44.2 71.6894 46.12C71.6894 46.3 71.6894 46.5 71.6494 46.64C71.6294 46.72 71.5494 46.78 71.4294 46.78ZM66.1894 46.32C67.1094 46.22 67.5294 45.56 67.5294 44.54C67.5294 43.78 67.2094 43.38 66.6494 43.38C66.0294 43.38 65.4094 43.94 65.4094 45.14C65.4094 45.54 65.4694 45.98 65.5494 46.4L66.1894 46.32ZM84.0319 44.14C83.3319 44.14 82.4719 44.14 81.7919 44.12V48.08C81.7919 49.94 82.2919 50.4 83.1519 50.4C83.4119 50.4 83.5519 50.28 83.6519 50.28C83.8719 50.28 84.2119 50.6 84.1319 50.8C83.6319 52.06 82.2319 53.32 80.3719 53.32C78.2719 53.32 77.1719 51.98 77.1719 49.82V44.34C77.1719 44.14 77.1519 44.12 76.9319 44.08L76.2119 43.98C76.0719 43.96 76.0519 43.92 76.0519 43.58C76.0519 43.24 76.0919 43.16 76.2119 43.14C78.3119 42.64 79.4519 41.94 80.7519 40.58C80.8719 40.46 80.8919 40.42 81.2119 40.42C81.5319 40.42 81.5919 40.44 81.6119 40.58C81.6919 41.16 81.7519 42.04 81.7719 42.92L84.0319 42.9C84.2319 42.9 84.3119 43 84.3119 43.54C84.3119 44.08 84.2319 44.14 84.0319 44.14ZM100.918 42.86C101.038 42.86 101.078 42.92 101.078 43.28C101.078 43.64 101.038 43.66 100.918 43.72L99.9783 44.14C99.5783 44.32 99.4183 44.52 98.3183 46.6L95.3383 52.2L94.1583 54.52C93.1183 56.56 92.2383 57.6 90.5783 57.6C89.3383 57.6 88.4183 56.8 88.4183 55.56C88.4183 54.32 89.4183 53.42 90.6583 53.42C91.3983 53.42 92.0783 53.7 92.6583 54.18L93.3783 53.12L88.8183 44.12C88.7183 43.92 88.7183 43.88 88.5183 43.84L87.8983 43.72C87.7783 43.7 87.7383 43.64 87.7383 43.28C87.7383 42.92 87.7783 42.86 87.8983 42.86C88.3583 42.86 89.6583 43 91.1183 43C92.1783 43 94.6383 42.86 95.0983 42.86C95.2183 42.86 95.2583 42.92 95.2583 43.28C95.2583 43.64 95.2183 43.7 95.0983 43.72L93.9183 43.84C93.7183 43.86 93.6983 43.94 93.7783 44.12L95.9983 48.62L96.6983 46.6C97.4383 44.48 97.3583 44.3 96.7783 44.1L95.5983 43.7C95.4783 43.66 95.4383 43.64 95.4383 43.28C95.4383 42.92 95.4783 42.86 95.5983 42.86C96.0583 42.86 97.3383 43 98.3983 43C99.4583 43 100.458 42.86 100.918 42.86Z" fill="#20615B"/>
</svg>
