<svg id="Layer_1" data-name="Layer 1" xmlns="http://www.w3.org/2000/svg" viewBox="0 0 1080 1080"><defs><style>.cls-1{fill:#20615b;}</style></defs><path class="cls-1" d="M561.93,157.68c2.35,4.09,6.86,2.69,10,2.93A251.12,251.12,0,0,1,703.17,211c27.86,21.39,49.75,48.08,64.08,80.4a196.17,196.17,0,0,1,14.29,49c10.18-12.69,20.43-15.19,37.3-10C830.56,334,840.33,340.59,848.9,349c10,9.8,19.3,20.39,29.38,30.14,8.6,8.32,18.46,14.79,30.4,17.8,9,2.28,17.92,1.08,26.78.19a103.29,103.29,0,0,0,35.37-10.63A50.66,50.66,0,0,0,988,373.08c3.65-4.45,7.64-8.87,13.17-11.31,2.13-.94,5.41-2.42,4.51,1.67-2.12,9.62-3.9,19.35-8.6,28.32-7,13.43-18,22.74-30.27,30.94a111.16,111.16,0,0,1-35.13,15.73c-7.51,1.87-15.44.52-23.13-1-3.93-.8-8.05-1.92-11.93-1.48-8.12.9-16.51,10.38-11.44,20.45,3.55,7,8.78,13,13.6,19.23,3.39,4.36,2.4,8.45.39,12.74a13.53,13.53,0,0,1-1.66,2.65c-7.49,9.81-4.24,20.31-1.65,30.56a198.28,198.28,0,0,1,6.31,42.5c.2,6.05,4.74,10.35,7.34,15.43,2.46,4.8,5.12,9.49,7.47,14.35,4.9,10.14,1.1,19-4.4,27.5-2.75,4.26-6,8.28-8.2,12.78-5.55,11.11-26.35,14.76-36,10.39-8.23-3.73-11.58-11.09-14.19-18.6-3.26-9.38-8.7-16.89-15.26-24.2-11.52-12.81-25.25-21.38-41.91-25.53-10.17-2.53-17.7-8.78-23.72-17.22-6.44-9-15-11.83-25.62-8.56a9.65,9.65,0,0,0-6.86,8,78.36,78.36,0,0,1-6,18.33c-1.6,3.66-.19,6.38,2.22,9,5.67,6.3,13.77,8.91,20.46,13.64,6,4.21,12.29,7.68,17,13.78,5,6.47,6.83,13.09,4.42,20.5-6.32,19.41-13,38.75-24.59,55.82C745.9,702,736.74,714,725.88,724.6a237.47,237.47,0,0,1-36.27,28.71A250.8,250.8,0,0,1,615.86,786a318.12,318.12,0,0,1-48.05,8.17,279.25,279.25,0,0,1-43.65.6c-16-.89-31.88-4-47.57-7.62a224.15,224.15,0,0,1-43.51-14.52,265.22,265.22,0,0,1-54.51-33,204.17,204.17,0,0,1-37.7-39.06c-15.14-20.49-26.76-42.85-32.35-68-2.61-11.72,2.41-20.92,15.33-28.83q10.5-6.42,20.85-13.05c4.51-2.89,6.14-8.43,3.15-12.81-3.89-5.72-5.24-12.14-6.24-18.65-1.54-10-9.62-12-17.2-9.13-6.62,2.52-10.86,8.29-16.15,12.57-8,6.46-16.86,10.7-26.43,14.45-16.18,6.35-31.23,14.64-42.41,29.06a150.77,150.77,0,0,0-17.68,29c-4.93,10.57-11.69,13.07-23.11,11-13.3-2.38-19.9-12.09-26.47-22.12-1.52-2.31-2.5-5-4-7.32-6.58-10.42-3.42-20.28,1.51-30.13,5.06-10.13,10.64-20.12,12.95-31.31,1.3-6.32.91-12.93,2.24-19.33,1.8-8.71,5.61-16.78,7.25-25.62,1.1-5.9-1.93-10-3.13-14.92a6.53,6.53,0,0,0-.89-1.89c-8.75-13.61-3.91-17.64,4.51-29.31,2.06-2.85,4.44-5.45,6.61-8.21,6.92-8.82.57-15.76-6.31-18.33a21.47,21.47,0,0,0-14.78-.4c-11.64,4.21-22.66,1.61-33.87-1.34a103.67,103.67,0,0,1-30.11-13,75.62,75.62,0,0,1-19.38-18.5c-6.41-8.52-12.17-17.43-16-27.53-1.75-4.66-1.35-9.35-1.58-14.09-.11-2.27.73-4.11,2.57-4.79s3.84.67,4.88,2.26c3.47,5.26,8.19,9.35,12.71,13.56,11.91,11.1,25.14,20.34,41.6,22.93,7.49,1.18,15.33.85,22.94.27,13.52-1,26.43-4.36,37.75-12.44,6.71-4.78,11.37-11.43,16.77-17.44,13.9-15.46,27.53-31.58,48.71-37.45,9.7-2.69,19.53-2.51,28.61,3,2.39,1.43,4.3,2.3,5-1.93,2.67-15.19,8.35-29.48,14.39-43.54,6.43-15,15.83-28.33,26-40.93a214.08,214.08,0,0,1,42.5-39.57,250,250,0,0,1,69.69-35.34,247.47,247.47,0,0,1,51.12-10.85c4.33-.43,9.66,1.13,13.41-2.91ZM757.85,363.34c-.76-6.28,0-12.76-1-19.36a203.92,203.92,0,0,0-15.9-51.77c-6.26-13.85-15.67-25.57-25.29-37.22a181.32,181.32,0,0,0-42.81-37.32c-18.57-11.84-38.35-21.22-59.85-27.14a332.09,332.09,0,0,0-60.64-11.27c-20.12-1.68-40.29.37-60.05,4.3-25.39,5-49.9,12.91-72.52,25.88-15.56,8.91-30.19,19.08-43.23,31.44-13.47,12.77-25.35,27-34.37,43.16-10.07,18-17.12,37.32-20.07,58-.83,5.83,0,11.71-1.33,17.37a29.78,29.78,0,0,0,.88,16.1c.87,2.71,2.57,5.48,6.23,5.68,3.83.2,7.54,0,10-3.45,4.26-6,3.24-16.06-2.28-21.09-2.05-1.87-4.55-3.22-6.82-4.84-1.92-1.37-3.14-3.29-1.9-5.48,1.42-2.5,3.32-.13,5,.13a8.29,8.29,0,0,1,2.35,1.16q21.69,11.6,43.37,23.2c2.29,1.23,4.63,3.71,6.8,3.55,3.58-.26,2.2-4.58,3.37-7,11.28-23.08,26.47-42.85,46.93-58.64,16.54-12.75,35.08-21.58,54.68-27.85,17.17-5.48,35.11-7.05,53.27-6.83a169.62,169.62,0,0,1,114.63,46.06c14.93,14.12,27,30.69,34,50.38,1.5,4.26,3.23,4.72,6.83,2.5q8.68-5.35,17.65-10.25c9.77-5.35,19.59-10.63,29.52-15.69,1.24-.63,3.44-2.59,4.69-.45,1,1.8-.72,3.61-1.94,5.09-.4.49-1.36.51-1.81,1-3.28,3.46-8.06,6-9.64,10.46-3.22,9.14,3.91,21.71,13.28,24.14,3.15.81,6.22,1.34,7.09-4.16C758,376.56,757.16,370.07,757.85,363.34ZM540,775c8.26-.75,15.14-.49,22.06-1,15.62-1.2,30.78-4.52,46-7.8,26.89-5.8,51.79-16.64,75-31.13,15.6-9.72,29.33-21.85,42.12-35.13,19.27-20,33.74-42.75,42.18-69.27a39.55,39.55,0,0,0,2.23-9.64c.26-4.31-3.07-5.24-5.45-7s-4.83-.28-6.69,1.27c-10.07,8.37-15.87,18.36-11.15,31.89.51,1.46,1,2.64-.18,3.85a3.42,3.42,0,0,1-4,.51c-4.79-2.12-9.73-4-14.23-6.65-9.62-5.65-19-11.71-28.5-17.6-2.36-1.46-4.61-2.77-4.94,1.77a8.61,8.61,0,0,1-1.4,3.36c-7.69,13.21-15.9,25.8-28,35.78-19.42,16-41.44,26.38-65.52,32.79-13.92,3.7-28.3,4.64-42.53,6.35a93.17,93.17,0,0,1-16.86.88c-15.37-1-30.76-1.95-46-4.79-13.68-2.54-27-6.05-39.23-12.26-12.55-6.37-24.83-13.31-35.67-22.76-12.09-10.54-22.46-22.09-28.34-37.09-1.81-4.63-4.3-4.21-6.91-1.94a91.43,91.43,0,0,1-12.35,8.88C361.37,644.44,351.89,652,340.84,657c-1.24.55-3,2.26-4.06,0-.58-1.23-2.52-2.39-1-4.2,5.07-6.16,4.15-13.42,2.32-20-2.12-7.62-7.22-13.54-15.27-16-3-.92-5.44.26-7.78,2.15-2.53,2-.32,4,.1,5.69a133.6,133.6,0,0,0,12.23,30.93c12.11,22.7,27.38,42.76,46.95,59.6a232.76,232.76,0,0,0,61.87,38A279.93,279.93,0,0,0,540,775ZM384.91,569.39a8.14,8.14,0,0,1,6.58,1.59C401,578.8,407.54,588.4,409,601.05c.84,7.29-2.83,12.05-7.9,16.27-2.67,2.22-3.17,3.82-1,7.42a115.15,115.15,0,0,0,33.29,35.85c2.94,2,5.89,5.25,9.91,3.8s8-1.12,11.91-1.74c16.2-2.59,32.41-4.94,47.78-11,9.29-3.65,18.6-7.49,24.4-16.28,4.25-6.43,8-13.3,5.44-21.36-2.84-8.92-9.5-15.26-16.49-20.84-13.6-10.88-19.48-25.64-14.14-42.59,2.1-6.7,7-11.59,10-17.64s2-7.4-4.66-7.4c-33.51,0-67,.14-100.53-.08-14.31-.09-28.67,1.17-43-.93-2.43-.36-4.79,0-5.47,3.34-3.21,16-.5,31,6.82,45.35.89,1.74,2.06,3.32,5,1.28C374.48,571.66,379.08,569.21,384.91,569.39Zm155.33-278a172.83,172.83,0,0,0-29.67,1.92c-26.89,4.08-50.24,15.63-70.62,33-15.24,13-26.95,29-35.95,47.06-3.67,7.39-4.22,13.07,1,19.51,1.69,2.1,2.84,2.56,5.12,1.56,21.15-9.2,39.11-22.7,54.76-39.57,14.88-16.06,30.89-30.9,51.68-39.1,19.88-7.85,39.1-7.09,57.49,5.07,15.47,10.22,27.83,23.88,41.18,36.37s27.32,24.21,43.37,33.17c3.46,1.94,7.27,4,11.08,4.35,3.6.32,2.14-5.08,4.7-6.76.15-.09.23-.28.37-.38,4.4-3.19,3.48-7.2,1.49-11.12a233.66,233.66,0,0,0-12.65-22.31c-13.75-21-32.66-36.3-54.52-47.65A132.67,132.67,0,0,0,540.24,291.41Zm109,234.15q-37.14,0-74.29,0c-1.88,0-3.88-.49-5.36,1.46-5.32,7-3.48,20,3.58,25.1,10.28,7.39,21.86,12.27,33.36,17.3,8.67,3.8,17.46,7.68,24,14.73,6.31,6.82,11,14.91,14.75,23.42,5,11.28,7.68,22.91,4.05,35.18a70.15,70.15,0,0,1-8.59,19.51c-.89,1.33-1.17,2.86-.27,3.94,1.09,1.3,2.13-.49,3.21-.78,2.67-.72,4.07-3.37,6.29-4.71,14.71-8.89,24.91-21.92,33.67-36.28,1.49-2.43,2.67-5.38,0-7.7-8.85-7.58-8.05-17.18-6.12-27.14,3.1-16.05,22-29,37.55-19.07,3.4,2.17,4.3.05,4.85-2.47,2.67-12.23,7-24,8.26-36.66.57-5.56-.77-5.91-5.12-5.89C698.42,525.61,673.84,525.56,649.26,525.56Zm116-147.72c4.87-10.6,11.75-20.7,9.31-33.2-.67-3.42-1.13-6.94-1.63-10.33A154.08,154.08,0,0,0,758,286.06a195.09,195.09,0,0,0-44.15-57.37c-16.25-14.45-33.62-27.31-53.27-36.49-21-9.8-42.43-18.34-65.68-22S548.5,163,524.73,165c-15.06,1.25-30,2.56-44.9,5.44-28.45,5.51-54.66,16.6-79.28,31.55a218.27,218.27,0,0,0-51.31,43.48,237.16,237.16,0,0,0-26,36.76c-9.45,16.23-13.39,34.34-17.91,52.24-.94,3.74-2.11,7.78.91,11.48,1.74,2.15,3.76,4.18,4.6,7a1.75,1.75,0,0,0,2.08,1.27c1.22-.33.7-1.43.83-2.22,1.09-6.72,2.06-13.46,3.23-20.17,4.18-24,14.28-45.61,27.93-65.38,11.67-16.9,26.28-31.35,42.58-44a235.68,235.68,0,0,1,41.86-25.62c14-6.77,29-11,43.79-15.5A216.35,216.35,0,0,1,510,173.86c14.46-1.74,29.08-1.58,43.63-1.11a183,183,0,0,1,25.17,2.54c13.55,2.36,26.74,6.26,40,10a207.46,207.46,0,0,1,81,43.64c20.84,18.14,38,39.39,49.67,65a174.75,174.75,0,0,1,15.9,67.34C765.51,366.76,762.86,372.18,765.22,377.84ZM719.62,484.9c-.54-7.73-4-14.13-5.63-21-.87-3.71-2.74-4.83-6.35-3.73a13.66,13.66,0,0,1-4.25.18c-16.14-.53-32.33,1.11-48.45-1-7.44-1-14.79,1.13-22.24,1.08-21.6-.15-43.22-.65-64.79.14-16.1.6-32-2-48.23-.68-10.34.85-21.13.06-31.69-.21-36.68-1-73.41-.37-110.12-.37-3,0-5.46.89-6.75,4-1.4,3.37-3.38,6.56-4.41,10s-3.48,6.48-2.34,10.36c.61,0,1,.08,1.27-.09a12.73,12.73,0,0,0,2-1.74c6.62-7.42,15.83-9.78,24.73-9.32,10.09.53,19.71,4.43,25.91,13.65,1.51,2.24,3.51,3.07,5.56.33,14.63-19.54,40-17.31,54.33-1,2.6,3,4.19,3,6.49.24,8.27-9.93,18.53-14.77,31.65-12.57,9,1.52,16.73,5.29,22,12.87,2.75,4,3.83,3.29,6.69-.15,8-9.63,17.93-15.06,31.17-12.84a37,37,0,0,1,22,12.35c2.38,2.65,4.21,3.39,6.59.16a28,28,0,0,1,3.76-3.79c6.38-5.91,14.06-9.69,22.6-9.43,9.88.3,19.2,3.42,25.7,11.73,2.87,3.67,5.56,5.25,8.81.5a15.63,15.63,0,0,1,2.25-2.28c10.64-10,25.11-12.59,39.11-6.18C711.76,478.28,714.08,483.47,719.62,484.9ZM345.51,646.82a3.92,3.92,0,0,0,.87-.3c17-11,34.05-21.87,50.93-33,3.36-2.22,6.58-5.48,6.16-9.9-1-9.92-4.81-18.75-12.82-25-3.8-3-8.51-3.9-13.1-.78-3.18,2.15-6.41,4.24-9.66,6.28-12.25,7.72-24.56,15.32-36.74,23.15-2.78,1.79-3.94,3.76.12,6.31a29.41,29.41,0,0,1,11.08,12.92C345.31,633,342,640.25,345.51,646.82Zm355.16-74.36c-.7.29-1.36.52-2,.84-9,4.75-15.32,11.75-16.83,22-.82,5.6-.32,11.11,5.58,14.7,6.84,4.17,13.26,9,20,13.36q12.28,8,24.79,15.57c2.82,1.73,4.82,2.26,5.3-2.64A34.11,34.11,0,0,1,752,611.36c4-2.85,4.45-4.07,0-6.81-15.55-9.64-31.26-19-46.18-29.67A31.53,31.53,0,0,0,700.67,572.46Zm-160.54-294c-8-.28-15.78,1.25-23.66,2-19.14,1.77-36.81,8.43-53.56,16.83a150,150,0,0,0-58.5,51.59,143.52,143.52,0,0,0-13.31,24.88c-1.4,3.39-.45,5.81,2.16,6.91,3.34,1.41,2.64-2.4,3.4-3.94,3.2-6.51,5.81-13.33,9.84-19.41,7.92-11.93,16.69-23.06,27.36-32.78,9.41-8.6,20-15.27,31-21.4,14.14-7.9,29.73-11.75,45.47-15a152.63,152.63,0,0,1,33-3c13.43.23,26.74,2.68,39.8,6.2,27.82,7.51,51.81,21.43,71.21,42.78,11.67,12.85,22,26.69,27.68,43.43.72,2.14,2.22,3.24,4.42,2.28,2-.85,2.46-2.22,1.63-4.56-5.67-16.11-14.94-29.95-26.37-42.44-16-17.44-34.49-31.11-56.44-40.44A170.94,170.94,0,0,0,540.13,278.48ZM401.43,408.42c-1.47-8.89-3.58-17.23-11.65-21.77-12.43-7-25.22-13.34-37.78-20.1-4.16-2.24-5-.73-5.19,3.37a26.85,26.85,0,0,1-6.38,16.77c-3.8,4.3-1.91,5.36,1.7,7.22q21.62,11.16,43.13,22.54C391.06,419.51,401.35,414.16,401.43,408.42ZM711.24,726.35Q557.71,832.1,395.12,740.63c3,5.69,18.54,15.38,37,23.68,60.38,27.2,122.66,31.36,186,13.33C652.83,767.75,684.93,751.69,711.24,726.35Zm26.18-336.87-2.35-2.59c-4.16-4.63-7.34-9.59-7.43-16.2-.07-4.89-2.47-6.13-6.57-3.22-9.45,6.72-20,11.46-30.2,16.7-7.13,3.65-13.31,8-16,16.07-.67,2.08-.77,3.5.62,5.29,3.86,5,9.82,7,14.54,10.74.81.64,2.36.42,3.51-.39,12.86-9.08,27.27-15.41,40.95-23.05A5.75,5.75,0,0,0,737.42,389.48ZM661.11,661.83c-1.48-1-2.67.31-3.36.85-9.7,7.64-20.75,12.74-31.76,18.14-21.61,10.59-44.64,15.19-68.24,16.7a225.8,225.8,0,0,1-55.51-2.93c-28.75-5.3-55-16.21-78.42-33.83-.84-.63-1.66-2.54-2.87-.74-.8,1.19.49,1.83,1.39,2.77,9.27,9.69,21.11,15.16,32.77,21.23,26.67,13.86,55.4,17.71,84.79,19.11,7.31.35,14.48-1,21.72-1.34a176.28,176.28,0,0,0,27.07-3.44c19.37-4.05,36.85-12.62,54.09-21.87C649.8,672.71,656.23,668.28,661.11,661.83Z"/><path class="cls-1" d="M5.6,812.17c9.47-5.24,19.91-7.2,30.43-8.34,5-.54,10.17.54,15.21,1.29,1.55.23,3.41,1.31,4.33,0,1.1-1.61-.43-3.44-1.46-4.73-4.84-6.05-9.6-12.17-16.71-15.92-1.36-.72-3.93-1.08-3.75-3.25.19-2.39,2.65-3.11,4.5-4,13.17-6.3,25.71-4.07,37.23,3.83,16,11,32,22,47.1,34.15,2.54,2,3.71,1.43,5.26-1.22,3.71-6.32,7-12.94,12.39-18.18a65.72,65.72,0,0,1,13.1-9.6c3.9-2.24,8,0,11.72.94,29.33,7.6,58.58,15.42,88.42,20.92,16.09,3,32,7.21,48.05,10.17,11.7,2.16,23.64,2.94,35.42,4.73,13.39,2,27,1.84,40.36,4.06a78.42,78.42,0,0,0,13.13,1c10.14-.08,20.23.81,30.27,1.48,24.2,1.6,48.43,2.27,72.65,3.3,28.48,1.21,56.92.62,85.37.47,8.07,0,16.27-.75,24.4-.68,16.84.16,33.6-1.38,50.38-2.38,13.59-.8,27.17-1.49,40.76-2.15,13.13-.63,26.16-3.26,39.29-3.88,13.39-.63,26.54-2.94,39.73-4.71,12.75-1.71,25.27-5.08,37.89-7.75,21.13-4.47,42.3-8.77,63.38-13.52a334.88,334.88,0,0,0,33.8-9c24.37-8.22,31.23,1.59,42.16,18.37,5.83,8.95,5.33,9.48,14,3.44,14-9.79,27.65-20.23,42-29.58,14.92-9.73,28-11.29,43.16-.83-3.73,4.5-9.87,5.83-13.48,10.45s-7.91,8.39-9.79,14c1.41.95,2.42.18,3.6,0a74,74,0,0,1,42.11,4.87c2.36,1,3.86,2,3.53,4.89-.31,2.64.43,5.05-2.87,7-17.37,10.39-35.25,20-51.59,32q-19.66,14.5-38.47,30.13c-13.42,11.19-26.89,22.4-42.45,30.7S908,925.42,891,923a24.82,24.82,0,0,1-15.06-8.24A23.27,23.27,0,0,1,870.09,900c-.14-8.24-.09-16.5,0-24.75,0-2.91-.53-3.39-3.7-2.55-20,5.29-40,10.77-60.28,15.06-16.22,3.43-32.8,5.11-49.18,7.84-22.06,3.68-44.33,5.91-66.3,10.32-10.28,2.06-20.9,2.58-31.39,3.5-17.71,1.56-35.45,2.88-53.17,4.3-.36,0-.72,0-1.07,0-33.79,1.4-67.61,1.45-101.41.87-14.64-.25-29.32-1.28-44-2-13.89-.71-27.85-1.4-41.6-3.3-15.4-2.13-30.81-4.19-46.15-6.86-11.69-2-23.55-3.54-35.4-4.9-15.78-1.82-31.43-4.8-47.12-7.38-16.68-2.75-33.12-6.69-49.54-10.66-7.1-1.72-14.12-3.77-21.14-5.78-5.71-1.64-6.37-1.1-6.61,4.61-.38,9.18,1.07,18.41-1,27.56a17.61,17.61,0,0,1-7.75,11.49c-5.61,3.39-11.39,7.21-18.74,6.09a51.35,51.35,0,0,0-10.15-.06c-16.65.77-30.68-6.43-43.52-15.6C98.63,884.76,69.64,857.23,35.24,837c-6.62-3.89-13.18-7.92-20.05-11.32-3.72-1.83-5.17-6.43-9.59-7.08ZM634.15,905c5.3.09,10.57-.2,15.85-.6,13.68-1,27.26-2.88,40.82-4.67,20.08-2.65,40-6.39,60.06-9.38,18.82-2.81,37.67-5.42,56.25-9.67,30.72-7,61.08-15.38,91.19-24.63,18.83-5.79,37.67-11.49,57.32-13.88,3.5-.43,2.3-2.59,1.59-4.25-5.34-12.51-10.25-25.27-19-36-3.36-4.12-6.79-7.4-13.22-7.08-10.28.51-20,3-29.87,5.42-25.23,6.17-50.64,11.4-76.12,16.41-23.68,4.65-47.33,9-71.33,11.75q-24.33,2.76-48.71,5c-12.44,1.15-24.89,2.31-37.34,3.22-17.91,1.3-35.79,3.55-53.7,4.18-16.49.57-33,1.91-49.53,1.37-23.81-.79-47.62.59-71.46-.9-19-1.2-37.95-2.88-56.92-4.39-12.81-1-25.6-2.32-38.41-3.13-16.88-1.07-33.66-3-50.5-4.22-15.28-1.09-30.31-3.76-45.37-5.92-20-2.86-39.75-7.39-59.49-11.71-24-5.25-47.81-11.2-71.79-16.42-5.37-1.17-11.29-2.34-16.33,2a37.1,37.1,0,0,0-5,6.1c-8.14,10.84-14.51,22.54-18,35.75-.63,2.34-.36,2.49,1.76,2.83,6.7,1.08,13.41,2.24,20,3.74,24.29,5.52,47.7,14.11,71.76,20.49,30.32,8,60.48,16.57,91.69,20.75,15,2,29.92,5.65,45,7.12,16.42,1.6,32.6,4.7,48.86,7.06,19.78,2.86,39.63,3.2,59.43,4.86,10.23.85,20.58.76,30.8.82,32.37.2,64.76,1.38,97.14-.61C605.74,905.55,620,906.69,634.15,905ZM48.51,781.35c.34,2.51,1.77,4.13,3.23,5.91,5.2,6.32,10.31,12.72,10.6,21.52.1,3.11-.91,4.85-4.25,4.45-4.35-.51-8.81-.64-13-1.74a39.81,39.81,0,0,0-26.68,1.86c-5.55,2.41-5.38,3.18-.48,6.5,9.15,6.19,19.79,9.64,28.92,15.88,28.79,19.66,54.67,43.1,82.76,63.68,15.37,11.27,31.53,19.34,51.09,18.65,2.45-.08,5.48.43,6.53-2.17s-1-4.93-2.91-6.89c-8.63-8.91-20-10.93-31.51-12.27-12.25-1.44-24-3.34-34-11.76-8.29-7-12.1-18.63-7.41-28.23,4.3-8.8,7.73-17.9,11.19-27,1.11-2.9.65-4.75-1.63-6.41C105.41,812,90.81,799.4,74.28,789.55,66.54,784.94,58.59,780.08,48.51,781.35ZM902.63,918.16c15-1.22,29.22-4.78,42-13.15,16.3-10.67,30.78-23.71,46.19-35.53,13.06-10,25.84-20.41,39.07-30.21,10.29-7.63,22.14-12.64,33.49-18.46,1.81-.93,3.68-1.89,3.39-4.17a5.06,5.06,0,0,0-3.75-4.13c-6.67-1-13.12-3.52-20.19-1.81a113.42,113.42,0,0,1-18.21,2.46c-5.39.39-7.08-2-5.47-7.15a43,43,0,0,1,4.88-10.36,83.38,83.38,0,0,1,8.34-10.85c.63-.7,2.17-2.08.73-3.71-1.13-1.28-2.06-.33-3.23-.2-9.16,1-17.06,5.26-24.52,10.07-15.42,10-29.72,21.53-44.51,32.39-2.85,2.09-2.09,3.86-1.26,6.24a205.12,205.12,0,0,0,11.15,27.07,20,20,0,0,1,2,8.56c.41,12-6.94,19-16.15,24.46-10.38,6.18-22.41,6.09-33.88,8-8.9,1.5-17.38,3.87-24.09,10.42-2.42,2.36-5.53,5.41-4.43,8.3C895.24,919.06,899.63,918,902.63,918.16Zm-697-29.42c0-4.62-.44-8.42.1-12.09.83-5.6-2.5-7.71-6.8-8.76-11.51-2.81-22.64-6.83-33.94-10.3-11.69-3.59-23.43-6.7-35.64-8.07-8.28-.93-12.64,4.19-13.42,13.31-1,12.22,5.79,20.42,18.21,23.09,11.07,2.37,22.3,4,33.34,6.55,11.74,2.69,21.93,7.91,27.33,19.68,1.32,2.87,5.45,2.59,7.53-.57a18.92,18.92,0,0,0,2.3-5.24C206.43,900.22,205.25,894,205.67,888.74Zm670.8-3c-.28,8.29-.29,16.55,2.46,24.54a6,6,0,0,0,4.79,4.34c1.85.23,2.62-1.82,3.6-3.34,6.15-9.46,14.47-16.32,25.64-18.71,10.55-2.26,21.36-3.36,31.92-5.61,12.28-2.61,18.42-6.84,21.37-20.27C967.51,861,963,851,959,850.75a80.9,80.9,0,0,0-22.78,1.52c-17.54,3.84-34.22,10.51-51.48,15.24-8.31,2.28-8.24,2.55-8.24,11.26Z"/><path class="cls-1" d="M436.25,284.71c-6.85,1.69-9.38-3.85-12.48-7.92-4.41-5.77-11.64-6.31-17.18-9.93a1.19,1.19,0,0,0-1.73.71c-.21,1.7-.66,3.42.8,5,5.57,6.07,11.12,12.16,15.24,19.4.93,1.64,3.21,2.92,1.11,4.89-2.43,2.29-3.63-.67-4.45-1.87a111.76,111.76,0,0,0-20.5-23c-2.47-2-.29-3.72,1.17-4.55,3.49-2,5.62-5.4,8.7-7.72s1.55-5,.23-6.82c-1.85-2.6-3.85,0-5.19,1.15-3.74,3.22-6.84,7.16-11.05,9.88-1,.66-1.68,1.86-3.14,1.72s-3.07.5-3.83-1.11.94-2.15,1.74-2.85c4.37-3.8,8.55-8,13.39-11.06,4.1-2.64,4.38-4.5.78-7.49-1-.85-2.34-1.66-2.59-3.76,2.88-.14,6-2.36,7.48,2.46.78,2.53,2.23,1.17,3.65.31,4.64-2.79,7.88-7.09,11.74-10.71,2.25-2.1,4.47-4,8.17-2.74-2.53,5.94-8.44,8.47-12.09,13-1.54,1.94-3.58,3.5-5,5.51-.9,1.29-2.28,3.07-.37,4.72,1.55,1.33,3.15,1,4.86,0a29.78,29.78,0,0,0,9.34-9.15c3.5-5.07,4.06-4.82,7.45.07,4.48,6.46,8.83,12.95,12.71,19.79a93.08,93.08,0,0,1,4.2,8.95c.47,1.06,2.18,2.31.5,3.75-1.38,1.18-3.4,1.94-4.65,1.09s-3.6-1.51-3.3-3.9c1.3-10.37-6.78-15.82-12-22.78a3.27,3.27,0,0,0-4.3-1c-2.41,1.38-3.15,4.14-3.81,6.63-.51,1.9,1.77,2.33,2.78,2.5,3.57.6,2.64,2.59,1.79,4.63-.6,1.45-1.35,2.84-2.07,4.23a2.45,2.45,0,0,0,1.48,3.58c1.22.45,3.18.59,3.36-1.77.2-2.52,2.06-3.56,4.07-4.35,1.28-.51,2.51-2.41,4-.59,1.24,1.49-.35,2.75-1,3.73-.92,1.41-2.37,3.13-3.86,3.42-5.74,1.14-3.6,4.17-1.54,6.54,1.91,2.18,4.59,3.7,6.92,5.51Zm-15.53-22.53c-.39-1.49,1.07-4.46-2.39-3.87-2.66.45-6.34,1.19-6.46,4.24-.13,3.42,4.06,3.24,6.34,3.82C420.89,267.05,420.65,264.2,420.72,262.18Z"/><path class="cls-1" d="M733.12,294.69a52.33,52.33,0,0,0-7.58,24.92c-.18,4.42,1.49,8.23,2.71,12.22.33,1.06,1,2.27.15,2.91-1.4,1.09-2.06-.68-3-1.34-2.54-1.84-3.78-4.66-4.92-7.38-1-2.32-2.73-3.33-4.55-2.41-7.4,3.75-15.64,5.6-22.69,10.12-3.88,2.48-7.07,3.52-9.56-2.23a32.27,32.27,0,0,0-9.28-11.75c-2.81-2.33-2.37-4.48,1.15-5.54,5.55-1.67,11.13-4.85,13.53-9.28,2.77-5.13,6.44-8.27,10.79-11.38,1.67-1.19,2.24-2.35-.52-3.58-2-.9-5.24-1.23-5.24-5.76C705.65,293.2,718.89,294,733.12,294.69Zm-40,31.7c-3-2.43-5.7-4.81-7.09-8.42-.65-1.72-2-2.52-3.79-1.69a2.63,2.63,0,0,0-1.38,3.62c2.23,3.73,4.28,8.1,8.45,9.72,3.64,1.4,6.06-2.48,8.23-4.6s3.46-3.71,6.13-.85c.46.49,1.85,1.91,3.11.45,1-1.11,1.11-2.45.06-3.33-4.44-3.75-6.14-9.32-9.41-13.84-.8-1.09-1.3-3-3-2a3.76,3.76,0,0,0-1.78,4.08,10.17,10.17,0,0,0,3.06,4.83c1.26,1.12,3,2.24,1.72,4.43-2.69-1.09-3.2-4.08-5.14-5.9a3.52,3.52,0,0,0-5.53.25c-1.21,1.42.28,2.83,1.78,4C691.27,319.38,694.87,321.41,693.07,326.39Zm13-32c-.88-.28-1.34-.93-1.66-.11-.55,1.39.26,2.29,1.16,3.23,4.84,5.09,8.11,11.27,11.95,17.06.69,1-.31,4,2.31,3.07,2-.7,1.78-2.83,1.15-4.6a42.62,42.62,0,0,0-11.61-17.17A6.28,6.28,0,0,0,706.08,294.42Zm9.93,25.5c-4.22-7-9.43-12.75-12.43-19.94-.68-1.64-2.57-3.36-4.77-1.51-1.84,1.56-.71,2.92.38,4.55,2.59,3.88,6.14,6.94,7.93,11.62C708.1,317.22,710.73,321.05,716,319.92Zm7-12.76c2.95-2.2,2.64-4.92,1.44-7.52a5.3,5.3,0,0,0-6.28-2.61c-2.89.92-.1,3.29.2,4.85C718.78,304.31,721.2,305.6,723,307.16Z"/><path class="cls-1" d="M685.4,267.32c-5.66,1.45-8.73-2.23-12.25-4.44-5.31-3.34-9.72-1.42-10.59,4.84a2.76,2.76,0,0,0,1.56,3.09c1.08.55,2.27.87,3.4,1.32,2.43,1,5.13,1.7,5.63,4.87.13.85.26,2-.68,2.39-2.87,1.23-4.4-1.6-6.6-2.43a10.52,10.52,0,0,1-3-2c-2.78-2.43-4.77-2.84-7.16.93-2.2,3.48-4.07,6.14.42,9.08,3.21,2.1,6.36,4.32,9.35,6.73,1.73,1.4,3.55,2.86,3.79,5.53.08.91.35,1.6-.43,2.21s-1.54.21-2.32-.36Q647.75,285.64,629,272.26a6.12,6.12,0,0,1-1.86-1.9c-.79-1.53-3.23-2.87-1.16-5s3.15.72,4.34,1.45c4.28,2.67,8.27,5.8,12.44,8.65,5.38,3.66,6.69,3.39,10.42-3.3,2.56-4.58-2.43-4.36-4.46-5.83-2.79-2-6.5-3.27-5.12-7.95,4.51.31,7.27,3.42,10.45,5.74,4.51,3.31,5.56-.81,7.38-3.31,2.05-2.81,1.22-4.42-1.72-6.26-5.49-3.44-11.55-3.55-17.65-4.08,1.19-2.95,4.25-1.91,6.31-2.75,4.26-1.75,8.31-3.5,11.71-6.75,1.7-1.64,4.67-3.64,6.35-1.15,1.47,2.17-.28,5-2.82,6.57-1.79,1.08-5.12,1.61-2.19,4.68,1.91,2,4,4.21,6.9.82a68.58,68.58,0,0,0,8-11c.79-1.44.57-3.87,2.67-3.83a4.13,4.13,0,0,1,3.37,2.89c.75,2.07.68,3.72-1,5.29-2.32,2.21-4.52,4.54-6.84,6.76-2.75,2.64-2.68,4.82.82,6.71C679.07,260.74,682.57,263,685.4,267.32Z"/><path class="cls-1" d="M397.29,327.61c.31-5.63-1.9-7.52-6.94-7.55-4.36,0-7.09-4.1-10.08-6.77a6,6,0,0,0-3.25-1.64c-3.57-.74-5.22,2.22-7.76,3.56-3.54,1.87-2.49,3.89-2.24,6.8.35,4.15-2,7.9-3.37,11.87-2.63-1.5-1.71-3.68-1.74-5.5-.14-6.34-3.23-10.73-9.35-11.18-4.81-.36-7.3-3.87-10.83-5.93a2.37,2.37,0,0,1-1-3.25c.57-1,1.95-.69,3-.52a8.59,8.59,0,0,1,1.88.92c6.15,2.73,9.64.27,9.93-6.69.13-3.11-1.66-3.07-3.7-2.87a4.06,4.06,0,0,1-4.31-2.41,2.56,2.56,0,0,1,.71-2.27c1.35-1.25,2.81-.55,4.37,0,2.66.89,5.84,3,7.77-.93,1.66-3.4,2.74-7-1.45-9.76-.81-.54-2.46-1.27-1.65-2.81s2.54-1.23,3.85-.93c4.08.9,6,5.75,4.07,10.11-2.92,6.67-6.41,13.08-8.82,20-.73,2.12-1.48,4.38.92,4.71,2.63.36,4.61,3.73,8.21.87,7.44-5.92,8.63-15.29,13.59-22.54,3.13-4.58,4.63-5.55,8.66-1.71s10.08,6,12.59,11.65c1.24,2.83,2.89.87,4.31.28,2.31-1,5.58-2.42,6.56.1,1.06,2.73-2.73,3.18-4.77,4.17-4.72,2.31-8.11.74-11.15-3.32a48.93,48.93,0,0,0-7.52-7.57c-2.81-2.4-5.6-3.09-7.29,1.44a37.14,37.14,0,0,1-2.55,5.18c-1,1.73-1.62,3.55.93,4.08,1.73.36,4.48,1.48,4.52-2.34,0-1.26.08-3.31,2.19-3.08,1.63.18,3.59.22,4.12,2.58s-.94,3.18-2.56,3.91c-1.31.59-3.24,1.22-2.41,2.72.73,1.31,2.69,2.21,4.29,2.71,1.85.58,1.4-1.42,2-2.34.87-1.38.9-4,3.19-3.69s2.05,2.58,1.92,4.3.88,2.89,1.69,4.28C399.8,319.69,400.43,323.33,397.29,327.61Z"/><path class="cls-1" d="M575.05,229.15a17.88,17.88,0,0,1,10.65-10.34c5.33-1.9,5.92-5.68,6.16-10,.39-7.3,7-11.34,13.4-8.06.75.38,1.63,1,1.42,2a2.24,2.24,0,0,1-2.2,1.94c-2.27,0-4.56.54-8.53-1.41,5.73,7.47,3.7,12.41-1.6,16.71-.72.59-2.13,1.73-.89,2.5,1.84,1.14,3.76,4,5.61,2.93,2-1.22,5.71-.82,6-5,.12-1.64.64-5.34,4.29-4.94a4.21,4.21,0,0,1,3.86,3.76c.61,3.26-.87,5.73-3.13,7.85-.32.3-1.14,0-1.52.3-1.81,1.35-6.35,1.08-5.12,3.84s5.06,1.21,8,.5c6.28-1.5,6.39-7.63,9.32-11.58,2.09-2.81,4.47-6,1.71-10-.85-1.21.4-1.85,1.41-2.11,3.08-.79,6,.54,8.78,1.3,1.69.46.49,2.14-.17,3.44-2.69,5.23-6.09,10.08-7.82,15.85-.84,2.81-.45,3.13,2.1,2.53,2.89-.69,7.24-3.23,8.31,0s-3.64,5.28-6.6,6.93-5.51,1.45-5.71-2.92a3.82,3.82,0,0,0-2.87-3.45c-1.56-.45-2.64,1.19-3.18,2.36-2.27,4.88-5.4,5.55-10.18,3.28-3.73-1.77-8-2.46-11.94-3.74-2.21-.71-6.94.78-4-4.71.82-1.53-1.21-2.87-2.58-3.56-2-1-4.48-.2-5.25,1.27C581,230.05,578.31,229.35,575.05,229.15Z"/><path class="cls-1" d="M527.1,229c-.57-2.12-1.12-3.92-1.51-5.76-.3-1.43.55-3.13-1.82-3.81s-3,1.3-4.34,2.07-1.61,2.61-2.52,3.88c-1.12,1.55-2.49,3.87-4.54,2.55-1.63-1-1.27-4-.36-5.4,1.27-2,2.59-4,3.72-6.19.83-1.59,2.12-2.64,4.22-.78s2.58.74,2.58-1.79c0-5-1.74-9.72-1.31-14.74.36-4.23,6.8-8.65,10.66-7,1.7.72,1.38,2.71.48,2.77-7.87.55-5.3,5.69-4.67,10a9.34,9.34,0,0,0,.6,2.82c2-3.68,5.71-5.54,8.1-8.69,3.92-5.19,16.92-9.17,22.61-6.9,2,.81,1,2.08.85,3.38-.67,6.28-3.77,12.15-2.49,18.82.61,3.13-8.36,12.77-11.83,13-4.31.32-8.67,0-13-.09-1.08,0-1.77-.57-1.51-1.62.35-1.46.49-3.27,2.44-3.6s4.19-1,5.63-.77c10,1.79,10.23-7,13.75-12.14.78-1.14.95-2.56-.26-3.33-1.74-1.11-3.72-2.2-5.84-1.84-1.59.28-2.07,1.81-1.9,3.37.19,1.72-.57,3.56.69,5.14,3.07,3.86.23,4-2.62,4.15-2.6.14-5.3-.54-7.76,1-1.13.73-2.41,1.74-3.65,0-1.35-1.89.4-3.62,1.22-4,5.37-2.58,8.32-7.21,11.1-12,.6-1.06,1.11-1,2.07-.54.75.35,2,.75,2.48.39,1.64-1.29,4.88-.32,5.06-3.79.12-2.25-1.42-2.75-2.78-3.25-2.68-1-4.34.29-5.27,2.87-.41,1.12-1,2.43-2.39,2.49-5.59.24-8.28,5.08-11.92,8-4,3.23-4.15,8.47-2.58,13.49C529.29,223.77,531.05,226.63,527.1,229Z"/><path class="cls-1" d="M476,228.53c-1.89.76-1.81,2-1.49,3.86,1.89,11-6.08,30.86-17.51,37.81,2.93-5.13,5.65-9.46,8-14a46.6,46.6,0,0,0,5-23.89c-.15-2.83-1.32-3.54-3.59-2.77-4.27,1.44-8.43,3.21-12.69,4.69-1.72.59-4.09,1.45-5-.78s1.53-2.79,3-3.59a52.88,52.88,0,0,1,13.34-4.45c3.22-.73,3.92-2.32,3.78-5.19-.22-4.3-2-8.11-3.65-11.91-.61-1.38-2.63-2.56-1.31-4.07.67-.76,2.76-.73,4-.39,1.58.43,3.14,1.1,3.12,3.55,0,3.31.67,6.61,1,9.93.23,2.58.7,4.16,3.93,2.57,3.89-1.92,8-3.32,12.06-5,.8-.33,1.52-1,2.34-1.16,2.46-.36,6.06-1.85,7,.82,1,3-3,2.38-4.78,3.4-5,2.85-10.86,3.95-15.22,8.08-.88.84-.86,1.83-1.49,2.61Z"/><path class="cls-1" d="M590.13,255.54c1.68-1.64,3.91-1.45,5.88-2s4.33-1.25,4.22-3.76-2.54-3.42-4.45-4c-4.81-1.43-9.76-2.42-14.65-3.6-2.35-.57-4.78-.93-6.57-2.85-1.1-1.18-2.71-2.42-1.62-4,.79-1.16,2.52-.64,3.94-.14a139.18,139.18,0,0,0,14,4c10.76,2.53,21.37,5.66,32.12,8.22,2.56.61,4.9,1,4,4-.78,2.69-2.92,1-4.71.71A93,93,0,0,1,606,248.72c-3-1-3.27,1-3.46,3.5-.52,6.79-4.06,9.54-8.74,7.44C591.73,258.75,591.44,256.75,590.13,255.54Z"/><path class="cls-1" d="M534.17,247.44c1.69-2.51,5.73,1.25,6.58-3.7,1.22-7.1,1.77-7.18-5.5-6.86a77.8,77.8,0,0,0-11.93,1.65,16.49,16.49,0,0,1-8.78-.53c-1.62-.54-1.8-1.32-1.8-2.65,0-1.93,1.41-1.74,2.61-1.72,8.64.12,17.12-2,25.56-2.42,7.28-.34,14.45-1,21.66-1.8,2-.24,4.36.12,4.68,3,.35,3.14-2.76,2.83-4,3a78.84,78.84,0,0,1-13.31.28c-3.77-.19-4.62,1.37-4.38,4.84a26,26,0,0,1-.95,8.21c-.48,1.83-2.25,4-3.94,3.82C537.67,252.28,535.46,250.12,534.17,247.44Z"/><path class="cls-1" d="M475.89,228.66c4.29-1.28,6.45,2.08,8.88,4.37a103.88,103.88,0,0,0,15.86,12.6,19.1,19.1,0,0,0,11.57,3c-2.23,4.81-8.74,5.3-13.47,1.52-8.22-6.55-15.14-14.42-22.69-21.65Z"/><path class="cls-1" d="M366.86,339.54c-.5-.18-1.15-.21-1.43-.55-.52-.64-.09-1.26.38-1.83,1.8-2.13,3.66-4.23,5.33-6.46,1.41-1.88,3.47-3.63,1.81-6.48-1.21-2.07.43-3.25,1.71-4.44,2.44-2.27,4.83-4.22,5.74,1.19a9.91,9.91,0,0,0,1.2,3.41c1.22,2,.95,2.15-1.46,3.23-3.18,1.42-5.37,5-8.08,7.51C370.42,336.65,369.23,338.76,366.86,339.54Z"/><path class="cls-1" d="M363.61,309.43c-2.35-4.1,1.36-6.5,2.53-9.51,2.07-5.33,3.8-10.82,7.22-15.57,1.11-1.54,1.93-3.47,3.89-2.23,1.61,1-.31,2.49-.8,3.57-3.12,6.73-4.72,14.17-9.43,20.14C366,307.1,366,309.34,363.61,309.43Z"/><path class="cls-1" d="M559.5,226.49c-1.49-10.06.29-13.77,6.12-15.6,1.26-.4,2.21-1.06,3.19.24.87,1.14.57,2.18,0,3.42a11.32,11.32,0,0,1-3.2,4.11A18.66,18.66,0,0,0,559.5,226.49Z"/><path class="cls-1" d="M380.57,336.13c2.63-2.06,2.25-6.47,6-7.32,3-.69,5.93,1.39,10.21-.28C391.63,333.79,386.11,334.87,380.57,336.13Z"/><path class="cls-1" d="M618.31,205.86c-.7,1.68-1.24,3.12-1.88,4.52-1.08,2.37-2.69,4.28-5.51,3.78-.92-.16-3.17-.82-2.7-1.87,1.1-2.46,2.17-5.37,5.06-6.34C614.71,205.46,616.44,205.86,618.31,205.86Z"/><path class="cls-1" d="M417.66,282.69c-1.21,0-1.31-1-1.15-1.84a4.42,4.42,0,0,1,4.15-3.89c1.23-.19,1.89.47,1.76,1.24C422,280.75,419.89,281.81,417.66,282.69Z"/><path class="cls-1" d="M365,649.75c-.63,4.75-5.1,7.55-4.32,12.51.66,4.17,3.48,8.67,6.42,8.63s6.54-4.41,6.46-8.45c-.05-3,.39-5.88-.59-8.92-1.06-3.3,1-5.9,3.88-7.61,4-2.42,8.38-4.48,12.69-1.07,3.55,2.8,6.83,6.06,5.56,11.5-.42,1.79-.52,4,1.86,5,7.79,3.42,12.17,10.64,18,16.22.38.37.73.78,1.13,1.13,6.14,5.35,6,5.48.7,11.83-4,4.83-7.46,10.11-11.06,15.26-2.95,4.22-2.1,7.66,2.53,11,3.92,2.79,6.82,2.27,9.86-2.11,3.78-5.45,7.52-10.93,11-16.58a19.58,19.58,0,0,1,4.18-4.71c1.18-1,2.66-2.71,4.54-1.34,2.33,1.7.81,4-.29,5.09-5,5.25-8.13,11.83-12.6,17.45-2.44,3.06-4.65,6.13-8.35,7.77-4.68,2.08-8.76,1.21-12.54-2.15-4.17-3.69-7.63-7.51-4.4-13.55,3.45-6.47,7.1-12.81,11.88-18.44,4-4.75,3.33-5.23-1.31-8.74-5-3.75-7.67-2-11.14,1.83-5.13,5.67-10.76,10.9-16.18,16.31-1.23,1.22-2.8,3.4-4.32,2s-1.21-3.93.56-5.72c5.48-5.52,11-11,16.39-16.59,1.8-1.84,5.47-3.35,4.55-6a26,26,0,0,0-6.47-9.35c-1.71-1.68-2.75,1.35-4,2.29s-2.75,2.92-4.32,1.49c-1.23-1.12.65-2.69,1.13-4.07.84-2.41,3.81-3.53,3.4-6.84-.46-3.81-2.27-5.93-5.87-6.18-4-.28-5.08,2.34-4.95,5.87.1,2.85.15,5.71,0,8.55-.37,6.18-6.61,12.29-12.33,12.24-5.46,0-11.8-7.17-12.12-13.61C354.22,655.87,358.38,650.91,365,649.75Z"/><path class="cls-1" d="M513.17,749.82c1-7.34,1.94-13.66,2.74-20,.68-5.39,3-8.14,9-7.61,6.37.57,12.82.21,19.23.09,2.72,0,4.87.46,6,3.7-1.57,1.07-3.37.55-5,.6-4.89.13-5.26,1.66-5.07,6.82.33,9.33-.33,18.7-.69,28.05-.08,2.28-2.07,1.39-3.29,1.45-1.53.08-2.36-.31-2.3-2.41.28-9.59.28-19.2.32-28.81,0-3.51-4-6.92-8.55-7.1-3.35-.13-3,3-3.49,4.93a262.64,262.64,0,0,0-6.1,28.55c-.22,1.47-.09,2.6-2.19,2.83-2.59.27-3.52-1.24-4.14-3.08-2.66-7.87-5.8-15.59-7.25-23.85-.24-1.32,0-3.78-2.13-3.64-1.59.11-1.29,2.18-1.51,3.57-1,6.36-2.08,12.69-3.13,19-.11.7,0,1.55-.34,2.06-.9,1.28-1.83,2.87-3.73,2.51-2.14-.39-1.4-2.35-1.22-3.47,1.46-8.77,3-17.53,4.79-26.23.37-1.78-.09-3.68.64-5.19s-.07-4.21,2.65-4.52c2.55-.3,4,1.3,4.72,3.44,1.49,4.25,2.8,8.57,4.27,12.84C509.06,739.25,509,744.73,513.17,749.82Z"/><path class="cls-1" d="M443,739.44c-5.92.37-10.39-2.53-14.92-5.06-2.39-1.34-2.75-3.07-1.37-6,4.72-9.89,9.86-19.53,15.13-29.13,1.45-2.64,2.62-2.34,4.88-1.61,14,4.47,18.61,11.08,13.76,23.67a50.93,50.93,0,0,1-8.56,14.2C449.5,738.43,446.51,740.05,443,739.44Zm13-25.56a8.68,8.68,0,0,0,0-2.65c-1.34-4-4.6-6.1-8.32-7.34-2.27-.76-3.59,1.58-4.11,3a83.74,83.74,0,0,1-9.83,18.41c-1.42,2.06-2.19,4.45.33,6.61,3.23,2.79,10.85,3.31,13.67.17C452.3,727,455.44,721,456,713.88Z"/><path class="cls-1" d="M659.63,716.38c-3.8-7.19-7.15-13.36-10.33-19.62-.79-1.56-3.16-3.54-1.06-5,2.3-1.62,4.53.28,5.57,2.47,4.63,9.73,9.07,19.55,13.6,29.33a2.65,2.65,0,0,1-.45,3.38c-1.54,1.5-3.11.7-4.26-.32-4.64-4.06-10.24-6.63-15.22-10.16-2.13-1.52-4.33-2.93-6.52-4.35a2.06,2.06,0,0,0-2.49-.11,1.92,1.92,0,0,0,0,2.84c4.4,5.3,7.26,11.5,10.23,17.62.55,1.13,3.6,1.9.65,3.91-2.72,1.86-4.82.68-5.62-1.53-2-5.46-5.1-10.34-7.38-15.63-2.07-4.79-3.74-9.79-6.13-14.42-1.86-3.61-.31-3.85,2.62-3.85,3.36,0,5.31,2.41,7.6,4.2C646,709.52,651.44,714.11,659.63,716.38Z"/><path class="cls-1" d="M721.31,657.23c-5.78-6-14-7.58-20.69-11.73-2-1.21-3.54-1.89-2.36-4.18,1.3-2.52,3.13-.61,4.48.06q15,7.33,29.81,14.92c1.2.61,2.84,1.62,2.45,3.13a3.73,3.73,0,0,1-3.86,3c-7.94-.47-15.94,1.11-23.83-.94-2.08-.54-4.79-.3-5.53,1.58-.38,1,1.57,3.12,3.94,4,5.87,2.19,11.41,5.27,17.12,7.92,1.52.71,3.16,1.4,2.64,3.36-.59,2.27-2.94,1.45-4,1.08a94.06,94.06,0,0,1-12.5-5.19,141.66,141.66,0,0,1-19.26-11.61c-.74-.54-1.84-.89-1.26-1.82a5.15,5.15,0,0,1,4.8-2.69c7.67.15,15.34.11,23,0C717.86,658.11,719.73,658.89,721.31,657.23Z"/><path class="cls-1" d="M670,682.42A14.11,14.11,0,0,1,687.5,669c10.23,2.27,21.46,15.14,19,27.41-1.48,7.26-8.2,10.18-15.25,9.71C680.64,705.45,670.11,693.22,670,682.42Zm6.42.18c0,8.71,5.06,15.76,13.11,18a9,9,0,0,0,9.62-2.58c2.55-2.75,3.4-5.73,1.92-9.46a24.84,24.84,0,0,0-11-12.85C682.78,671.58,676.45,674.94,676.41,682.6Z"/><path class="cls-1" d="M473.85,710.73c4.65,1.09,10.39,1.9,15.46,4.82,1.07.62,3.5.41,2.25,3.06-1,2-1.95,3.17-4.41,2.23-3.09-1.17-6.48-1.7-9.38-3.21-2.75-1.43-4.78-1.6-5.56,1.56-.71,2.87-3.63,6.52,1.3,8.53a58.24,58.24,0,0,0,9.4,3c2.5.55,3.51,1.87,2.93,4.08-.66,2.55-3,1.49-4.45,1.16a48.73,48.73,0,0,1-9.37-3.08c-2.33-1.07-3.23-.78-4.4,1.56-3.62,7.24-2.73,9.76,4.87,12.15,2.48.79,5,1.49,7.47,2.24,2.2.65,3.67,2,2.31,4.25-.94,1.58-2.12,2.84-4.74,1.45-4.9-2.58-10.54-3.49-15.5-6.18-2.54-1.38-3.31-2.84-2.44-5.47,3.23-9.74,6.87-19.35,9.17-29.36C469.34,711.06,470.65,710.37,473.85,710.73Z"/><path class="cls-1" d="M566.61,720.2c4.19-.84,6.82,2,8.69,5.52.75,1.42,3.19,3.41.66,4.92-1.68,1-3.48.09-4.6-2.18-1.38-2.81-3.8-4.6-7.34-4-2.75.48-5.4,1.54-6.18,4.24-.86,3,1,5.45,3.4,7.18,1.74,1.27,3.85,1.44,6,1.47,10.72.15,16.24,8,12.46,17.85-2.09,5.47-7.66,5.71-12.27,6.54s-8-2-10.59-5.63a13.12,13.12,0,0,1-1.36-2.82c-.48-1.23-2-2.6-.56-3.78,1.66-1.34,2.91.23,4,1.39,3.44,3.7,6.88,6.93,12.67,4.6,3.28-1.33,5.06-3.23,4.18-6.74-.8-3.16-2.79-5.14-6.39-5.06-3.85.09-7.62.38-10.89-2.73-3.91-3.73-6.3-9.58-4.88-13.91C555,722.94,559.93,720.22,566.61,720.2Z"/><path class="cls-1" d="M633.79,734c.64,7.56-1.9,11.1-9.78,13.47-5.87,1.77-10.9-.44-13.72-6.46-3.9-8.34-6.22-17.34-10.59-25.5-.59-1.1-.79-2.69.22-3.47,1.37-1.06,2.7,0,3.61,1.11,3.82,4.88,5.34,10.84,7.62,16.44,1,2.41,1.54,5,2.5,7.4,1.81,4.56,6,6.71,10.09,5.31,5.31-1.83,6.55-4.8,4.84-10.69-2.24-7.72-5.83-14.88-8.9-22.25-.61-1.47-2.41-3,.4-4.26,2-.87,3-.15,4,1.66C628.86,715.31,632.61,724.2,633.79,734Z"/><path class="cls-1" d="M658.6,684.92c1.33.32,3.06.56,3.94,2.38,4.8,9.9,13.05,17.67,17.2,28,.57,1.4,3.39,2.4,1,4.31-2.24,1.74-3.76-.07-4.82-1.64q-6-8.88-11.68-18c-2.5-4-5.82-7.44-7.63-11.87C655.84,686.3,655.65,684.92,658.6,684.92Z"/><path class="cls-1" d="M587.63,728.16c-.2,1.1.37,2.47-1.26,2.63a3.93,3.93,0,0,1-4-2,64.37,64.37,0,0,1-3.25-8.8,2.25,2.25,0,0,1,1.81-2.85c1.82-.39,4.11.42,4.27,2C585.53,722.42,586.78,725.28,587.63,728.16Z"/><path class="cls-1" d="M827,835q2.94,11.91,5.88,23.8a38.17,38.17,0,0,0,1,4.06c.66,1.77,2,4-.61,4.71s-4.56-.54-5.25-3.62c-1.54-6.77-3.75-13.41-5-20.23-2.06-11.52-1.83-11.6-13.1-8.45-2.09.59-3.81.87-4.59-1.71-1-3.16,1.77-2.79,3.32-3.17,11.65-2.85,23.33-5.56,35-8.35,3-.71,5,1.38,7.16,2.59a102.92,102.92,0,0,1,11.49,7.26c2.75,2,3.61.9,3.37-1.67-.57-6,2.76-11.15,3.43-16.89a3.43,3.43,0,0,1,4.18-3.15c2.48.66,2.09,2.43,1.36,4.64-1.78,5.45-2.77,11.15-4.64,16.57-2.14,6.18.62,11.23,3.1,16.32,1.09,2.22,2.39,4.56,0,5.89-2.57,1.45-4.68-.34-5.29-3.2-2-9.27-8-14.76-16.48-18.19-2-.82-3.66-2.69-5.48-4.06-2-1.5-3.88-3.09-6.2-.18-2.13,2.68-5.7,1.49-8.45,2C827.66,830.65,826.7,831.74,827,835Z"/><path class="cls-1" d="M719.18,872.44c-.07,4.43,1.35,7.75,1.23,11.36-.08,2.66-1.21,3.44-3.29,3.62-1.84.15-3-.38-3.35-2.73-.85-6.73-2-13.42-3.13-20.12-.66-4.11-1.31-8.23-2-12.34-.49-2.87.45-5.32,3.32-5.69,7.82-1,15.69-1.75,23.56-2.22,6.07-.37,8.44,4.33,10.06,9,1.48,4.22-.56,7.4-4.54,9.47-3.27,1.7-2.72,4.14-.6,6.39,2.8,3,5.87,5.71,8.59,8.77,1.3,1.46,3.41,3.57,1.71,5.39-1.42,1.52-4,.56-5.89-.56-4.42-2.57-6.43-7.39-10-10.77a14.26,14.26,0,0,0-10.3-4.32C720.09,867.6,718,868.68,719.18,872.44Zm-2.94-15.75c1.37,1.69-1.59,7.38,4.71,6.76,4.47-.45,8.91-1.31,13.35-2.11,3.78-.67,5.34-3.52,5-6.85-.45-3.93-3.81-5.62-7.18-4.64-3.72,1.07-7.34.81-11,.74C717.24,850.51,715.32,851.7,716.24,856.69Z"/><path class="cls-1" d="M349.9,884.89c-10.84,1.45-24.69-10.22-23.2-22.48,1-8,3.51-16.1,12.4-18.95s17.71-2.39,25,4.66a9.14,9.14,0,0,1,1.77,2c1.36,2.51,2.81,6,.43,7.64s-4.07-1.81-5.47-3.75c-3.25-4.51-11.31-7.27-16.62-5.57-7.37,2.36-10,6.16-10.22,13.9-.18,6.34.78,11.87,7.08,15.19,3.69,1.94,14.55,1.9,17.47-.67,1.73-1.52,2.93-3.79,2-6.17a4.5,4.5,0,0,0-5.14-2.89c-2.5.31-5.21,1.15-7.08-1.43a2,2,0,0,1,.34-2.88c2.41-1.72,4.88-1.22,7.48-.16a23.93,23.93,0,0,0,5.6,1.24c5.3.75,6.43,2.28,5.39,7.52C365.25,881.63,360.87,884.9,349.9,884.89Z"/><path class="cls-1" d="M574,868.16c-1.23,7.6,1.56,14.9.84,22.34-.22,2.21.57,5.18-3,4.94-3-.19-4.69-1.69-4.58-5.39.32-10.14.06-20.29.17-30.44,0-1.53-1.23-3.92,1.31-4.5s5.13-.65,6.61,2c4.67,8.47,12.41,14.68,17.06,23.17a6.75,6.75,0,0,0,4.09,3.44c2.18-3.07-.16-6-.23-9-.14-5.85-.2-11.7-.39-17.55-.1-3,2.07-2.1,3.62-2.3,1.74-.22,2.58.15,2.79,2.31,1.1,11.33-.47,22.74,1.23,34.09.62,4.15-3.28,3.48-5.72,2.83-4.09-1.09-5.51-5.17-7.89-8.1-4.52-5.56-8.79-11.32-13.21-17A2.18,2.18,0,0,0,574,868.16Z"/><path class="cls-1" d="M312.14,868.18c.57-5.21,1.53-9.82,1.45-14.42-.07-4.13,1.23-8,1.27-12,0-2.75,2.11-2.86,4.19-2.8,1.81.06,3.37.66,3,2.76-2.19,12.29-3.35,24.8-7.82,36.6-7-.23-8.19-6.41-10.74-10.83-3.39-5.87-6-12.17-8.85-18.35-.7-1.54-1.54-3.39-3.06-3-.87.21-1.51,2.49-1.44,4.24.3,6.71-2.55,13.07-2.18,19.84.18,3.51-2.8,3-5.06,3-3.82,0-2.5-3.13-2.2-4.69,1.66-8.71,3.58-17.37,5.68-26a14.49,14.49,0,0,0,.55-4.67c-.2-2.5.89-4.45,3-5,2.46-.68,4.34,1,5.24,3.28,3.39,8.83,8.14,17,12.18,25.51A18.73,18.73,0,0,0,312.14,868.18Z"/><path class="cls-1" d="M467.78,864.47c0,9.11,0,17.26,0,25.4,0,2.19-.1,3.63-3,3.67s-3.56-1.19-3.45-3.79c.49-11-1-22,1.12-32.88.27-1.38-1-3.46,1.38-4,2-.42,4-.27,5.19,1.72,4.89,8.27,11.78,15.17,16.26,23.71,1.36,2.58,3.33,4.41,5.71,6.53-1.43-9.29-.52-18.08-.68-26.85-.07-3.52,2.72-3,5-3.07,3.49-.1,1.57,1.84,1.47,3.38a68.65,68.65,0,0,0-.07,10.14c.63,7.83-1.52,15.49-1.15,23.29.05,1.15.35,2.65-1.61,2.73-2.3.08-4.66.4-6.2-2-4-6.13-8-12.26-12-18.37C473.66,871,471.84,867.53,467.78,864.47Z"/><path class="cls-1" d="M403.51,878.37c1.22-8,2.34-15.62,2.16-23.32-.07-2.81.38-5.12,3.49-5.3,3.6-.22,2.95,2.76,3,5,.12,8.46-1.62,16.72-2.77,25-.24,1.74-.32,3.5-.42,5.26s.59,4.51-1.86,5A5.48,5.48,0,0,1,401,887.2c-4.88-8.64-10-17.18-15-25.72-.73-1.24-.89-3.63-3-2.92-1.6.53-.75,2.52-.73,3.8a120.39,120.39,0,0,1-2,22c-.5,3.06-2.07,2.81-4,2.6-2.27-.25-2.71-1.7-2.37-3.83a253.22,253.22,0,0,0,3-30.86c.08-2-.88-4.8,1.71-5.61s4.9,1,6.27,3c4.53,6.82,8.86,13.77,13.17,20.73C399.62,873,400.06,876.39,403.51,878.37Z"/><path class="cls-1" d="M683.16,866.71c4.8.42,9.39-1.79,14.23-1.08,1.63.23,3.63-.57,3.68,2.4,0,2.42-1.06,2.58-3.09,3.1-4.75,1.2-9.49.84-14.24.92-2.32,0-5.5.4-5.91,2.24-.69,3.09-1.36,6.69.56,9.79.86,1.38,2,1.5,3.93,1.21,6.44-.93,13-1.06,19.52-1.45,1.81-.11,3.49-.24,3.52,2.56,0,2.64-1.34,2.79-3.33,2.79-7.59,0-15.07,1.06-22.57,2.06-6.62.88-6.91.07-7.43-6.62-.67-8.54-2.41-17-3-25.54-.54-7.73-.19-8.46,8.49-9.19,6.66-.56,13.35-1.47,20.08-1.34,1.41,0,3.43-.7,3.4,2,0,2.19-1,3.2-3.22,3.32-5.63.3-11.26.81-16.89,1-3,.11-6.25-.15-5.46,4.22.58,3.26-.91,8.51,5.6,7.6A15.13,15.13,0,0,1,683.16,866.71Z"/><path class="cls-1" d="M770.24,879.52c-6.13.49-10.46-2-13.64-6.68-1.17-1.71-1.86-3.69-.12-5.27,2-1.83,3.94.1,4.85,1.34,5,6.92,11.4,5.19,17.91,3.19,2.91-.89,5.45-2.46,5.1-5.75-.37-3.55-3.46-4.75-6.55-4.91-4.56-.25-9.16.11-13.65-1.12-2-.55-4.09-.85-5.8-2.13-6.26-4.67-6.53-10-.87-15.31,5.17-4.84,16.65-7.14,22.54-3a12.94,12.94,0,0,1,3.89,3.5c1,1.67,2,4.12.2,5.64-1.56,1.3-3.17-.53-4.45-1.57-6.31-5.09-10.3-5.61-17.12-1.82-1.84,1-3.5,2.7-3.12,5s2.53,3.13,4.74,3.3a177.2,177.2,0,0,1,18.23,2.1c4.49.8,6.69,3.74,7.33,7.71.76,4.66.2,9.2-4.92,11.51C780,877.32,775.54,880.38,770.24,879.52Z"/><path class="cls-1" d="M552.29,870.53c-.34-3.83.53-7.69-.89-11.54-.87-2.34.45-3.94,3.34-4.09s4.26,2,3.79,3.82c-1.49,5.82.29,11.47.38,17.17.26,16.67-11,22.78-25.14,19.63-5.16-1.16-8.56-4.83-10-9.83-2.42-8.67-1.5-17.55-.9-26.36.2-2.79,1.62-5.41,5.14-4.28,3.2,1,1.41,3.44,1.13,5.57a60.74,60.74,0,0,0,1.25,24.14c1.68,6.07,7.3,5.61,12.34,5.5,4.53-.11,7.18-2.55,8.39-6.65A37.64,37.64,0,0,0,552.29,870.53Z"/><path class="cls-1" d="M451.53,893.45c-2.19.73-3.22-.93-3.94-2.83-.55-1.46-.75-3-1.26-4.52-2.3-6.61-3.66-7.45-10.42-6.12-.86.17-1.49.54-2.39.1-6.3-3.07-8.79-.07-9.76,5.93a5.16,5.16,0,0,1-2.87,4.19c-1.6.67-3.32,2-4.92.71-1.77-1.39.06-3,.6-4.23,4.09-9.6,7.7-19.41,12.73-28.59a23.07,23.07,0,0,1,2.47-4c4.48-5.24,6.42-4.53,9.69,1.47,6,11,7.52,23.48,12.87,34.62C455.63,892.9,455.09,893.4,451.53,893.45ZM435.6,875.27c7,0,7,0,5.42-6.69a8.05,8.05,0,0,0-.61-2c-1.23-2.37-.48-6.63-3.48-7-3.39-.37-3.16,4-4.49,6.23-.43.76-.73,1.59-1.12,2.37C427.84,875.27,427.84,875.27,435.6,875.27Z"/><path class="cls-1" d="M645.87,886.86c3.41-6.63,4.77-14.13,7-21.32,1.18-3.82,2.31-7.66,3.63-11.43.75-2.15,2.57-3.84,4.73-3.22,2.46.71,1.55,3.55,1.08,5-3.59,11.25-7.46,22.41-11.31,33.57-.71,2-1.92,4.37-4.35,3.78-1.93-.47-4.36-.41-5.6-3.14-5.54-12.18-11.37-24.23-17.12-36.37,4.91-1.34,6.73-.38,8.62,3.87,4,9,8.07,18,11.34,27.36C644.13,885.6,644.14,886.83,645.87,886.86Z"/><path class="cls-1" d="M227.86,853.22c2.39-7.24,4.73-14.5,7.2-21.71,1.06-3.12,2.47-6.11,3.57-9.21.68-1.89.16-4.18,3.87-3.1,3.37,1,3.73,2.44,2.73,5.06-2.8,7.28-5.87,14.47-8.5,21.8-2.46,6.86-1.52,8.61,5.23,10.93,3.42,1.19,7.07,1.62,10.42,3.17,1.67.78,2.88,1.66,2.36,3.52-.63,2.2-2.7,2.42-4.37,1.81-6.53-2.35-13-4.84-19.41-7.52A4.73,4.73,0,0,1,227.86,853.22Z"/><path class="cls-1" d="M278.58,832.4c-2.33,9.22-4.48,18.5-7.12,27.64-.69,2.39-.21,4.79-1.19,7.21s-1.87,3.26-4,2.41c-1.71-.66-2.9-1.22-2.35-4.13,2.1-11.08,5.85-21.79,7.23-33,.24-2,1.31-4.33,4.53-3.52C277.61,829.48,279.16,829.84,278.58,832.4Z"/><path class="cls-1" d="M792.85,836.23c-.41-2.55,1.67-3.08,3.19-3.57,1.78-.57,2.9.46,3.4,2.35a247,247,0,0,1,6.4,30c.19,1.37,0,2.75.61,4.14s1.45,3.32-.83,3.86c-2,.47-4.42.74-5.07-2.27-1.46-6.77-2.84-13.55-4.34-20.31C795.16,845.65,794,841,792.85,836.23Z"/><path class="cls-1" d="M613.29,881.82c.4-7.82-1.8-16-1.12-24.34.17-2.11,0-3.67,3-3.69s3.58,1.06,3.51,3.73A160.68,160.68,0,0,0,620.8,889c.57,3.37-1.14,5.05-4,5.24s-3.84-1.7-3.59-4.51C613.46,887.29,613.29,884.79,613.29,881.82Z"/></svg>