<svg width="123" height="64" viewBox="0 0 123 64" fill="none" xmlns="http://www.w3.org/2000/svg">
<path d="M5.09766 23.293H27.668C28.4648 23.293 29.0449 23.3574 29.4082 23.4863C30.1465 23.7676 30.668 24.2539 30.9727 24.9453C31.1133 25.2734 31.1836 25.8184 31.1836 26.5801V38.8145H5.09766V23.293ZM15.4336 35.7031V32.3457H9.89648V35.7031H15.4336ZM9.89648 29.4629H15.4336V26.4043H9.89648V29.4629ZM20.4609 26.4043V29.4629H26.3848V26.4043H20.4609ZM26.3848 32.3457H20.4609V35.7031H26.3848V32.3457ZM12.7969 18.7754C12.4922 16.8652 12.0469 15.0078 11.4609 13.2031H14.3438C15.2578 15.0664 15.9316 16.707 16.3652 18.125C16.6113 18.9219 16.9746 20.252 17.4551 22.1152H13.2188L13.0078 20.4453L12.9023 19.5312L12.0059 22.1328H6.64453C5.95312 22.1328 5.4668 22.0684 5.18555 21.9395C4.57617 21.6699 4.14258 21.207 3.88477 20.5508C3.76758 20.2227 3.70898 19.7012 3.70898 18.9863V8.28125H10.8457C11.6191 8.28125 12.123 8.1582 12.3574 7.91211C12.5449 7.71289 12.6738 7.44922 12.7441 7.12109H17.0508C16.8398 8.82031 16.4297 9.95117 15.8203 10.5137C14.9883 11.2637 13.6816 11.6387 11.9004 11.6387H8.50781V18.7754H12.7969ZM25.6465 11.6562L25.5586 12.2188C25.207 14.3984 24.6914 16.127 24.0117 17.4043C22.9922 19.3145 21.3633 20.7793 19.125 21.7988C18.832 21.9277 18.3281 22.127 17.6133 22.3965V19.8477C18.8203 18.9336 19.6699 17.8086 20.1621 16.4727C20.584 15.3359 20.8945 13.8066 21.0938 11.8848L21.1113 11.6562H18.0176V8.29883H29.2676C30.0762 8.29883 30.6621 8.36914 31.0254 8.50977C31.7637 8.81445 32.2793 9.33594 32.5723 10.0742C32.7246 10.4375 32.8008 11.0176 32.8008 11.8145V19.0566C32.8008 21.1426 31.8984 22.1855 30.0938 22.1855H24.9961L24.1875 18.8281H28.4766V11.6562H25.6465ZM73.5398 38.8145H48.7898V27.6875H69.6727C70.5516 27.6875 71.1902 27.7637 71.5887 27.916C72.3973 28.2324 72.9656 28.7832 73.2938 29.5684C73.4578 29.9551 73.5398 30.5703 73.5398 31.4141V38.8145ZM68.2664 35.457V31.0449H54.0633V35.457H68.2664ZM58.5809 10.4609C58.3113 9.06641 57.9598 7.83008 57.5262 6.75195H61.9734C63.0047 8.00586 63.7723 9.24219 64.2762 10.4609H77.3543V13.8184H44.9754V10.4609H58.5809ZM48.6844 19.4258V16.3145H73.6629V19.4258H48.6844ZM48.6844 25.0684V21.957H73.6629V25.0684H48.6844ZM115.158 31.5723C116.47 33.1777 118.468 34.7949 121.152 36.4238V39.8867C117.707 38.5156 114.877 36.6934 112.662 34.4199C110.681 36.3301 108.009 38.1113 104.646 39.7637V36.4766C107.037 34.9531 108.941 33.3066 110.359 31.5371C108.824 29.2051 107.599 26.4922 106.685 23.3984C106.638 25.5312 106.509 27.3887 106.298 28.9707C105.959 31.4434 105.261 33.5 104.207 35.1406C103.058 36.8984 101.47 38.4512 99.443 39.7988V35.9492C100.193 35.0586 100.75 34.0449 101.113 32.9082C101.804 30.7871 102.15 27.0371 102.15 21.6582V8.49219H114.912C115.345 8.49219 115.632 8.33398 115.773 8.01758C115.82 7.92383 115.896 7.66602 116.002 7.24414H120.484C120.156 9.07227 119.775 10.2383 119.341 10.7422C118.709 11.4805 117.63 11.8496 116.107 11.8496H106.703V16.1387H117.408C119.002 16.1387 119.798 16.9473 119.798 18.5645C119.798 20.5684 119.295 22.959 118.287 25.7363C117.513 27.8926 116.47 29.8379 115.158 31.5723ZM112.714 27.8105C113.148 26.9199 113.494 26.1289 113.752 25.4375C114.255 24.043 114.724 22.0625 115.158 19.4961H106.703V20.9727H110.412C111.185 24.0312 111.953 26.3105 112.714 27.8105ZM92.3414 24.3125C92.0719 24.875 91.7965 25.4023 91.5152 25.8945C90.4371 27.7812 89.0953 29.4746 87.4898 30.9746V27.125C89.5641 23.9844 90.9586 20.2051 91.6734 15.7871H88.2457V12.4297H92.3414V6.75195H97.1402V12.4297H101.183V15.7871H97.1402V18.2129H99.5484C100.533 20.7207 101.289 23.4453 101.816 26.3867H98.1773C97.9547 23.3984 97.7555 21.4824 97.5797 20.6387C97.5094 20.2988 97.3629 19.7188 97.1402 18.8984V39.7988H92.3414V24.3125ZM21.6 58.28C21.72 58.3 21.76 58.36 21.76 58.72C21.76 59.08 21.72 59.14 21.6 59.14C21.14 59.14 19.56 59 17.9 59C16.24 59 14.64 59.14 14.18 59.14C14.06 59.14 14.02 59.08 14.02 58.72C14.02 58.36 14.06 58.3 14.18 58.28L15.06 58.14C15.26 58.1 15.32 58.06 15.3 57.86L14.66 48.22L10.22 58.72C10.04 59.12 9.98 59.16 9.58 59.16H9.5C9.1 59.16 8.94 59.14 8.76 58.72L4.3 48.08L4.24 54.9C4.22 57.7 4.28 57.78 4.86 57.96L5.94 58.28C6.06 58.32 6.1 58.36 6.1 58.72C6.1 59.08 6.06 59.14 5.94 59.14C5.48 59.14 4.32 59 3.02 59C1.76 59 0.86 59.14 0.4 59.14C0.28 59.14 0.24 59.08 0.24 58.72C0.24 58.36 0.28 58.32 0.4 58.28L1.28 57.96C1.88 57.74 1.92 57.7 2.26 54.9L3.3 46.32C3.38 45.72 3.12 45.56 2.52 45.46L1.64 45.32C1.52 45.3 1.48 45.24 1.48 44.88C1.48 44.52 1.52 44.46 1.64 44.46C1.9 44.46 4.48 44.6 5.74 44.6C6.6 44.6 7.4 44.56 8 44.56C8.2 44.56 8.26 44.6 8.34 44.8L11.5 52.74L14.38 44.8C14.46 44.6 14.5 44.56 14.7 44.56C15.16 44.56 16.22 44.6 17.28 44.6C18.74 44.6 20.34 44.46 20.8 44.46C20.92 44.46 20.96 44.52 20.96 44.88C20.96 45.24 20.92 45.3 20.8 45.32L19.92 45.46C19.72 45.5 19.66 45.54 19.68 45.74L20.48 57.86C20.5 58.06 20.52 58.1 20.72 58.14L21.6 58.28ZM36.9489 52.78C35.3689 52.86 33.0889 52.9 31.1889 52.84C31.4889 53.84 32.0289 54.8 32.5889 55.36C33.3489 56.12 33.8889 56.32 34.6089 56.32C35.4289 56.32 36.0089 55.98 36.5489 55.5C36.7289 55.34 37.2289 55.72 37.1489 55.92C36.3289 57.96 34.0689 59.32 31.9089 59.32C28.9289 59.32 26.6289 57.28 26.6289 54.12C26.6289 50.9 29.0489 48.76 32.6089 48.76C35.5889 48.76 37.2089 50.2 37.2089 52.12C37.2089 52.3 37.2089 52.5 37.1689 52.64C37.1489 52.72 37.0689 52.78 36.9489 52.78ZM31.7089 52.32C32.6289 52.22 33.0489 51.56 33.0489 50.54C33.0489 49.78 32.7289 49.38 32.1689 49.38C31.5489 49.38 30.9289 49.94 30.9289 51.14C30.9289 51.54 30.9889 51.98 31.0689 52.4L31.7089 52.32ZM42.2914 55.5C42.3114 55.34 42.3714 55.3 42.7314 55.3C43.1114 55.3 43.1714 55.34 43.2314 55.5C43.6314 56.5 43.9514 57.26 44.2914 57.84C44.6314 58.42 45.0714 58.6 45.6714 58.6C46.5514 58.6 47.0714 58.16 47.0714 57.42C47.0714 56.7 46.6914 56.22 45.2714 55.8C42.8314 55.08 42.2314 53.96 42.2314 52.24C42.2314 50.26 44.0114 48.66 47.2714 48.66C47.9914 48.66 48.7314 48.74 49.4914 48.84C49.8914 48.9 49.9314 48.94 49.9314 49.34V51.72C49.9314 51.88 49.8914 51.92 49.5114 51.92C49.1314 51.92 49.0714 51.88 49.0114 51.72L48.3914 50.14C48.1914 49.66 47.8514 49.38 47.1914 49.38C46.5114 49.38 45.9914 49.66 45.9914 50.4C45.9914 51.06 46.3114 51.4 47.6514 51.88C49.9114 52.68 50.6314 53.86 50.6314 55.38C50.6314 57.72 48.7914 59.32 45.5914 59.32C44.4114 59.32 43.5714 59.18 42.5314 58.86C42.1314 58.74 42.0914 58.7 42.0914 58.3C42.0914 57.56 42.1914 56.42 42.2914 55.5ZM55.6469 55.5C55.6669 55.34 55.7269 55.3 56.0869 55.3C56.4669 55.3 56.5269 55.34 56.5869 55.5C56.9869 56.5 57.3069 57.26 57.6469 57.84C57.9869 58.42 58.4269 58.6 59.0269 58.6C59.9069 58.6 60.4269 58.16 60.4269 57.42C60.4269 56.7 60.0469 56.22 58.6269 55.8C56.1869 55.08 55.5869 53.96 55.5869 52.24C55.5869 50.26 57.3669 48.66 60.6269 48.66C61.3469 48.66 62.0869 48.74 62.8469 48.84C63.2469 48.9 63.2869 48.94 63.2869 49.34V51.72C63.2869 51.88 63.2469 51.92 62.8669 51.92C62.4869 51.92 62.4269 51.88 62.3669 51.72L61.7469 50.14C61.5469 49.66 61.2069 49.38 60.5469 49.38C59.8669 49.38 59.3469 49.66 59.3469 50.4C59.3469 51.06 59.6669 51.4 61.0069 51.88C63.2669 52.68 63.9869 53.86 63.9869 55.38C63.9869 57.72 62.1469 59.32 58.9469 59.32C57.7669 59.32 56.9269 59.18 55.8869 58.86C55.4869 58.74 55.4469 58.7 55.4469 58.3C55.4469 57.56 55.5469 56.42 55.6469 55.5ZM77.0023 59.32C75.8223 59.32 74.9823 58.52 74.4823 56.78C73.8423 58.38 72.6223 59.32 71.1623 59.32C69.6223 59.32 68.5623 58.08 68.5623 56.52C68.5623 55.3 68.9423 54.6 69.9823 54.04C70.9223 53.54 72.4223 53.1 74.3223 52.68V52.04C74.3223 50.6 73.8823 49.72 73.1223 49.72C72.9223 49.72 72.8423 49.78 72.8023 50.04L72.6623 51C72.4623 52.44 71.6223 53.12 70.5023 53.12C69.8823 53.12 69.3223 52.74 69.3223 52C69.3223 50.72 71.8023 48.76 74.8623 48.76C77.5823 48.76 78.8623 49.84 78.8623 51.78V55.46C78.8623 57.06 79.1823 57.1 79.7223 56.74C79.7823 56.7 79.8023 56.68 79.8423 56.68C80.0223 56.68 80.3223 57.12 80.3223 57.24C80.3223 57.34 80.2423 57.42 80.1223 57.54L80.0423 57.62C78.8423 58.82 77.9823 59.32 77.0023 59.32ZM73.9623 56.62C74.1623 56.62 74.2623 56.54 74.3223 56.48V55.06C74.3223 54.62 74.1423 54.3 73.9023 54.06C73.6423 53.8 73.3223 53.68 73.1223 53.68C72.7223 53.68 72.5423 53.92 72.5423 54.52C72.5423 55.64 73.3023 56.62 73.9623 56.62ZM90.7011 56.98C93.6411 56.98 95.4211 58.04 95.4211 59.74C95.4211 61.64 93.2811 63.6 88.6411 63.6C85.0011 63.6 83.6411 62.96 83.6411 61.82C83.6411 61 84.6011 60.8 85.9811 60.38C84.8811 59.88 84.1811 58.96 84.1811 57.64C84.1811 56.48 85.2611 56.2 86.9211 55.42C85.6811 54.86 84.6411 53.84 84.6411 52.32C84.6411 50.16 86.8011 48.78 89.8211 48.78C90.5211 48.78 91.3211 48.94 92.0411 49.24C93.4211 49.18 94.7011 49.14 95.2411 49.14C95.5211 49.14 95.5611 49.18 95.5611 49.44C95.5611 50.14 95.5011 50.48 95.2411 50.48C94.8411 50.48 94.2211 50.42 93.5811 50.36C94.0011 50.86 94.2611 51.5 94.2611 52.26C94.2611 54.44 92.1011 55.88 89.0811 55.88C88.6211 55.88 88.1411 55.82 87.6611 55.68C87.2811 55.78 87.1011 56.04 87.1011 56.34C87.1011 56.78 87.4611 56.98 88.9011 56.98H90.7011ZM88.7611 49.44C88.4011 49.44 88.2211 49.58 88.2211 50.32C88.2211 52.64 89.4611 55.22 90.1411 55.22C90.5011 55.22 90.6811 55.08 90.6811 54.34C90.6811 52.02 89.4211 49.44 88.7611 49.44ZM89.6811 62.86C91.4611 62.86 92.3811 62.36 92.3811 61.82C92.3811 61.24 91.9011 60.82 89.3011 60.82H88.2011C87.7211 60.82 87.2611 60.78 86.8411 60.68C86.6211 60.86 86.5211 61.12 86.5211 61.36C86.5211 62.2 87.7011 62.86 89.6811 62.86ZM110.308 52.78C108.728 52.86 106.448 52.9 104.548 52.84C104.848 53.84 105.388 54.8 105.948 55.36C106.708 56.12 107.248 56.32 107.968 56.32C108.788 56.32 109.368 55.98 109.908 55.5C110.088 55.34 110.588 55.72 110.508 55.92C109.688 57.96 107.428 59.32 105.268 59.32C102.288 59.32 99.9883 57.28 99.9883 54.12C99.9883 50.9 102.408 48.76 105.968 48.76C108.948 48.76 110.568 50.2 110.568 52.12C110.568 52.3 110.568 52.5 110.528 52.64C110.508 52.72 110.428 52.78 110.308 52.78ZM105.068 52.32C105.988 52.22 106.408 51.56 106.408 50.54C106.408 49.78 106.088 49.38 105.528 49.38C104.908 49.38 104.288 49.94 104.288 51.14C104.288 51.54 104.348 51.98 104.428 52.4L105.068 52.32Z" fill="#20615B"/>
</svg>
