<svg width="102" height="58" viewBox="0 0 102 58" fill="none" xmlns="http://www.w3.org/2000/svg">
<path d="M17.4551 18.8926C17.127 19.4551 16.9043 19.8242 16.7871 20H30.1816C31.2012 20 31.9453 20.2344 32.4141 20.7031C32.8828 21.1719 33.1172 21.9102 33.1172 22.918V31.2676C33.1172 32.0762 32.8711 32.6621 32.3789 33.0254C31.875 33.3887 31.0957 33.5703 30.041 33.5703H25.3477L24.7676 31.6543H28.7754V22.0918H14.3965C13.5996 22.5957 12.6855 23.0293 11.6543 23.3926H17.3145V22.4434H21.1113V23.3926H25.4004C26.2207 23.3926 26.8184 23.5801 27.1934 23.9551C27.5684 24.3301 27.7559 24.9277 27.7559 25.748V28.0332H21.1113V28.9824L24.8027 28.9121C24.7441 28.7715 24.627 28.5488 24.4512 28.2441H26.666C27.3926 29.0762 27.9844 30.0664 28.4414 31.2148H25.5938C25.5469 30.9688 25.4941 30.752 25.4355 30.5645L8.19141 31.9004V29.2637L17.3145 29.0703V28.0332H10.8105V23.6562C10.166 23.8438 9.3457 24.0488 8.34961 24.2715V21.8457C9.99023 21.2832 11.209 20.7031 12.0059 20.1055C12.334 19.8477 12.6973 19.4434 13.0957 18.8926H9.5625V13.8477H29.9355C31.7051 13.8477 32.6719 14.5801 32.8359 16.0449H32.8535V18.8926H17.4551ZM21.1113 26.0996H23.6777V25.3086H21.1113V26.0996ZM28.7754 16.9766V15.834H26.1562V16.9766H28.7754ZM13.6406 16.9766H16.2949V15.834H13.6406V16.9766ZM19.8984 16.9766H22.5527V15.834H19.8984V16.9766ZM17.3145 25.3086H14.8887V26.0996H17.3145V25.3086ZM8.45508 7.69531V17.7324C8.45508 20.6035 8.0332 23.3574 7.18945 25.9941C6.66211 27.6699 5.83594 29.1523 4.71094 30.4414C4.07812 31.1797 3.01172 32.1406 1.51172 33.3242V29.6328C2.53125 27.6406 3.15234 25.625 3.375 23.5859C3.5625 21.8164 3.65625 19.8535 3.65625 17.6973V1.73633H30.6387C31.6582 1.73633 32.4023 1.9707 32.8711 2.43945C33.3398 2.9082 33.5742 3.65234 33.5742 4.67188V7.69531H8.45508ZM8.45508 5.28711H28.7754V4.14453H8.45508V5.28711ZM18.8262 13.3027V8.27539H23.1504V13.3027H18.8262ZM32.5898 11.1758V13.6543C30.2812 13.1738 27.3691 12.7461 23.8535 12.3711V10.8066C26.5605 10.8887 28.7988 10.9766 30.5684 11.0703L32.5898 11.1758ZM23.8184 10.543V8.96094C25.084 8.78516 26.0801 8.5332 26.8066 8.20508H32.5195C31.1836 9.30664 28.2832 10.0859 23.8184 10.543ZM13.4824 8.20508C15.3457 8.9082 16.9219 9.65234 18.2109 10.4375H12.6387C11.6074 9.64063 10.459 8.89648 9.19336 8.20508H13.4824ZM18.1055 12.4414L9.21094 13.6191V11.1934L18.1055 10.8242V12.4414ZM63.9598 0.787109L63.9949 0.751953L64.0125 0.787109H64.0301C65.3426 2.2168 66.9246 3.45313 68.7762 4.49609C70.3348 5.375 72.0047 6.10742 73.7859 6.69336C74.7469 7.00977 76.1297 7.39063 77.9344 7.83594V10.7188C74.4422 10.0508 71.952 9.47656 70.4637 8.99609C69.8426 8.79688 68.9168 8.46289 67.6863 7.99414L68.0203 9.11914H54.6961L54.3621 7.99414C51.6551 9.08398 48.4031 9.99219 44.6063 10.7188V7.83594C47.8289 6.99219 50.5828 6.01367 52.868 4.90039C54.3797 4.17383 55.5809 3.40625 56.4715 2.59766C56.9168 2.1875 57.4852 1.58398 58.1766 0.787109H63.9598ZM60.866 4.16211C59.9051 5.04102 58.8152 5.81445 57.5965 6.48242H64.3992C63.2625 5.87305 62.0848 5.09961 60.866 4.16211ZM69.409 13.373C69.2098 14.6387 68.8523 15.7695 68.3367 16.7656H63.6258C64.868 15.7109 65.8348 14.5801 66.5262 13.373H69.409ZM55.6805 13.373C56.7586 14.3223 57.6258 15.4531 58.282 16.7656H53.7996C53.6238 15.5586 53.2605 14.4277 52.7098 13.373H55.6805ZM47.7879 19.9824V10.1738H71.7117C72.7313 10.1738 73.4754 10.4082 73.9441 10.877C74.4129 11.3457 74.6473 12.0898 74.6473 13.1094V19.9824H47.7879ZM58.8973 12.582H52.3406V17.5742H58.8973V12.582ZM63.2215 12.582V17.5742H70.0945V12.582H63.2215ZM49.1414 32.7793V21.0723H70.3055C71.325 21.0723 72.0691 21.3066 72.5379 21.7754C73.0066 22.2441 73.241 22.9883 73.241 24.0078V32.7793H49.1414ZM54.1863 30.1602H68.1961V23.709H54.1863V25.5898H66.9129L67.95 27.998H54.1863V30.1602ZM0.68 47.72C0.7 47.56 0.76 47.52 1.22 47.52C1.68 47.52 1.74 47.56 1.8 47.72C2.32 49.1 3.1 50.88 3.74 51.52C4.3 52.08 4.88 52.44 5.84 52.44C7.28 52.44 7.98 51.7 7.98 50.58C7.98 49.5 7.56 48.76 5.36 47.96C1.82 46.68 0.6 45.26 0.6 42.88C0.6 40.12 3.54 38.36 8.44 38.36C9.26 38.36 10.04 38.42 10.94 38.6C11.34 38.68 11.38 38.72 11.38 39.12V42.68C11.38 42.84 11.3 42.88 10.84 42.88C10.38 42.88 10.32 42.84 10.26 42.68C9.9 41.72 9.54 40.54 9.02 40.02C8.46 39.46 7.94 39.24 7.18 39.24C6.16 39.24 5.42 39.8 5.42 40.92C5.42 42.12 5.92 42.76 7.76 43.46C11.24 44.78 12.54 46.2 12.54 48.32C12.54 51.22 9.96 53.32 5.7 53.32C3.84 53.32 2.28 53.1 0.84 52.72C0.44 52.62 0.4 52.56 0.4 52.16C0.4 50.9 0.6 48.2 0.68 47.72ZM17.4492 48.12C17.4492 44.72 20.0292 42.76 23.7292 42.76C27.2092 42.76 29.6092 44.72 29.6092 47.96C29.6092 51.36 27.0292 53.32 23.3292 53.32C19.8492 53.32 17.4492 51.36 17.4492 48.12ZM21.8092 44.82C21.8092 46.92 23.0292 51.42 23.8892 52.28C24.1292 52.52 24.3092 52.58 24.5092 52.58C24.9092 52.58 25.2492 52.32 25.2492 51.26C25.2492 49.16 24.0292 44.66 23.1692 43.8C22.9292 43.56 22.7492 43.5 22.5492 43.5C22.1492 43.5 21.8092 43.76 21.8092 44.82ZM44.7533 50.4C44.1333 51.9 42.2333 53.32 39.7533 53.32C36.7733 53.32 34.6133 51.24 34.6133 48.12C34.6133 44.92 37.2333 42.76 40.7733 42.76C43.3133 42.76 44.7333 44.1 44.7333 45.42C44.7333 46.2 44.1333 46.8 43.2333 46.8C42.3333 46.8 41.6733 46.24 41.0933 45.14C40.3533 43.74 40.0733 43.5 39.6333 43.5C39.2133 43.5 38.9133 43.8 38.9133 44.56C38.9133 46.3 39.8133 48.64 41.0133 49.84C41.6133 50.44 42.0133 50.62 42.6533 50.62C43.2333 50.62 43.6533 50.4 44.1533 49.98C44.3333 49.84 44.8333 50.2 44.7533 50.4ZM53.1675 41.74C51.8275 41.74 50.8675 40.74 50.8675 39.44C50.8675 38.14 51.8275 37.14 53.1675 37.14C54.5075 37.14 55.4675 38.14 55.4675 39.44C55.4675 40.74 54.5075 41.74 53.1675 41.74ZM49.6675 53.14C49.5475 53.14 49.5075 53.08 49.5075 52.72C49.5075 52.36 49.5475 52.3 49.6675 52.28L50.3475 52.14C50.5475 52.1 50.5875 52.06 50.5875 51.86V46.6C50.5875 46.4 50.5475 46.38 50.3475 46.34L49.6675 46.22C49.5475 46.2 49.5075 46.16 49.5075 45.84C49.5075 45.54 49.5475 45.5 49.6675 45.46C51.3075 44.82 53.0875 43.8 54.6875 42.7C54.7475 42.66 54.7875 42.64 54.8475 42.64C54.9875 42.64 55.3675 42.8 55.3675 42.94C55.3675 43.28 55.2075 44.64 55.2075 47.1V51.86C55.2075 52.06 55.2475 52.1 55.4475 52.14L56.1275 52.28C56.2475 52.3 56.2875 52.36 56.2875 52.72C56.2875 53.08 56.2475 53.14 56.1275 53.14C55.6675 53.14 54.3675 53 52.9075 53C51.4475 53 50.1075 53.14 49.6675 53.14ZM71.4294 46.78C69.8494 46.86 67.5694 46.9 65.6694 46.84C65.9694 47.84 66.5094 48.8 67.0694 49.36C67.8294 50.12 68.3694 50.32 69.0894 50.32C69.9094 50.32 70.4894 49.98 71.0294 49.5C71.2094 49.34 71.7094 49.72 71.6294 49.92C70.8094 51.96 68.5494 53.32 66.3894 53.32C63.4094 53.32 61.1094 51.28 61.1094 48.12C61.1094 44.9 63.5294 42.76 67.0894 42.76C70.0694 42.76 71.6894 44.2 71.6894 46.12C71.6894 46.3 71.6894 46.5 71.6494 46.64C71.6294 46.72 71.5494 46.78 71.4294 46.78ZM66.1894 46.32C67.1094 46.22 67.5294 45.56 67.5294 44.54C67.5294 43.78 67.2094 43.38 66.6494 43.38C66.0294 43.38 65.4094 43.94 65.4094 45.14C65.4094 45.54 65.4694 45.98 65.5494 46.4L66.1894 46.32ZM84.0319 44.14C83.3319 44.14 82.4719 44.14 81.7919 44.12V48.08C81.7919 49.94 82.2919 50.4 83.1519 50.4C83.4119 50.4 83.5519 50.28 83.6519 50.28C83.8719 50.28 84.2119 50.6 84.1319 50.8C83.6319 52.06 82.2319 53.32 80.3719 53.32C78.2719 53.32 77.1719 51.98 77.1719 49.82V44.34C77.1719 44.14 77.1519 44.12 76.9319 44.08L76.2119 43.98C76.0719 43.96 76.0519 43.92 76.0519 43.58C76.0519 43.24 76.0919 43.16 76.2119 43.14C78.3119 42.64 79.4519 41.94 80.7519 40.58C80.8719 40.46 80.8919 40.42 81.2119 40.42C81.5319 40.42 81.5919 40.44 81.6119 40.58C81.6919 41.16 81.7519 42.04 81.7719 42.92L84.0319 42.9C84.2319 42.9 84.3119 43 84.3119 43.54C84.3119 44.08 84.2319 44.14 84.0319 44.14ZM100.918 42.86C101.038 42.86 101.078 42.92 101.078 43.28C101.078 43.64 101.038 43.66 100.918 43.72L99.9783 44.14C99.5783 44.32 99.4183 44.52 98.3183 46.6L95.3383 52.2L94.1583 54.52C93.1183 56.56 92.2383 57.6 90.5783 57.6C89.3383 57.6 88.4183 56.8 88.4183 55.56C88.4183 54.32 89.4183 53.42 90.6583 53.42C91.3983 53.42 92.0783 53.7 92.6583 54.18L93.3783 53.12L88.8183 44.12C88.7183 43.92 88.7183 43.88 88.5183 43.84L87.8983 43.72C87.7783 43.7 87.7383 43.64 87.7383 43.28C87.7383 42.92 87.7783 42.86 87.8983 42.86C88.3583 42.86 89.6583 43 91.1183 43C92.1783 43 94.6383 42.86 95.0983 42.86C95.2183 42.86 95.2583 42.92 95.2583 43.28C95.2583 43.64 95.2183 43.7 95.0983 43.72L93.9183 43.84C93.7183 43.86 93.6983 43.94 93.7783 44.12L95.9983 48.62L96.6983 46.6C97.4383 44.48 97.3583 44.3 96.7783 44.1L95.5983 43.7C95.4783 43.66 95.4383 43.64 95.4383 43.28C95.4383 42.92 95.4783 42.86 95.5983 42.86C96.0583 42.86 97.3383 43 98.3983 43C99.4583 43 100.458 42.86 100.918 42.86Z" fill="#20615B"/>
</svg>
