<svg width="108" height="88" viewBox="0 0 108 88" fill="none" xmlns="http://www.w3.org/2000/svg">
<path d="M32.724 47.34C32.004 51.768 30.42 55.71 27.972 59.166C25.56 62.586 21.798 65.448 16.686 67.752L16.2 67.266C19.332 64.782 21.726 62.064 23.382 59.112C25.038 56.124 26.136 52.992 26.676 49.716C27.252 46.44 27.54 42.678 27.54 38.43V28.494C27.54 24.426 27.324 21.042 26.892 18.342L34.128 21.096H42.552L43.74 19.476C43.848 19.332 44.028 19.116 44.28 18.828C44.532 18.504 44.73 18.27 44.874 18.126C45.054 17.946 45.216 17.856 45.36 17.856C45.576 17.856 46.152 18.198 47.088 18.882C48.024 19.566 48.906 20.286 49.734 21.042C50.562 21.798 50.976 22.302 50.976 22.554C50.796 22.806 50.508 23.04 50.112 23.256C49.752 23.436 49.32 23.562 48.816 23.634V60.354C48.816 61.938 48.618 63.216 48.222 64.188C47.862 65.16 47.088 65.934 45.9 66.51C44.748 67.122 43.02 67.536 40.716 67.752C40.536 65.664 40.05 64.224 39.258 63.432C38.718 62.928 38.034 62.496 37.206 62.136C36.378 61.776 35.262 61.488 33.858 61.272V60.516C38.322 60.768 40.968 60.894 41.796 60.894C42.3 60.894 42.642 60.804 42.822 60.624C43.002 60.444 43.092 60.138 43.092 59.706V47.34H32.724ZM17.82 20.556C17.964 20.376 18.162 20.142 18.414 19.854C18.666 19.53 18.864 19.296 19.008 19.152C19.188 19.008 19.35 18.936 19.494 18.936C19.71 18.936 20.268 19.278 21.168 19.962C22.068 20.61 22.914 21.312 23.706 22.068C24.498 22.788 24.894 23.274 24.894 23.526C24.462 24.066 23.742 24.444 22.734 24.66V40.266C22.806 44.73 22.95 48.96 23.166 52.956C22.878 53.388 22.176 53.874 21.06 54.414C19.944 54.954 18.918 55.224 17.982 55.224C17.226 55.224 16.848 54.864 16.848 54.144C16.848 54.072 16.92 53.406 17.064 52.146V50.58H10.476V52.416C10.512 52.812 10.53 53.298 10.53 53.874L10.692 55.71C10.548 56.142 10.008 56.628 9.072 57.168C8.172 57.672 7.092 57.924 5.832 57.924C5.364 57.924 4.986 57.816 4.698 57.6C4.41 57.384 4.266 57.132 4.266 56.844C4.41 54.72 4.536 52.668 4.644 50.688C4.752 48.672 4.824 46.044 4.86 42.804V30.384C4.86 25.848 4.626 22.158 4.158 19.314L11.124 22.122H16.524L17.82 20.556ZM43.092 33.354V22.662H33.264V33.354H43.092ZM17.064 35.46V23.688H10.476V35.46H17.064ZM33.264 38.376C33.264 41.04 33.138 43.506 32.886 45.774H43.092V34.92H33.264V38.376ZM10.476 37.026V49.014H17.064V37.026H10.476ZM94.392 26.55C94.608 26.298 94.824 26.028 95.04 25.74C95.292 25.452 95.526 25.2 95.742 24.984C95.958 24.768 96.138 24.66 96.282 24.66C96.498 24.66 97.128 25.056 98.172 25.848C99.216 26.64 100.188 27.468 101.088 28.332C102.024 29.16 102.492 29.7 102.492 29.952C101.988 30.6 101.178 31.05 100.062 31.302V52.038C100.134 56.502 100.278 60.732 100.494 64.728C100.206 65.196 99.414 65.736 98.118 66.348C96.858 66.996 95.67 67.32 94.554 67.32C93.726 67.32 93.312 66.96 93.312 66.24C93.312 66.168 93.384 65.466 93.528 64.134V62.514H68.58V65.16C68.58 65.448 68.31 65.772 67.77 66.132C67.266 66.528 66.582 66.87 65.718 67.158C64.89 67.446 64.044 67.59 63.18 67.59C62.676 67.59 62.262 67.482 61.938 67.266C61.65 67.05 61.506 66.798 61.506 66.51C61.65 64.386 61.776 62.334 61.884 60.354C61.992 58.338 62.064 55.71 62.1 52.47V36.324C62.1 31.788 61.866 28.098 61.398 25.254L69.066 28.44H74.736C74.808 28.008 74.88 27.72 74.952 27.576C75.348 25.74 75.654 23.796 75.87 21.744C76.086 19.692 76.158 17.946 76.086 16.506L85.806 19.098C85.59 19.854 84.942 20.232 83.862 20.232C82.278 22.14 80.928 23.706 79.812 24.93C78.732 26.154 77.598 27.324 76.41 28.44H92.934L94.392 26.55ZM93.528 44.424V29.898H68.58V44.424H93.528ZM68.58 45.99V60.948H93.528V45.99H68.58Z" fill="#20615B"/>
<path d="M12.022 83.482C12.1247 83.482 12.19 83.5007 12.218 83.538C12.2553 83.566 12.274 83.608 12.274 83.664C12.274 83.748 12.2413 83.7993 12.176 83.818C12.092 83.8367 11.2893 83.9487 9.768 84.154L9.754 82.908C9.15667 83.7387 8.43333 84.154 7.584 84.154C6.80933 84.154 6.24 83.944 5.876 83.524C5.52133 83.104 5.33933 82.5953 5.33 81.998C5.31133 81.2887 5.302 80.1873 5.302 78.694C5.302 78.4047 5.22733 78.218 5.078 78.134C4.92867 78.0407 4.686 77.9847 4.35 77.966C4.266 77.9567 4.224 77.8913 4.224 77.77C4.224 77.686 4.252 77.6347 4.308 77.616L6.716 77.084L6.702 79.772C6.702 80.976 6.70667 81.676 6.716 81.872C6.772 82.9267 7.20133 83.454 8.004 83.454C8.33067 83.454 8.64333 83.3513 8.942 83.146C9.25 82.9407 9.516 82.6467 9.74 82.264L9.698 78.708C9.698 78.4093 9.62333 78.218 9.474 78.134C9.334 78.05 9.09133 77.994 8.746 77.966C8.662 77.9567 8.62 77.882 8.62 77.742C8.62 77.686 8.648 77.6487 8.704 77.63C8.816 77.5927 9.61867 77.4153 11.112 77.098L11.126 82.81C11.126 83.1927 11.3407 83.412 11.77 83.468C11.826 83.4773 11.91 83.482 12.022 83.482ZM21.2193 83.65C21.2847 83.65 21.3173 83.7107 21.3173 83.832C21.3173 83.944 21.2847 84 21.2193 84H17.8033C17.738 84 17.7053 83.944 17.7053 83.832C17.7053 83.7107 17.738 83.65 17.8033 83.65H17.9853C18.2467 83.65 18.4473 83.608 18.5873 83.524C18.7367 83.44 18.8113 83.2673 18.8113 83.006V80.486L18.7973 79.422C18.76 78.3207 18.3353 77.77 17.5233 77.77C17.1873 77.77 16.8653 77.8727 16.5573 78.078C16.2587 78.2833 15.9973 78.582 15.7733 78.974L15.7593 83.006C15.7593 83.2673 15.834 83.44 15.9833 83.524C16.1327 83.608 16.3427 83.65 16.6133 83.65H16.7673C16.8327 83.65 16.8653 83.7107 16.8653 83.832C16.8653 83.944 16.8327 84 16.7673 84H13.3653C13.2907 84 13.2533 83.944 13.2533 83.832C13.2533 83.7107 13.2907 83.65 13.3653 83.65H13.5333C13.7947 83.65 14 83.608 14.1493 83.524C14.2987 83.44 14.3733 83.2673 14.3733 83.006L14.3453 78.708C14.3453 78.4187 14.2707 78.232 14.1213 78.148C13.9813 78.0547 13.7387 77.994 13.3933 77.966C13.3093 77.9567 13.2673 77.882 13.2673 77.742C13.2673 77.686 13.2907 77.6487 13.3373 77.63C13.4493 77.5927 14.2613 77.4153 15.7733 77.098V78.344C16.3613 77.5133 17.0753 77.098 17.9153 77.098C18.662 77.098 19.2267 77.308 19.6093 77.728C19.992 78.1387 20.1973 78.638 20.2253 79.226C20.2347 79.422 20.2393 79.8187 20.2393 80.416C20.2393 81.1627 20.23 82.026 20.2113 83.006C20.2113 83.2673 20.2813 83.44 20.4213 83.524C20.5707 83.608 20.7807 83.65 21.0513 83.65H21.2193ZM29.7681 83.524C29.8894 83.524 29.9501 83.5893 29.9501 83.72C29.9501 83.7947 29.9174 83.8413 29.8521 83.86C29.7214 83.888 28.9141 83.9953 27.4301 84.182V83.356C27.1501 83.5987 26.8281 83.7993 26.4641 83.958C26.1001 84.1073 25.7128 84.182 25.3021 84.182C24.7701 84.182 24.2801 84.028 23.8321 83.72C23.3841 83.412 23.0294 82.978 22.7681 82.418C22.5068 81.858 22.3761 81.2233 22.3761 80.514C22.3761 79.898 22.5068 79.3287 22.7681 78.806C23.0294 78.2833 23.3794 77.868 23.8181 77.56C24.2568 77.252 24.7281 77.098 25.2321 77.098C26.0534 77.098 26.7768 77.392 27.4021 77.98L27.3881 75.222C27.3881 74.9233 27.3134 74.732 27.1641 74.648C27.0241 74.564 26.7861 74.508 26.4501 74.48C26.3568 74.48 26.3101 74.4053 26.3101 74.256C26.3101 74.1907 26.3381 74.1533 26.3941 74.144C26.6274 74.0787 26.9914 73.9947 27.4861 73.892C27.9808 73.78 28.4241 73.682 28.8161 73.598L28.8021 82.852C28.8021 83.2627 29.0308 83.482 29.4881 83.51C29.5534 83.5193 29.6468 83.524 29.7681 83.524ZM25.9741 83.608C26.2168 83.608 26.4688 83.5473 26.7301 83.426C26.9914 83.3047 27.2248 83.1367 27.4301 82.922L27.4021 78.512C27.1781 78.2693 26.9121 78.0733 26.6041 77.924C26.3054 77.7653 26.0161 77.686 25.7361 77.686C25.4001 77.686 25.0968 77.798 24.8261 78.022C24.5554 78.2367 24.3361 78.568 24.1681 79.016C24.0094 79.4547 23.9301 79.9913 23.9301 80.626C23.9301 81.214 24.0234 81.7367 24.2101 82.194C24.4061 82.642 24.6581 82.992 24.9661 83.244C25.2834 83.4867 25.6194 83.608 25.9741 83.608ZM37.1517 82.222C37.2077 82.2593 37.2357 82.2967 37.2357 82.334C37.2357 82.362 37.2217 82.3993 37.1937 82.446C36.9977 82.9033 36.6617 83.3093 36.1857 83.664C35.719 84.0187 35.1357 84.196 34.4357 84.196C33.773 84.196 33.171 84.0467 32.6297 83.748C32.0977 83.4493 31.6777 83.034 31.3697 82.502C31.0617 81.97 30.9077 81.3773 30.9077 80.724C30.9077 80.1453 31.0337 79.576 31.2857 79.016C31.547 78.456 31.9297 77.994 32.4337 77.63C32.9377 77.266 33.5443 77.084 34.2537 77.084C35.0657 77.084 35.747 77.3547 36.2977 77.896C36.8483 78.428 37.1703 79.156 37.2637 80.08L32.4617 80.108C32.4523 80.2107 32.4477 80.3787 32.4477 80.612C32.4477 81.4613 32.653 82.1567 33.0637 82.698C33.4837 83.23 34.0437 83.496 34.7437 83.496C35.6397 83.496 36.363 83.0807 36.9137 82.25C36.951 82.194 36.993 82.166 37.0397 82.166C37.077 82.166 37.1143 82.1847 37.1517 82.222ZM34.1837 77.518C33.8197 77.518 33.479 77.686 33.1617 78.022C32.8443 78.3487 32.6297 78.876 32.5177 79.604L35.6677 79.576V79.366C35.6583 78.7687 35.509 78.3113 35.2197 77.994C34.9397 77.6767 34.5943 77.518 34.1837 77.518ZM43.1266 77.084C43.4626 77.084 43.7426 77.1773 43.9666 77.364C44.1906 77.5507 44.3026 77.77 44.3026 78.022C44.3026 78.2087 44.2326 78.3673 44.0926 78.498C43.9526 78.6287 43.7799 78.694 43.5746 78.694C43.4533 78.694 43.3413 78.6707 43.2386 78.624C43.1453 78.568 43.0286 78.4887 42.8886 78.386C42.6366 78.19 42.4219 78.092 42.2446 78.092C42.0299 78.092 41.8106 78.1947 41.5866 78.4C41.3626 78.6053 41.1573 78.8807 40.9706 79.226L40.9566 83.02C40.9566 83.2813 41.0313 83.454 41.1806 83.538C41.3299 83.6127 41.5399 83.65 41.8106 83.65H41.9646C42.0393 83.65 42.0766 83.7107 42.0766 83.832C42.0766 83.944 42.0393 84 41.9646 84H38.5626C38.4973 84 38.4646 83.944 38.4646 83.832C38.4646 83.7107 38.4973 83.65 38.5626 83.65H38.7306C39.0013 83.65 39.2066 83.6127 39.3466 83.538C39.4959 83.454 39.5706 83.2813 39.5706 83.02L39.5426 78.694C39.5426 78.4047 39.4679 78.218 39.3186 78.134C39.1786 78.05 38.9359 77.994 38.5906 77.966C38.5066 77.9567 38.4646 77.882 38.4646 77.742C38.4646 77.6767 38.4879 77.6347 38.5346 77.616C38.6466 77.5787 39.4586 77.4013 40.9706 77.084V78.582C41.2693 78.1433 41.6099 77.784 41.9926 77.504C42.3753 77.224 42.7533 77.084 43.1266 77.084ZM45.059 81.984L45.045 81.914C45.045 81.8487 45.0824 81.802 45.157 81.774C45.1757 81.7647 45.2037 81.76 45.241 81.76C45.3064 81.76 45.3577 81.7927 45.395 81.858C46.2257 83.118 47.2244 83.748 48.391 83.748C48.811 83.748 49.1377 83.6407 49.371 83.426C49.6044 83.202 49.721 82.922 49.721 82.586C49.721 82.3807 49.6557 82.194 49.525 82.026C49.4037 81.8487 49.2264 81.7087 48.993 81.606C48.7037 81.4753 48.2324 81.312 47.579 81.116C47.215 81.0227 46.8977 80.92 46.627 80.808C46.2164 80.6213 45.899 80.3833 45.675 80.094C45.451 79.7953 45.339 79.4547 45.339 79.072C45.339 78.792 45.4137 78.498 45.563 78.19C45.7124 77.882 45.9504 77.6253 46.277 77.42C46.613 77.2053 47.0284 77.098 47.523 77.098C47.775 77.098 48.0037 77.1213 48.209 77.168C48.4144 77.2053 48.643 77.2613 48.895 77.336C49.091 77.4013 49.217 77.434 49.273 77.434C49.413 77.434 49.553 77.392 49.693 77.308C49.833 77.224 49.945 77.112 50.029 76.972L50.477 78.498L50.617 78.96C50.6264 78.988 50.631 79.0207 50.631 79.058C50.631 79.114 50.5937 79.1607 50.519 79.198C50.5004 79.2073 50.4724 79.212 50.435 79.212C50.379 79.212 50.3277 79.1887 50.281 79.142C49.9637 78.6847 49.5437 78.302 49.021 77.994C48.4984 77.6767 47.9897 77.518 47.495 77.518C47.075 77.518 46.767 77.63 46.571 77.854C46.375 78.0687 46.277 78.2927 46.277 78.526C46.277 78.7127 46.3424 78.876 46.473 79.016C46.6037 79.156 46.8137 79.296 47.103 79.436C47.2617 79.5107 47.6304 79.6413 48.209 79.828C48.8437 80.0147 49.3057 80.178 49.595 80.318C50.0057 80.514 50.323 80.766 50.547 81.074C50.771 81.3727 50.883 81.7227 50.883 82.124C50.883 82.7587 50.6497 83.2627 50.183 83.636C49.7257 84.0093 49.119 84.196 48.363 84.196C48.1204 84.196 47.8824 84.1727 47.649 84.126C47.425 84.0793 47.1497 84.0093 46.823 83.916C46.7577 83.8973 46.669 83.874 46.557 83.846C46.4544 83.818 46.3797 83.804 46.333 83.804C46.2024 83.804 46.081 83.8413 45.969 83.916C45.8664 83.9813 45.7544 84.0887 45.633 84.238L45.059 81.984ZM54.6054 84.196C54.0174 84.196 53.5694 84.0373 53.2614 83.72C52.9627 83.3933 52.8087 82.9173 52.7994 82.292V77.728H51.6094V77.224C52.2254 77.0747 52.7201 76.7947 53.0934 76.384C53.4761 75.9733 53.7514 75.306 53.9194 74.382H54.2134V77.224H56.0054V77.728H54.1994V81.032C54.1994 81.7133 54.2041 82.1053 54.2134 82.208C54.2507 83.0293 54.5634 83.44 55.1514 83.44C55.3567 83.44 55.5294 83.4073 55.6694 83.342C55.8094 83.2673 55.9587 83.1413 56.1174 82.964C56.1641 82.908 56.2061 82.88 56.2434 82.88C56.2901 82.88 56.3321 82.9033 56.3694 82.95C56.4161 82.9873 56.4394 83.0293 56.4394 83.076C56.4394 83.1133 56.4301 83.1413 56.4114 83.16C55.9541 83.8507 55.3521 84.196 54.6054 84.196ZM64.186 82.796C64.214 82.796 64.2373 82.8053 64.256 82.824C64.284 82.8427 64.298 82.8707 64.298 82.908L64.284 82.978C64.1533 83.3513 63.9387 83.6453 63.64 83.86C63.3507 84.0653 63.052 84.168 62.744 84.168C62.1093 84.168 61.7033 83.846 61.526 83.202C61.1713 83.5287 60.77 83.776 60.322 83.944C59.8833 84.112 59.4447 84.196 59.006 84.196C58.4367 84.196 57.984 84.0653 57.648 83.804C57.3213 83.5333 57.158 83.1693 57.158 82.712C57.158 82.348 57.2467 82.0353 57.424 81.774C57.6107 81.5033 57.886 81.2653 58.25 81.06C58.4647 80.9387 58.7027 80.8453 58.964 80.78C59.2347 80.7053 59.6313 80.6073 60.154 80.486C60.8633 80.318 61.2927 80.2107 61.442 80.164V79.548C61.442 79.044 61.4233 78.68 61.386 78.456C61.3487 78.2227 61.2647 78.0267 61.134 77.868C60.938 77.6347 60.644 77.518 60.252 77.518C59.9627 77.518 59.7293 77.5973 59.552 77.756C59.3747 77.9147 59.2253 78.1993 59.104 78.61C59.0293 78.89 58.9173 79.1047 58.768 79.254C58.6187 79.394 58.446 79.464 58.25 79.464C58.054 79.464 57.8767 79.4033 57.718 79.282C57.5593 79.1513 57.48 78.9833 57.48 78.778C57.48 78.6007 57.5453 78.386 57.676 78.134C57.816 77.8727 58.0913 77.6347 58.502 77.42C58.922 77.2053 59.5053 77.098 60.252 77.098C60.7653 77.098 61.2133 77.1727 61.596 77.322C61.9787 77.462 62.268 77.6487 62.464 77.882C62.6227 78.078 62.7253 78.2833 62.772 78.498C62.828 78.7127 62.856 78.9787 62.856 79.296C62.856 79.884 62.8513 80.3507 62.842 80.696L62.828 82.376C62.828 83.02 63.0147 83.342 63.388 83.342C63.668 83.342 63.9013 83.1833 64.088 82.866C64.116 82.8193 64.1487 82.796 64.186 82.796ZM59.79 83.468C60.07 83.468 60.3547 83.4073 60.644 83.286C60.9427 83.1647 61.2087 82.9873 61.442 82.754C61.4233 82.5673 61.414 82.418 61.414 82.306L61.428 80.598C60.4853 80.822 59.79 81.088 59.342 81.396C58.894 81.704 58.67 82.0913 58.67 82.558C58.67 82.8193 58.7633 83.0387 58.95 83.216C59.146 83.384 59.426 83.468 59.79 83.468ZM72.8307 83.65C72.896 83.65 72.9287 83.7107 72.9287 83.832C72.9287 83.944 72.896 84 72.8307 84H69.4147C69.3493 84 69.3167 83.944 69.3167 83.832C69.3167 83.7107 69.3493 83.65 69.4147 83.65H69.5967C69.858 83.65 70.0587 83.608 70.1987 83.524C70.348 83.44 70.4227 83.2673 70.4227 83.006V80.486L70.4087 79.422C70.3713 78.3207 69.9467 77.77 69.1347 77.77C68.7987 77.77 68.4767 77.8727 68.1687 78.078C67.87 78.2833 67.6087 78.582 67.3847 78.974L67.3707 83.006C67.3707 83.2673 67.4453 83.44 67.5947 83.524C67.744 83.608 67.954 83.65 68.2247 83.65H68.3787C68.444 83.65 68.4767 83.7107 68.4767 83.832C68.4767 83.944 68.444 84 68.3787 84H64.9767C64.902 84 64.8647 83.944 64.8647 83.832C64.8647 83.7107 64.902 83.65 64.9767 83.65H65.1447C65.406 83.65 65.6113 83.608 65.7607 83.524C65.91 83.44 65.9847 83.2673 65.9847 83.006L65.9567 78.708C65.9567 78.4187 65.882 78.232 65.7327 78.148C65.5927 78.0547 65.35 77.994 65.0047 77.966C64.9207 77.9567 64.8787 77.882 64.8787 77.742C64.8787 77.686 64.902 77.6487 64.9487 77.63C65.0607 77.5927 65.8727 77.4153 67.3847 77.098V78.344C67.9727 77.5133 68.6867 77.098 69.5267 77.098C70.2733 77.098 70.838 77.308 71.2207 77.728C71.6033 78.1387 71.8087 78.638 71.8367 79.226C71.846 79.422 71.8507 79.8187 71.8507 80.416C71.8507 81.1627 71.8413 82.026 71.8227 83.006C71.8227 83.2673 71.8927 83.44 72.0327 83.524C72.182 83.608 72.392 83.65 72.6627 83.65H72.8307ZM81.3794 83.524C81.5008 83.524 81.5614 83.5893 81.5614 83.72C81.5614 83.7947 81.5288 83.8413 81.4634 83.86C81.3328 83.888 80.5254 83.9953 79.0414 84.182V83.356C78.7614 83.5987 78.4394 83.7993 78.0754 83.958C77.7114 84.1073 77.3241 84.182 76.9134 84.182C76.3814 84.182 75.8914 84.028 75.4434 83.72C74.9954 83.412 74.6408 82.978 74.3794 82.418C74.1181 81.858 73.9874 81.2233 73.9874 80.514C73.9874 79.898 74.1181 79.3287 74.3794 78.806C74.6408 78.2833 74.9908 77.868 75.4294 77.56C75.8681 77.252 76.3394 77.098 76.8434 77.098C77.6648 77.098 78.3881 77.392 79.0134 77.98L78.9994 75.222C78.9994 74.9233 78.9248 74.732 78.7754 74.648C78.6354 74.564 78.3974 74.508 78.0614 74.48C77.9681 74.48 77.9214 74.4053 77.9214 74.256C77.9214 74.1907 77.9494 74.1533 78.0054 74.144C78.2388 74.0787 78.6028 73.9947 79.0974 73.892C79.5921 73.78 80.0354 73.682 80.4274 73.598L80.4134 82.852C80.4134 83.2627 80.6421 83.482 81.0994 83.51C81.1648 83.5193 81.2581 83.524 81.3794 83.524ZM77.5854 83.608C77.8281 83.608 78.0801 83.5473 78.3414 83.426C78.6028 83.3047 78.8361 83.1367 79.0414 82.922L79.0134 78.512C78.7894 78.2693 78.5234 78.0733 78.2154 77.924C77.9168 77.7653 77.6274 77.686 77.3474 77.686C77.0114 77.686 76.7081 77.798 76.4374 78.022C76.1668 78.2367 75.9474 78.568 75.7794 79.016C75.6208 79.4547 75.5414 79.9913 75.5414 80.626C75.5414 81.214 75.6348 81.7367 75.8214 82.194C76.0174 82.642 76.2694 82.992 76.5774 83.244C76.8948 83.4867 77.2308 83.608 77.5854 83.608Z" fill="#20615B"/>
</svg>
