<svg width="175" height="88" viewBox="0 0 175 88" fill="none" xmlns="http://www.w3.org/2000/svg">
<path d="M3.71416 84C3.65416 84 3.62416 83.925 3.62416 83.775C3.62416 83.645 3.65416 83.58 3.71416 83.58H3.95416C4.27416 83.58 4.56416 83.465 4.82416 83.235C5.09416 83.005 5.22916 82.72 5.22916 82.38V74.46C5.22916 74.12 5.12916 73.88 4.92916 73.74C4.72916 73.6 4.40416 73.53 3.95416 73.53H3.71416C3.64416 73.53 3.60916 73.46 3.60916 73.32C3.60916 73.18 3.64416 73.11 3.71416 73.11H6.36916L12.3842 81.6V74.73C12.3842 74.51 12.3142 74.31 12.1742 74.13C12.0442 73.94 11.8742 73.795 11.6642 73.695C11.4642 73.585 11.2692 73.53 11.0792 73.53H10.8542C10.8042 73.53 10.7692 73.515 10.7492 73.485C10.7392 73.445 10.7342 73.39 10.7342 73.32C10.7342 73.18 10.7742 73.11 10.8542 73.11H14.4842C14.5342 73.11 14.5642 73.13 14.5742 73.17C14.5942 73.2 14.6042 73.25 14.6042 73.32C14.6042 73.46 14.5642 73.53 14.4842 73.53H14.2442C13.9242 73.53 13.6292 73.65 13.3592 73.89C13.0992 74.12 12.9692 74.4 12.9692 74.73V84H12.6092L5.82916 74.325V82.38C5.82916 82.72 5.96916 83.005 6.24916 83.235C6.52916 83.465 6.82416 83.58 7.13416 83.58H7.37416C7.44416 83.58 7.47916 83.645 7.47916 83.775C7.47916 83.925 7.44416 84 7.37416 84H3.71416ZM19.5721 84.21C18.8621 84.21 18.2371 84.025 17.6971 83.655C17.1671 83.275 16.7571 82.795 16.4671 82.215C16.1871 81.635 16.0471 81.045 16.0471 80.445C16.0471 79.805 16.1871 79.195 16.4671 78.615C16.7471 78.035 17.1521 77.565 17.6821 77.205C18.2221 76.845 18.8521 76.665 19.5721 76.665C20.2921 76.665 20.9221 76.845 21.4621 77.205C22.0021 77.565 22.4121 78.035 22.6921 78.615C22.9821 79.195 23.1271 79.805 23.1271 80.445C23.1271 81.045 22.9821 81.635 22.6921 82.215C22.4121 82.795 22.0021 83.275 21.4621 83.655C20.9221 84.025 20.2921 84.21 19.5721 84.21ZM19.5721 83.685C20.2821 83.685 20.8421 83.38 21.2521 82.77C21.6721 82.15 21.8821 81.375 21.8821 80.445C21.8821 79.465 21.6771 78.68 21.2671 78.09C20.8571 77.49 20.2921 77.19 19.5721 77.19C18.8621 77.19 18.3021 77.49 17.8921 78.09C17.4821 78.69 17.2771 79.475 17.2771 80.445C17.2771 81.045 17.3671 81.595 17.5471 82.095C17.7371 82.585 18.0021 82.975 18.3421 83.265C18.6921 83.545 19.1021 83.685 19.5721 83.685ZM26.9997 84.21C26.4497 84.21 26.0247 84.07 25.7247 83.79C25.4347 83.5 25.2897 83.06 25.2897 82.47V77.355H24.0747V76.8C24.4547 76.68 24.7597 76.52 24.9897 76.32C25.2297 76.12 25.4347 75.825 25.6047 75.435C25.7747 75.045 25.9197 74.505 26.0397 73.815H26.3697V76.8H28.3347V77.355H26.3547V81.03L26.3697 82.38C26.3797 82.72 26.4747 82.995 26.6547 83.205C26.8347 83.405 27.0647 83.505 27.3447 83.505C27.5747 83.505 27.7597 83.47 27.8997 83.4C28.0497 83.33 28.1947 83.215 28.3347 83.055C28.3847 82.995 28.4347 82.965 28.4847 82.965C28.5347 82.965 28.5797 82.99 28.6197 83.04C28.6697 83.09 28.6947 83.14 28.6947 83.19C28.6947 83.23 28.6847 83.265 28.6647 83.295C28.2647 83.905 27.7097 84.21 26.9997 84.21ZM40.8141 83.43C40.9441 83.43 41.0241 83.445 41.0541 83.475C41.0941 83.505 41.1141 83.55 41.1141 83.61C41.1141 83.71 41.0791 83.77 41.0091 83.79L38.8941 84.135L38.8791 82.785C38.2191 83.685 37.4241 84.135 36.4941 84.135C35.6341 84.135 35.0191 83.915 34.6491 83.475C34.2891 83.035 34.1091 82.495 34.1091 81.855L34.0941 78.36C34.0941 78.15 34.0441 77.995 33.9441 77.895C33.8541 77.795 33.7391 77.73 33.5991 77.7C33.4591 77.67 33.2491 77.64 32.9691 77.61C32.8991 77.6 32.8541 77.58 32.8341 77.55C32.8241 77.51 32.8191 77.465 32.8191 77.415C32.8191 77.305 32.8491 77.24 32.9091 77.22C33.0591 77.17 33.8091 76.98 35.1591 76.65V78.885C35.1591 80.505 35.1641 81.435 35.1741 81.675C35.1941 82.135 35.3191 82.54 35.5491 82.89C35.7891 83.23 36.1841 83.4 36.7341 83.4C37.1341 83.4 37.5241 83.29 37.9041 83.07C38.2841 82.85 38.6041 82.515 38.8641 82.065L38.8041 78.375C38.8041 78.165 38.7541 78.01 38.6541 77.91C38.5641 77.81 38.4541 77.745 38.3241 77.715C38.1941 77.685 37.9791 77.65 37.6791 77.61C37.5891 77.6 37.5441 77.52 37.5441 77.37C37.5441 77.3 37.5741 77.255 37.6341 77.235C37.7841 77.185 38.5291 76.995 39.8691 76.665L39.8991 82.725C39.8991 83.095 40.0991 83.32 40.4991 83.4C40.6191 83.42 40.7241 83.43 40.8141 83.43ZM50.6018 83.595C50.6818 83.595 50.7218 83.665 50.7218 83.805C50.7218 83.935 50.6818 84 50.6018 84H47.2418C47.1718 84 47.1368 83.935 47.1368 83.805C47.1368 83.665 47.1718 83.595 47.2418 83.595H47.4518C47.7418 83.595 47.9718 83.555 48.1418 83.475C48.3118 83.395 48.3968 83.225 48.3968 82.965L48.3818 80.175L48.3668 79.215C48.3668 78.685 48.2468 78.25 48.0068 77.91C47.7768 77.56 47.3818 77.385 46.8218 77.385C46.4118 77.385 46.0168 77.5 45.6368 77.73C45.2568 77.95 44.9368 78.29 44.6768 78.75L44.6618 82.965C44.6618 83.215 44.7518 83.385 44.9318 83.475C45.1118 83.555 45.3468 83.595 45.6368 83.595H45.8318C45.9018 83.595 45.9368 83.665 45.9368 83.805C45.9368 83.935 45.9018 84 45.8318 84H42.4718C42.3918 84 42.3518 83.935 42.3518 83.805C42.3518 83.665 42.3918 83.595 42.4718 83.595H42.6668C42.9568 83.595 43.1918 83.555 43.3718 83.475C43.5518 83.385 43.6418 83.215 43.6418 82.965L43.5968 78.375C43.5968 78.165 43.5468 78.01 43.4468 77.91C43.3568 77.81 43.2418 77.745 43.1018 77.715C42.9718 77.685 42.7568 77.65 42.4568 77.61C42.3968 77.6 42.3568 77.58 42.3368 77.55C42.3268 77.51 42.3218 77.45 42.3218 77.37C42.3218 77.3 42.3468 77.255 42.3968 77.235C42.5468 77.175 43.3068 76.985 44.6768 76.665V78C45.3368 77.11 46.1218 76.665 47.0318 76.665C47.8218 76.665 48.4168 76.885 48.8168 77.325C49.2268 77.755 49.4468 78.29 49.4768 78.93C49.4868 79.11 49.4918 79.47 49.4918 80.01C49.4918 80.83 49.4768 81.815 49.4468 82.965C49.4468 83.225 49.5318 83.395 49.7018 83.475C49.8818 83.555 50.1168 83.595 50.4068 83.595H50.6018ZM59.419 83.49C59.539 83.49 59.599 83.56 59.599 83.7C59.599 83.78 59.569 83.83 59.509 83.85C59.439 83.87 59.154 83.92 58.654 84C58.154 84.08 57.724 84.145 57.364 84.195V83.31C57.044 83.58 56.684 83.795 56.284 83.955C55.884 84.115 55.489 84.195 55.099 84.195C54.519 84.195 53.989 84.035 53.509 83.715C53.039 83.385 52.669 82.925 52.399 82.335C52.129 81.745 51.994 81.075 51.994 80.325C51.994 79.695 52.134 79.1 52.414 78.54C52.694 77.97 53.069 77.515 53.539 77.175C54.009 76.835 54.504 76.665 55.024 76.665C55.904 76.665 56.674 76.985 57.334 77.625L57.319 74.685C57.319 74.475 57.269 74.32 57.169 74.22C57.079 74.12 56.964 74.055 56.824 74.025C56.694 73.995 56.489 73.965 56.209 73.935C56.139 73.925 56.094 73.9 56.074 73.86C56.064 73.81 56.059 73.75 56.059 73.68C56.059 73.61 56.089 73.565 56.149 73.545C56.379 73.485 56.724 73.395 57.184 73.275C57.644 73.155 58.054 73.055 58.414 72.975L58.399 82.785C58.399 83.015 58.464 83.195 58.594 83.325C58.734 83.445 58.934 83.505 59.194 83.505L59.419 83.49ZM55.834 83.58C56.124 83.58 56.399 83.525 56.659 83.415C56.929 83.305 57.164 83.14 57.364 82.92L57.334 78.18C57.084 77.92 56.789 77.71 56.449 77.55C56.109 77.39 55.779 77.31 55.459 77.31C54.779 77.31 54.239 77.615 53.839 78.225C53.449 78.835 53.254 79.6 53.254 80.52C53.254 81.18 53.384 81.74 53.644 82.2C53.904 82.66 54.234 83.005 54.634 83.235C55.034 83.465 55.434 83.58 55.834 83.58ZM67.1612 82.095C67.2112 82.125 67.2362 82.165 67.2362 82.215C67.2362 82.255 67.2212 82.305 67.1912 82.365C66.9812 82.855 66.6312 83.285 66.1412 83.655C65.6612 84.025 65.0462 84.21 64.2962 84.21C63.6262 84.21 63.0112 84.065 62.4512 83.775C61.9012 83.475 61.4662 83.05 61.1462 82.5C60.8262 81.95 60.6662 81.31 60.6662 80.58C60.6662 79.94 60.7962 79.32 61.0562 78.72C61.3162 78.12 61.7012 77.625 62.2112 77.235C62.7312 76.845 63.3562 76.65 64.0862 76.65C64.9662 76.65 65.6812 76.935 66.2312 77.505C66.7812 78.075 67.1112 78.855 67.2212 79.845L61.9262 79.875C61.9062 80.115 61.8962 80.3 61.8962 80.43C61.8962 81.12 62.0162 81.695 62.2562 82.155C62.5062 82.605 62.8262 82.94 63.2162 83.16C63.6162 83.37 64.0512 83.475 64.5212 83.475C65.4812 83.475 66.2712 83.025 66.8912 82.125C66.9312 82.065 66.9762 82.035 67.0262 82.035C67.0562 82.035 67.1012 82.055 67.1612 82.095ZM63.9962 77.19C63.5162 77.19 63.0962 77.375 62.7362 77.745C62.3862 78.115 62.1412 78.63 62.0012 79.29L65.7812 79.26V79.11C65.7512 78.45 65.5662 77.965 65.2262 77.655C64.8962 77.345 64.4862 77.19 63.9962 77.19ZM73.4008 76.665C73.7008 76.665 73.9558 76.745 74.1658 76.905C74.3758 77.055 74.4808 77.25 74.4808 77.49C74.4808 77.66 74.4158 77.805 74.2858 77.925C74.1658 78.045 74.0108 78.105 73.8208 78.105C73.6708 78.105 73.4808 78.03 73.2508 77.88C73.1008 77.8 72.9808 77.74 72.8908 77.7C72.8008 77.66 72.7008 77.64 72.5908 77.64C72.3508 77.64 72.0908 77.74 71.8108 77.94C71.5308 78.14 71.2508 78.41 70.9708 78.75L70.9558 82.98C70.9558 83.23 71.0408 83.395 71.2108 83.475C71.3908 83.555 71.6308 83.595 71.9308 83.595H72.1258C72.2058 83.595 72.2458 83.665 72.2458 83.805C72.2458 83.935 72.2058 84 72.1258 84H68.7658C68.6958 84 68.6608 83.935 68.6608 83.805C68.6608 83.665 68.6958 83.595 68.7658 83.595H68.9608C69.2508 83.595 69.4808 83.555 69.6508 83.475C69.8308 83.395 69.9208 83.23 69.9208 82.98L69.8758 78.36C69.8758 78.15 69.8258 77.995 69.7258 77.895C69.6358 77.795 69.5258 77.735 69.3958 77.715C69.2758 77.685 69.0608 77.65 68.7508 77.61C68.6908 77.6 68.6508 77.575 68.6308 77.535C68.6208 77.495 68.6158 77.435 68.6158 77.355C68.6158 77.285 68.6408 77.24 68.6908 77.22C68.8408 77.16 69.6008 76.97 70.9708 76.65V78.12C71.3508 77.7 71.7508 77.355 72.1708 77.085C72.6008 76.805 73.0108 76.665 73.4008 76.665ZM75.4036 82.02L75.3886 81.945C75.3886 81.885 75.4286 81.835 75.5086 81.795C75.5286 81.785 75.5536 81.78 75.5836 81.78C75.6536 81.78 75.7136 81.82 75.7636 81.9C76.0036 82.21 76.2386 82.49 76.4686 82.74C76.6986 82.98 77.0236 83.21 77.4436 83.43C77.8736 83.64 78.3636 83.745 78.9136 83.745C79.3636 83.745 79.7286 83.62 80.0086 83.37C80.2986 83.11 80.4436 82.785 80.4436 82.395C80.4436 82.165 80.3786 81.955 80.2486 81.765C80.1186 81.575 79.9336 81.425 79.6936 81.315C79.4436 81.195 78.9386 81.025 78.1786 80.805C77.7886 80.715 77.4736 80.62 77.2336 80.52C76.2436 80.11 75.7486 79.49 75.7486 78.66C75.7486 78.44 75.8036 78.18 75.9136 77.88C76.0336 77.57 76.2536 77.29 76.5736 77.04C76.9036 76.79 77.3636 76.665 77.9536 76.665C78.2736 76.665 78.5486 76.705 78.7786 76.785C79.0186 76.855 79.1586 76.895 79.1986 76.905C79.3886 76.975 79.5136 77.01 79.5736 77.01C79.7236 77.01 79.8786 76.97 80.0386 76.89C80.1986 76.8 80.3186 76.685 80.3986 76.545L81.0136 78.51L81.0436 78.615C81.0436 78.665 81.0036 78.715 80.9236 78.765C80.9036 78.775 80.8736 78.78 80.8336 78.78C80.7736 78.78 80.7186 78.755 80.6686 78.705C80.3086 78.295 79.9136 77.935 79.4836 77.625C79.0536 77.305 78.5236 77.145 77.8936 77.145C77.5636 77.145 77.2886 77.21 77.0686 77.34C76.8586 77.47 76.7036 77.625 76.6036 77.805C76.5136 77.985 76.4686 78.155 76.4686 78.315C76.4686 78.535 76.5386 78.725 76.6786 78.885C76.8286 79.035 77.0686 79.19 77.3986 79.35C77.6086 79.46 78.0136 79.6 78.6136 79.77C79.2636 79.97 79.7386 80.135 80.0386 80.265C80.9186 80.665 81.3586 81.27 81.3586 82.08C81.3586 82.71 81.1236 83.225 80.6536 83.625C80.1836 84.015 79.5436 84.21 78.7336 84.21C78.3036 84.21 77.7636 84.105 77.1136 83.895C76.8736 83.825 76.7286 83.79 76.6786 83.79C76.5586 83.79 76.4436 83.825 76.3336 83.895C76.2336 83.965 76.1086 84.085 75.9586 84.255L75.4036 82.02ZM85.154 84.21C84.604 84.21 84.179 84.07 83.879 83.79C83.589 83.5 83.444 83.06 83.444 82.47V77.355H82.229V76.8C82.609 76.68 82.914 76.52 83.144 76.32C83.384 76.12 83.589 75.825 83.759 75.435C83.929 75.045 84.074 74.505 84.194 73.815H84.524V76.8H86.489V77.355H84.509V81.03L84.524 82.38C84.534 82.72 84.629 82.995 84.809 83.205C84.989 83.405 85.219 83.505 85.499 83.505C85.729 83.505 85.914 83.47 86.054 83.4C86.204 83.33 86.349 83.215 86.489 83.055C86.539 82.995 86.589 82.965 86.639 82.965C86.689 82.965 86.734 82.99 86.774 83.04C86.824 83.09 86.849 83.14 86.849 83.19C86.849 83.23 86.839 83.265 86.819 83.295C86.419 83.905 85.864 84.21 85.154 84.21ZM94.9362 82.8C95.0162 82.8 95.0562 82.835 95.0562 82.905L95.0412 82.995C94.8912 83.425 94.6662 83.73 94.3662 83.91C94.0662 84.09 93.7812 84.18 93.5112 84.18C93.2112 84.18 92.9612 84.085 92.7612 83.895C92.5612 83.695 92.4212 83.435 92.3412 83.115C91.9812 83.475 91.5662 83.75 91.0962 83.94C90.6262 84.12 90.1562 84.21 89.6862 84.21C89.1062 84.21 88.6362 84.075 88.2762 83.805C87.9262 83.535 87.7512 83.165 87.7512 82.695C87.7512 82.325 87.8312 82.005 87.9912 81.735C88.1512 81.465 88.4112 81.225 88.7712 81.015C89.0012 80.885 89.2912 80.765 89.6412 80.655C89.9912 80.545 90.4712 80.41 91.0812 80.25L92.3112 79.905V79.26C92.3112 78.78 92.2862 78.425 92.2362 78.195C92.1862 77.965 92.0862 77.76 91.9362 77.58C91.7162 77.31 91.3412 77.175 90.8112 77.175C90.4412 77.175 90.1612 77.265 89.9712 77.445C89.7812 77.625 89.6212 77.9 89.4912 78.27C89.3212 78.75 89.0762 78.99 88.7562 78.99C88.5762 78.99 88.4112 78.935 88.2612 78.825C88.1212 78.705 88.0512 78.55 88.0512 78.36C88.0512 78.17 88.1162 77.95 88.2462 77.7C88.3862 77.44 88.6612 77.205 89.0712 76.995C89.4912 76.775 90.0862 76.665 90.8562 76.665C91.3062 76.665 91.7312 76.745 92.1312 76.905C92.5412 77.055 92.8312 77.245 93.0012 77.475C93.1512 77.685 93.2512 77.905 93.3012 78.135C93.3612 78.355 93.3912 78.62 93.3912 78.93C93.3912 79.4 93.3862 79.815 93.3762 80.175L93.3612 82.35C93.3612 82.76 93.4362 83.035 93.5862 83.175C93.7462 83.315 93.9012 83.385 94.0512 83.385C94.1812 83.385 94.3162 83.345 94.4562 83.265C94.6062 83.175 94.7312 83.045 94.8312 82.875C94.8612 82.825 94.8962 82.8 94.9362 82.8ZM90.2262 83.49C90.5762 83.49 90.9362 83.41 91.3062 83.25C91.6762 83.08 91.9962 82.84 92.2662 82.53V82.485L92.2962 80.46C91.5262 80.65 90.9062 80.83 90.4362 81C89.9762 81.16 89.6162 81.36 89.3562 81.6C89.0962 81.84 88.9662 82.135 88.9662 82.485C88.9662 82.765 89.0612 83.005 89.2512 83.205C89.4512 83.395 89.7762 83.49 90.2262 83.49ZM104.083 83.595C104.163 83.595 104.203 83.665 104.203 83.805C104.203 83.935 104.163 84 104.083 84H100.723C100.653 84 100.618 83.935 100.618 83.805C100.618 83.665 100.653 83.595 100.723 83.595H100.933C101.223 83.595 101.453 83.555 101.623 83.475C101.793 83.395 101.878 83.225 101.878 82.965L101.863 80.175L101.848 79.215C101.848 78.685 101.728 78.25 101.488 77.91C101.258 77.56 100.863 77.385 100.303 77.385C99.8933 77.385 99.4983 77.5 99.1183 77.73C98.7383 77.95 98.4183 78.29 98.1583 78.75L98.1433 82.965C98.1433 83.215 98.2333 83.385 98.4133 83.475C98.5933 83.555 98.8283 83.595 99.1183 83.595H99.3133C99.3833 83.595 99.4183 83.665 99.4183 83.805C99.4183 83.935 99.3833 84 99.3133 84H95.9533C95.8733 84 95.8333 83.935 95.8333 83.805C95.8333 83.665 95.8733 83.595 95.9533 83.595H96.1483C96.4383 83.595 96.6733 83.555 96.8533 83.475C97.0333 83.385 97.1233 83.215 97.1233 82.965L97.0783 78.375C97.0783 78.165 97.0283 78.01 96.9283 77.91C96.8383 77.81 96.7233 77.745 96.5833 77.715C96.4533 77.685 96.2383 77.65 95.9383 77.61C95.8783 77.6 95.8383 77.58 95.8183 77.55C95.8083 77.51 95.8033 77.45 95.8033 77.37C95.8033 77.3 95.8283 77.255 95.8783 77.235C96.0283 77.175 96.7883 76.985 98.1583 76.665V78C98.8183 77.11 99.6033 76.665 100.513 76.665C101.303 76.665 101.898 76.885 102.298 77.325C102.708 77.755 102.928 78.29 102.958 78.93C102.968 79.11 102.973 79.47 102.973 80.01C102.973 80.83 102.958 81.815 102.928 82.965C102.928 83.225 103.013 83.395 103.183 83.475C103.363 83.555 103.598 83.595 103.888 83.595H104.083ZM112.9 83.49C113.02 83.49 113.08 83.56 113.08 83.7C113.08 83.78 113.05 83.83 112.99 83.85C112.92 83.87 112.635 83.92 112.135 84C111.635 84.08 111.205 84.145 110.845 84.195V83.31C110.525 83.58 110.165 83.795 109.765 83.955C109.365 84.115 108.97 84.195 108.58 84.195C108 84.195 107.47 84.035 106.99 83.715C106.52 83.385 106.15 82.925 105.88 82.335C105.61 81.745 105.475 81.075 105.475 80.325C105.475 79.695 105.615 79.1 105.895 78.54C106.175 77.97 106.55 77.515 107.02 77.175C107.49 76.835 107.985 76.665 108.505 76.665C109.385 76.665 110.155 76.985 110.815 77.625L110.8 74.685C110.8 74.475 110.75 74.32 110.65 74.22C110.56 74.12 110.445 74.055 110.305 74.025C110.175 73.995 109.97 73.965 109.69 73.935C109.62 73.925 109.575 73.9 109.555 73.86C109.545 73.81 109.54 73.75 109.54 73.68C109.54 73.61 109.57 73.565 109.63 73.545C109.86 73.485 110.205 73.395 110.665 73.275C111.125 73.155 111.535 73.055 111.895 72.975L111.88 82.785C111.88 83.015 111.945 83.195 112.075 83.325C112.215 83.445 112.415 83.505 112.675 83.505L112.9 83.49ZM109.315 83.58C109.605 83.58 109.88 83.525 110.14 83.415C110.41 83.305 110.645 83.14 110.845 82.92L110.815 78.18C110.565 77.92 110.27 77.71 109.93 77.55C109.59 77.39 109.26 77.31 108.94 77.31C108.26 77.31 107.72 77.615 107.32 78.225C106.93 78.835 106.735 79.6 106.735 80.52C106.735 81.18 106.865 81.74 107.125 82.2C107.385 82.66 107.715 83.005 108.115 83.235C108.515 83.465 108.915 83.58 109.315 83.58Z" fill="#C02739"/>
<path d="M115.228 84.24C115.008 84.24 114.818 84.16 114.658 84C114.498 83.84 114.418 83.65 114.418 83.43C114.418 83.2 114.498 83.01 114.658 82.86C114.818 82.7 115.008 82.62 115.228 82.62C115.458 82.62 115.653 82.7 115.813 82.86C115.973 83.02 116.053 83.21 116.053 83.43C116.053 83.65 115.973 83.84 115.813 84C115.653 84.16 115.458 84.24 115.228 84.24Z" fill="black"/>
<path d="M23.76 38.322C20.772 41.13 17.496 43.704 13.932 46.044C10.404 48.384 6.732 50.364 2.916 51.984L2.592 51.444C7.776 47.988 12.528 43.794 16.848 38.862C21.204 33.894 24.336 29.052 26.244 24.336H12.15C9.594 24.372 6.894 24.624 4.05 25.092L2.592 22.338C4.572 22.554 6.966 22.698 9.774 22.77H40.5L42.282 20.286C42.426 20.07 42.678 19.728 43.038 19.26C43.398 18.756 43.686 18.396 43.902 18.18C44.118 17.928 44.298 17.802 44.442 17.802C44.658 17.802 45.306 18.234 46.386 19.098C47.502 19.926 48.546 20.808 49.518 21.744C50.49 22.644 50.976 23.22 50.976 23.472C50.94 23.76 50.778 23.976 50.49 24.12C50.238 24.264 49.914 24.336 49.518 24.336H34.722C33.138 27.216 31.338 29.898 29.322 32.382L31.59 33.246C31.482 33.786 30.96 34.128 30.024 34.272V53.334C30.096 57.798 30.24 62.028 30.456 66.024C30.168 66.384 29.43 66.762 28.242 67.158C27.09 67.554 25.992 67.752 24.948 67.752C24.372 67.752 23.922 67.644 23.598 67.428C23.31 67.212 23.166 66.96 23.166 66.672C23.31 64.548 23.436 62.496 23.544 60.516C23.652 58.5 23.724 55.872 23.76 52.632V38.322ZM31.752 35.514C36.036 36.234 39.564 37.296 42.336 38.7C45.108 40.068 47.106 41.544 48.33 43.128C49.59 44.712 50.22 46.206 50.22 47.61C50.22 48.546 49.95 49.302 49.41 49.878C48.906 50.454 48.222 50.742 47.358 50.742C46.71 50.742 46.08 50.598 45.468 50.31C44.136 47.97 42.12 45.468 39.42 42.804C36.756 40.14 34.074 37.854 31.374 35.946L31.752 35.514ZM86.724 47.34C86.004 51.768 84.42 55.71 81.972 59.166C79.56 62.586 75.798 65.448 70.686 67.752L70.2 67.266C73.332 64.782 75.726 62.064 77.382 59.112C79.038 56.124 80.136 52.992 80.676 49.716C81.252 46.44 81.54 42.678 81.54 38.43V28.494C81.54 24.426 81.324 21.042 80.892 18.342L88.128 21.096H96.552L97.74 19.476C97.848 19.332 98.028 19.116 98.28 18.828C98.532 18.504 98.73 18.27 98.874 18.126C99.054 17.946 99.216 17.856 99.36 17.856C99.576 17.856 100.152 18.198 101.088 18.882C102.024 19.566 102.906 20.286 103.734 21.042C104.562 21.798 104.976 22.302 104.976 22.554C104.796 22.806 104.508 23.04 104.112 23.256C103.752 23.436 103.32 23.562 102.816 23.634V60.354C102.816 61.938 102.618 63.216 102.222 64.188C101.862 65.16 101.088 65.934 99.9 66.51C98.748 67.122 97.02 67.536 94.716 67.752C94.536 65.664 94.05 64.224 93.258 63.432C92.718 62.928 92.034 62.496 91.206 62.136C90.378 61.776 89.262 61.488 87.858 61.272V60.516C92.322 60.768 94.968 60.894 95.796 60.894C96.3 60.894 96.642 60.804 96.822 60.624C97.002 60.444 97.092 60.138 97.092 59.706V47.34H86.724ZM71.82 20.556C71.964 20.376 72.162 20.142 72.414 19.854C72.666 19.53 72.864 19.296 73.008 19.152C73.188 19.008 73.35 18.936 73.494 18.936C73.71 18.936 74.268 19.278 75.168 19.962C76.068 20.61 76.914 21.312 77.706 22.068C78.498 22.788 78.894 23.274 78.894 23.526C78.462 24.066 77.742 24.444 76.734 24.66V40.266C76.806 44.73 76.95 48.96 77.166 52.956C76.878 53.388 76.176 53.874 75.06 54.414C73.944 54.954 72.918 55.224 71.982 55.224C71.226 55.224 70.848 54.864 70.848 54.144C70.848 54.072 70.92 53.406 71.064 52.146V50.58H64.476V52.416C64.512 52.812 64.53 53.298 64.53 53.874L64.692 55.71C64.548 56.142 64.008 56.628 63.072 57.168C62.172 57.672 61.092 57.924 59.832 57.924C59.364 57.924 58.986 57.816 58.698 57.6C58.41 57.384 58.266 57.132 58.266 56.844C58.41 54.72 58.536 52.668 58.644 50.688C58.752 48.672 58.824 46.044 58.86 42.804V30.384C58.86 25.848 58.626 22.158 58.158 19.314L65.124 22.122H70.524L71.82 20.556ZM97.092 33.354V22.662H87.264V33.354H97.092ZM71.064 35.46V23.688H64.476V35.46H71.064ZM87.264 38.376C87.264 41.04 87.138 43.506 86.886 45.774H97.092V34.92H87.264V38.376ZM64.476 37.026V49.014H71.064V37.026H64.476ZM148.392 26.55C148.608 26.298 148.824 26.028 149.04 25.74C149.292 25.452 149.526 25.2 149.742 24.984C149.958 24.768 150.138 24.66 150.282 24.66C150.498 24.66 151.128 25.056 152.172 25.848C153.216 26.64 154.188 27.468 155.088 28.332C156.024 29.16 156.492 29.7 156.492 29.952C155.988 30.6 155.178 31.05 154.062 31.302V52.038C154.134 56.502 154.278 60.732 154.494 64.728C154.206 65.196 153.414 65.736 152.118 66.348C150.858 66.996 149.67 67.32 148.554 67.32C147.726 67.32 147.312 66.96 147.312 66.24C147.312 66.168 147.384 65.466 147.528 64.134V62.514H122.58V65.16C122.58 65.448 122.31 65.772 121.77 66.132C121.266 66.528 120.582 66.87 119.718 67.158C118.89 67.446 118.044 67.59 117.18 67.59C116.676 67.59 116.262 67.482 115.938 67.266C115.65 67.05 115.506 66.798 115.506 66.51C115.65 64.386 115.776 62.334 115.884 60.354C115.992 58.338 116.064 55.71 116.1 52.47V36.324C116.1 31.788 115.866 28.098 115.398 25.254L123.066 28.44H128.736C128.808 28.008 128.88 27.72 128.952 27.576C129.348 25.74 129.654 23.796 129.87 21.744C130.086 19.692 130.158 17.946 130.086 16.506L139.806 19.098C139.59 19.854 138.942 20.232 137.862 20.232C136.278 22.14 134.928 23.706 133.812 24.93C132.732 26.154 131.598 27.324 130.41 28.44H146.934L148.392 26.55ZM147.528 44.424V29.898H122.58V44.424H147.528ZM122.58 45.99V60.948H147.528V45.99H122.58Z" fill="#C02739"/>
</svg>
