<svg width="271" height="87" viewBox="0 0 271 87" fill="none" xmlns="http://www.w3.org/2000/svg">
<path d="M21.222 34.488C22.59 32.616 23.868 30.402 25.056 27.846C25.848 26.19 26.55 24.264 27.162 22.068C27.81 19.872 28.188 18.036 28.296 16.56C31.14 17.604 33.102 18.396 34.182 18.936C35.298 19.476 35.856 19.872 35.856 20.124C35.856 20.232 35.694 20.358 35.37 20.502L34.344 20.88C33.696 22.176 32.994 23.418 32.238 24.606H41.85L43.308 22.392C43.452 22.176 43.668 21.852 43.956 21.42C44.244 20.988 44.478 20.682 44.658 20.502C44.838 20.286 45 20.178 45.144 20.178C45.36 20.178 45.918 20.556 46.818 21.312C47.754 22.032 48.636 22.806 49.464 23.634C50.292 24.462 50.706 25.002 50.706 25.254C50.598 25.83 50.13 26.118 49.302 26.118H45.576C44.244 28.998 42.318 31.662 39.798 34.11C43.11 35.298 47.088 36.144 51.732 36.648L51.678 37.242C50.526 37.71 49.662 38.412 49.086 39.348C48.51 40.248 48.132 41.436 47.952 42.912C43.092 41.76 39.06 39.888 35.856 37.296C32.004 39.996 27.198 42.102 21.438 43.614L21.168 42.966C26.1 40.842 30.132 38.106 33.264 34.758C31.788 33.138 30.42 31.122 29.16 28.71C27 31.23 24.57 33.318 21.87 34.974L21.222 34.488ZM11.178 33.03C12.978 34.182 13.878 34.992 13.878 35.46C13.878 35.676 13.716 35.838 13.392 35.946L12.582 36.324V53.28C12.654 57.744 12.798 61.974 13.014 65.97C12.762 66.366 12.114 66.762 11.07 67.158C10.062 67.59 9.072 67.806 8.1 67.806C7.596 67.806 7.2 67.698 6.912 67.482C6.624 67.266 6.48 67.014 6.48 66.726C6.624 64.602 6.75 62.55 6.858 60.57C6.966 58.554 7.038 55.926 7.074 52.686V40.212C5.67 42.264 4.248 44.046 2.808 45.558L2.106 45.126C4.266 40.59 6.156 35.046 7.776 28.494C8.208 26.73 8.586 24.696 8.91 22.392C9.234 20.052 9.378 18.162 9.342 16.722C12.33 17.658 14.4 18.378 15.552 18.882C16.74 19.35 17.334 19.71 17.334 19.962C17.334 20.07 17.172 20.196 16.848 20.34L15.822 20.772C14.418 25.524 12.87 29.61 11.178 33.03ZM39.096 50.202C40.536 52.218 42.408 54.018 44.712 55.602C47.052 57.15 49.482 58.356 52.002 59.22L51.894 59.76C49.626 60.372 48.114 62.262 47.358 65.43C43.218 62.262 40.122 57.348 38.07 50.688V55.872C38.178 60.228 38.304 63.576 38.448 65.916C38.232 66.312 37.566 66.726 36.45 67.158C35.37 67.59 34.308 67.806 33.264 67.806C32.76 67.806 32.382 67.698 32.13 67.482C31.914 67.266 31.806 67.014 31.806 66.726C31.986 65.106 32.112 62.946 32.184 60.246V56.466C28.692 60.174 24.084 63.234 18.36 65.646L17.874 64.944C20.358 63.144 22.572 60.966 24.516 58.41C26.496 55.818 28.08 53.082 29.268 50.202H26.784C25.344 50.238 23.868 50.49 22.356 50.958L21.114 48.582C21.186 51.03 21.312 54.162 21.492 57.978C21.276 58.41 20.682 58.842 19.71 59.274C18.738 59.706 17.784 59.922 16.848 59.922C16.38 59.922 16.02 59.814 15.768 59.598C15.516 59.382 15.39 59.13 15.39 58.842C15.642 55.638 15.804 52.128 15.876 48.312V35.838C15.876 31.302 15.642 27.612 15.174 24.768C17.874 25.416 19.728 25.92 20.736 26.28C21.744 26.64 22.248 26.946 22.248 27.198C22.248 27.342 22.122 27.504 21.87 27.684L21.06 28.224V45.288L21.114 48.258C23.058 48.474 25.398 48.618 28.134 48.69H32.184C32.184 45.666 32.022 43.11 31.698 41.022C36.774 42.138 39.312 42.948 39.312 43.452C39.312 43.56 39.186 43.704 38.934 43.884L38.07 44.424V48.69H42.66L44.064 46.638C44.208 46.422 44.424 46.116 44.712 45.72C45 45.324 45.234 45.036 45.414 44.856C45.594 44.64 45.756 44.532 45.9 44.532C46.116 44.532 46.656 44.892 47.52 45.612C48.384 46.296 49.194 47.034 49.95 47.826C50.742 48.582 51.138 49.086 51.138 49.338C51.03 49.914 50.562 50.202 49.734 50.202H39.096ZM31.266 26.118L30.078 27.63C31.482 29.358 33.282 30.852 35.478 32.112C36.954 30.06 38.034 28.062 38.718 26.118H31.266ZM99.576 27.306C99.72 27.126 99.918 26.91 100.17 26.658C100.422 26.37 100.62 26.154 100.764 26.01C100.944 25.866 101.106 25.794 101.25 25.794C101.466 25.794 101.97 26.154 102.762 26.874C103.59 27.594 104.364 28.35 105.084 29.142C105.804 29.934 106.164 30.456 106.164 30.708C105.948 30.924 105.678 31.068 105.354 31.14C105.066 31.212 104.634 31.284 104.058 31.356C103.158 32.796 102.024 34.398 100.656 36.162C99.324 37.926 98.1 39.366 96.984 40.482L96.39 40.158C96.786 38.79 97.2 37.17 97.632 35.298C98.064 33.426 98.406 31.752 98.658 30.276H94.23C94.59 38.196 95.634 44.586 97.362 49.446C99.126 54.27 102.006 58.032 106.002 60.732L105.948 61.326C104.58 61.686 103.464 62.424 102.6 63.54C101.772 64.656 101.232 66.096 100.98 67.86C98.748 65.412 97.074 61.884 95.958 57.276C94.878 52.668 94.122 46.98 93.69 40.212C93.366 44.28 92.7 47.934 91.692 51.174C90.684 54.378 89.064 57.402 86.832 60.246C84.636 63.054 81.648 65.574 77.868 67.806L77.22 66.996C80.676 63.9 83.214 60.498 84.834 56.79C86.49 53.082 87.516 49.32 87.912 45.504C88.344 41.688 88.578 36.828 88.614 30.924C86.526 34.74 83.952 37.926 80.892 40.482L80.298 40.05C81.99 36.954 83.52 33.12 84.888 28.548C85.392 26.784 85.806 24.768 86.13 22.5C86.454 20.196 86.598 18.288 86.562 16.776C89.478 17.64 91.494 18.306 92.61 18.774C93.762 19.206 94.338 19.548 94.338 19.8C94.338 19.908 94.176 20.034 93.852 20.178L92.88 20.61C92.052 23.454 90.99 26.172 89.694 28.764H98.334L99.576 27.306ZM75.654 29.898C75.798 29.718 75.978 29.466 76.194 29.142C76.446 28.782 76.644 28.53 76.788 28.386C76.968 28.206 77.13 28.116 77.274 28.116C77.49 28.116 77.994 28.422 78.786 29.034C79.578 29.61 80.316 30.24 81 30.924C81.72 31.608 82.08 32.076 82.08 32.328C81.936 32.904 81.468 33.192 80.676 33.192H67.446C64.89 33.228 62.19 33.48 59.346 33.948L57.942 31.248C59.598 31.464 61.614 31.608 63.99 31.68H66.852V25.362H63.666C61.83 25.398 59.922 25.65 57.942 26.118L56.592 23.418C58.5 23.634 60.804 23.778 63.504 23.85H66.852C66.852 20.934 66.708 18.612 66.42 16.884C69.264 17.496 71.226 18 72.306 18.396C73.386 18.756 73.926 19.08 73.926 19.368C73.926 19.512 73.782 19.674 73.494 19.854L72.576 20.448V23.85H75.168L76.464 21.906C76.608 21.69 76.806 21.402 77.058 21.042C77.346 20.646 77.562 20.358 77.706 20.178C77.886 19.998 78.048 19.908 78.192 19.908C78.408 19.908 78.948 20.25 79.812 20.934C80.676 21.582 81.486 22.284 82.242 23.04C82.998 23.76 83.376 24.246 83.376 24.498C83.232 25.074 82.764 25.362 81.972 25.362H72.576V31.68H74.466L75.654 29.898ZM73.818 36.756C73.998 36.504 74.196 36.216 74.412 35.892C74.664 35.532 74.862 35.28 75.006 35.136C75.186 34.956 75.348 34.866 75.492 34.866C75.708 34.866 76.23 35.19 77.058 35.838C77.886 36.486 78.66 37.17 79.38 37.89C80.1 38.61 80.46 39.096 80.46 39.348C80.352 39.924 79.902 40.212 79.11 40.212H68.58C66.024 40.248 63.324 40.5 60.48 40.968L59.13 38.214C61.11 38.43 63.504 38.574 66.312 38.646H72.576L73.818 36.756ZM76.626 44.208C76.806 43.956 77.004 43.686 77.22 43.398C77.436 43.074 77.652 42.804 77.868 42.588C78.084 42.336 78.264 42.21 78.408 42.21C78.624 42.21 79.182 42.552 80.082 43.236C80.982 43.92 81.81 44.64 82.566 45.396C83.358 46.116 83.754 46.602 83.754 46.854C83.61 47.43 83.142 47.718 82.35 47.718H72.576V60.84C72.576 62.316 72.414 63.522 72.09 64.458C71.766 65.394 71.118 66.15 70.146 66.726C69.174 67.338 67.734 67.734 65.826 67.914C65.754 66.906 65.664 66.078 65.556 65.43C65.448 64.818 65.268 64.314 65.016 63.918C64.764 63.486 64.368 63.126 63.828 62.838C63.324 62.55 62.604 62.316 61.668 62.136V61.434C64.008 61.578 65.448 61.65 65.988 61.65C66.312 61.65 66.528 61.578 66.636 61.434C66.78 61.29 66.852 61.074 66.852 60.786V52.632C66.492 53.172 65.898 53.442 65.07 53.442C64.062 55.53 62.874 57.438 61.506 59.166C60.138 60.858 58.662 62.262 57.078 63.378L56.43 62.892C56.682 62.424 56.97 61.776 57.294 60.948C57.978 59.364 58.518 57.492 58.914 55.332C59.346 53.172 59.562 51.318 59.562 49.77L66.852 52.2V47.718H63.558C61.722 47.754 59.778 48.006 57.726 48.474L56.376 45.72C58.356 45.936 60.75 46.08 63.558 46.152H75.222L76.626 44.208ZM74.304 50.472C76.968 51.3 78.912 52.362 80.136 53.658C81.36 54.918 81.972 56.196 81.972 57.492C81.972 58.392 81.684 59.166 81.108 59.814C80.568 60.462 79.884 60.786 79.056 60.786C78.192 60.786 77.346 60.39 76.518 59.598C76.554 58.194 76.302 56.7 75.762 55.116C75.258 53.532 74.61 52.092 73.818 50.796L74.304 50.472Z" fill="#C02739"/>
<path d="M120.366 47.88C117.882 52.092 114.714 55.836 110.862 59.112L110.214 58.464C112.23 55.692 113.958 52.38 115.398 48.528C116.874 44.64 118.008 40.626 118.8 36.486H116.262C114.822 36.522 113.31 36.774 111.726 37.242L110.376 34.542C112.248 34.758 114.516 34.902 117.18 34.974H120.366V25.902C117.45 26.442 114.354 26.82 111.078 27.036L110.916 26.334C114.012 25.254 117.27 23.868 120.69 22.176C124.146 20.448 126.828 18.864 128.736 17.424L135.324 23.31C135 23.634 134.532 23.796 133.92 23.796C133.416 23.796 132.732 23.652 131.868 23.364C130.608 23.76 128.754 24.246 126.306 24.822V34.974H127.872L129.168 32.868C129.312 32.616 129.51 32.292 129.762 31.896C130.014 31.5 130.212 31.212 130.356 31.032C130.536 30.816 130.698 30.708 130.842 30.708C131.058 30.708 131.58 31.068 132.408 31.788C133.236 32.508 134.01 33.264 134.73 34.056C135.486 34.848 135.864 35.37 135.864 35.622C135.72 36.198 135.252 36.486 134.46 36.486H126.306V40.536C129.222 41.4 131.364 42.534 132.732 43.938C134.1 45.306 134.784 46.674 134.784 48.042C134.784 48.906 134.532 49.626 134.028 50.202C133.524 50.778 132.894 51.066 132.138 51.066C131.346 51.066 130.572 50.742 129.816 50.094C129.636 48.834 129.222 47.466 128.574 45.99C127.926 44.514 127.17 43.128 126.306 41.832V53.064C126.378 57.528 126.522 61.758 126.738 65.754C126.45 66.186 125.82 66.636 124.848 67.104C123.876 67.572 122.742 67.806 121.446 67.806C120.942 67.806 120.546 67.698 120.258 67.482C119.97 67.266 119.826 67.014 119.826 66.726C119.97 64.89 120.078 63.09 120.15 61.326C120.258 59.526 120.33 57.258 120.366 54.522V47.88ZM142.236 61.704C142.272 62.1 142.29 62.46 142.29 62.784C142.326 63.108 142.362 63.342 142.398 63.486C142.326 64.062 141.768 64.62 140.724 65.16C139.716 65.736 138.582 66.024 137.322 66.024C136.818 66.024 136.422 65.916 136.134 65.7C135.846 65.484 135.702 65.232 135.702 64.944C135.846 62.82 135.972 60.768 136.08 58.788C136.188 56.772 136.26 54.144 136.296 50.904V33.786C136.296 29.25 136.062 25.56 135.594 22.716L142.506 25.74H150.66L152.01 24.066C152.19 23.886 152.406 23.634 152.658 23.31C152.946 22.986 153.162 22.752 153.306 22.608C153.486 22.428 153.648 22.338 153.792 22.338C154.008 22.338 154.584 22.698 155.52 23.418C156.456 24.138 157.338 24.894 158.166 25.686C158.994 26.442 159.408 26.946 159.408 27.198C158.94 27.774 158.238 28.17 157.302 28.386V50.472C157.374 54.936 157.518 59.166 157.734 63.162C157.446 63.594 156.69 64.044 155.466 64.512C154.278 65.016 153.18 65.268 152.172 65.268C151.38 65.268 150.984 64.908 150.984 64.188C150.984 64.116 151.056 63.45 151.2 62.19V60.624H142.236V61.704ZM142.236 27.306V59.058H151.2V27.306H142.236Z" fill="black"/>
<path d="M180.63 37.836C180.738 37.656 180.918 37.35 181.17 36.918C181.458 36.45 181.692 36.108 181.872 35.892C182.052 35.676 182.214 35.568 182.358 35.568C182.574 35.568 183.078 35.946 183.87 36.702C184.662 37.458 185.418 38.25 186.138 39.078C186.858 39.906 187.218 40.446 187.218 40.698C187.074 41.274 186.606 41.562 185.814 41.562H178.146C178.074 44.082 177.93 46.224 177.714 47.988C180.666 48.852 182.826 50.022 184.194 51.498C185.562 52.974 186.246 54.45 186.246 55.926C186.246 56.934 185.958 57.762 185.382 58.41C184.842 59.058 184.158 59.382 183.33 59.382C182.502 59.382 181.71 59.058 180.954 58.41C180.81 57.078 180.414 55.692 179.766 54.252C179.154 52.776 178.362 51.354 177.39 49.986C176.634 53.91 175.266 57.366 173.286 60.354C171.342 63.306 168.606 65.79 165.078 67.806L164.592 67.266C167.4 64.098 169.362 60.426 170.478 56.25C171.63 52.038 172.224 47.142 172.26 41.562H169.83C168.498 41.598 167.13 41.85 165.726 42.318L164.376 39.618C165.852 39.834 167.652 39.978 169.776 40.05H172.26V29.574H170.262C169.146 29.61 167.994 29.862 166.806 30.33L165.402 27.63C166.662 27.846 168.21 27.99 170.046 28.062H172.26C172.26 23.562 172.026 19.908 171.558 17.1C174.582 17.748 176.652 18.27 177.768 18.666C178.92 19.026 179.496 19.35 179.496 19.638C179.496 19.782 179.352 19.944 179.064 20.124L178.146 20.718V28.062H178.794L179.982 25.956C180.126 25.74 180.306 25.434 180.522 25.038C180.774 24.642 180.972 24.354 181.116 24.174C181.296 23.958 181.458 23.85 181.602 23.85C181.818 23.85 182.304 24.21 183.06 24.93C183.816 25.65 184.518 26.406 185.166 27.198C185.85 27.99 186.192 28.512 186.192 28.764C186.084 29.304 185.634 29.574 184.842 29.574H178.146V40.05H179.334L180.63 37.836ZM205.2 19.53C205.344 19.35 205.542 19.098 205.794 18.774C206.082 18.414 206.298 18.162 206.442 18.018C206.622 17.838 206.784 17.748 206.928 17.748C207.144 17.748 207.684 18.072 208.548 18.72C209.448 19.368 210.276 20.052 211.032 20.772C211.824 21.492 212.22 21.978 212.22 22.23C211.752 22.77 211.05 23.13 210.114 23.31V49.5C210.114 49.644 209.88 49.842 209.412 50.094C208.98 50.346 208.386 50.58 207.63 50.796C206.91 51.012 206.1 51.12 205.2 51.12H204.714V60.138C204.714 60.462 204.768 60.678 204.876 60.786C204.984 60.894 205.218 60.948 205.578 60.948H207.306C208.134 60.948 208.656 60.93 208.872 60.894C209.052 60.894 209.196 60.858 209.304 60.786C209.412 60.714 209.538 60.552 209.682 60.3C209.934 59.832 210.492 58.068 211.356 55.008C211.392 54.828 211.482 54.468 211.626 53.928H212.166L212.328 60.57C212.94 60.858 213.336 61.2 213.516 61.596C213.732 61.956 213.84 62.424 213.84 63C213.84 64.224 213.282 65.16 212.166 65.808C211.086 66.456 209.268 66.78 206.712 66.78H203.904C202.572 66.78 201.582 66.618 200.934 66.294C200.322 66.006 199.908 65.52 199.692 64.836C199.476 64.188 199.368 63.198 199.368 61.866V48.96H197.046C196.506 54.108 194.904 58.194 192.24 61.218C189.612 64.206 185.49 66.438 179.874 67.914L179.658 67.212C183.33 65.376 186.048 63.216 187.812 60.732C189.576 58.248 190.692 55.188 191.16 51.552C190.404 51.84 189.468 51.984 188.352 51.984H187.272V29.52C187.272 24.984 187.038 21.294 186.57 18.45L193.59 21.258H203.904L205.2 19.53ZM204.12 29.844V22.77H192.996V29.844H204.12ZM192.996 31.41V38.592H204.12V31.41H192.996ZM204.12 47.394V40.158H192.996V47.394H204.12ZM254.502 44.91C254.682 44.658 254.916 44.334 255.204 43.938C255.492 43.542 255.726 43.254 255.906 43.074C256.086 42.858 256.248 42.75 256.392 42.75C256.608 42.75 257.184 43.11 258.12 43.83C259.056 44.55 259.92 45.306 260.712 46.098C261.54 46.89 261.954 47.412 261.954 47.664C261.81 48.24 261.324 48.528 260.496 48.528H246.024V60.138C248.4 60.354 251.064 60.462 254.016 60.462C260.676 60.462 265.122 60.444 267.354 60.408V61.056C266.346 61.272 265.572 61.902 265.032 62.946C264.492 63.954 264.204 65.16 264.168 66.564H253.746C249.498 66.564 245.97 66.222 243.162 65.538C240.39 64.854 238.032 63.63 236.088 61.866C234.144 60.066 232.542 57.546 231.282 54.306C228.618 60.174 224.496 64.656 218.916 67.752L218.484 67.266C222.12 63.666 224.766 58.788 226.422 52.632C227.142 49.932 227.502 47.124 227.502 44.208C227.502 43.596 227.466 42.822 227.394 41.886C232.866 42.786 235.602 43.488 235.602 43.992C235.602 44.1 235.458 44.244 235.17 44.424L234.198 44.964C233.55 48.06 232.812 50.598 231.984 52.578C232.956 54.162 234.09 55.458 235.386 56.466C236.682 57.474 238.176 58.284 239.868 58.896V36.702H234.522C231.966 36.738 229.266 36.99 226.422 37.458L225.072 34.758C227.052 34.974 229.446 35.118 232.254 35.19H252.558L255.744 31.14C256.284 31.536 256.86 31.986 257.472 32.49C257.868 31.05 258.318 29.232 258.822 27.036H227.232C227.376 28.872 227.16 30.474 226.584 31.842C226.008 33.174 225.216 34.182 224.208 34.866C223.596 35.262 222.948 35.46 222.264 35.46C221.436 35.46 220.698 35.19 220.05 34.65C219.402 34.074 219.078 33.318 219.078 32.382C219.078 31.698 219.294 31.068 219.726 30.492C220.158 29.916 220.716 29.466 221.4 29.142C222.48 28.53 223.434 27.594 224.262 26.334C225.09 25.038 225.504 23.67 225.504 22.23H226.206C226.53 23.166 226.8 24.264 227.016 25.524H239.76C239.76 21.996 239.58 19.098 239.22 16.83C242.316 17.442 244.458 17.946 245.646 18.342C246.834 18.702 247.428 19.008 247.428 19.26C247.428 19.404 247.284 19.566 246.996 19.746L246.078 20.394V25.524H258.552L260.01 23.904C260.19 23.724 260.406 23.49 260.658 23.202C260.946 22.878 261.18 22.644 261.36 22.5C261.54 22.32 261.702 22.23 261.846 22.23C262.062 22.23 262.602 22.644 263.466 23.472C264.366 24.264 265.194 25.11 265.95 26.01C266.742 26.874 267.138 27.432 267.138 27.684C266.958 27.9 266.724 28.044 266.436 28.116C266.148 28.188 265.716 28.26 265.14 28.332C263.268 30.132 261.126 31.842 258.714 33.462C259.578 34.146 260.532 34.938 261.576 35.838C261.468 36.414 261 36.702 260.172 36.702H246.024V47.016H253.044L254.502 44.91Z" fill="#29C7AC"/>
<path d="M6.48 84C6.41 84 6.375 83.935 6.375 83.805C6.375 83.695 6.41 83.64 6.48 83.64H6.675C7.515 83.64 7.935 83.235 7.935 82.425V74.34C7.935 73.69 7.565 73.365 6.825 73.365C6.765 73.365 6.665 73.375 6.525 73.395C6.045 73.475 5.53 73.705 4.98 74.085C4.44 74.455 4.035 74.835 3.765 75.225C3.725 75.295 3.675 75.33 3.615 75.33C3.585 75.33 3.55 75.32 3.51 75.3C3.44 75.26 3.405 75.215 3.405 75.165L3.42 75.045L4.23 72.945H13.62L13.77 73.335C14.17 74.395 14.38 74.965 14.4 75.045C14.43 75.105 14.445 75.145 14.445 75.165C14.445 75.215 14.4 75.26 14.31 75.3C14.27 75.32 14.24 75.33 14.22 75.33C14.17 75.33 14.125 75.295 14.085 75.225C13.815 74.835 13.405 74.455 12.855 74.085C12.305 73.705 11.795 73.475 11.325 73.395C11.185 73.375 11.08 73.365 11.01 73.365C10.28 73.365 9.915 73.69 9.915 74.34V82.425C9.915 82.895 10.03 83.215 10.26 83.385C10.49 83.555 10.795 83.64 11.175 83.64H11.355C11.425 83.64 11.46 83.695 11.46 83.805C11.46 83.935 11.425 84 11.355 84H6.48ZM22.2027 82.08C22.2527 82.11 22.2777 82.16 22.2777 82.23L22.2627 82.335C22.0327 82.825 21.6627 83.26 21.1527 83.64C20.6527 84.01 20.0227 84.195 19.2627 84.195C18.5327 84.195 17.8727 84.03 17.2827 83.7C16.6927 83.37 16.2277 82.92 15.8877 82.35C15.5577 81.77 15.3927 81.14 15.3927 80.46C15.3927 79.84 15.5327 79.23 15.8127 78.63C16.1027 78.03 16.5277 77.535 17.0877 77.145C17.6477 76.755 18.3127 76.56 19.0827 76.56C19.6427 76.56 20.1577 76.69 20.6277 76.95C21.0977 77.21 21.4827 77.58 21.7827 78.06C22.0927 78.54 22.2827 79.11 22.3527 79.77L17.2827 79.8C17.2727 79.91 17.2677 80.085 17.2677 80.325C17.2677 81.205 17.4727 81.945 17.8827 82.545C18.2927 83.145 18.8827 83.445 19.6527 83.445C20.5927 83.445 21.3627 83.005 21.9627 82.125C21.9927 82.075 22.0377 82.05 22.0977 82.05C22.1077 82.05 22.1427 82.06 22.2027 82.08ZM19.0227 76.98C18.6727 76.98 18.3277 77.15 17.9877 77.49C17.6577 77.82 17.4377 78.415 17.3277 79.275L20.5077 79.245V78.99C20.4977 78.36 20.3477 77.87 20.0577 77.52C19.7777 77.16 19.4327 76.98 19.0227 76.98ZM28.6484 76.545C29.0484 76.545 29.3734 76.655 29.6234 76.875C29.8734 77.095 29.9984 77.35 29.9984 77.64C29.9984 77.87 29.9184 78.06 29.7584 78.21C29.6084 78.36 29.4184 78.435 29.1884 78.435C29.0384 78.435 28.9034 78.405 28.7834 78.345C28.6734 78.275 28.5384 78.175 28.3784 78.045C28.2384 77.935 28.1134 77.85 28.0034 77.79C27.8934 77.73 27.7784 77.7 27.6584 77.7C27.4184 77.7 27.1934 77.82 26.9834 78.06C26.7734 78.29 26.5784 78.6 26.3984 78.99V82.92C26.3984 83.22 26.4734 83.415 26.6234 83.505C26.7734 83.595 26.9884 83.64 27.2684 83.64H27.4484C27.5184 83.64 27.5534 83.7 27.5534 83.82C27.5534 83.94 27.5184 84 27.4484 84H23.6534C23.5834 84 23.5484 83.94 23.5484 83.82C23.5484 83.7 23.5834 83.64 23.6534 83.64H23.8034C24.0834 83.64 24.2984 83.595 24.4484 83.505C24.5984 83.415 24.6734 83.22 24.6734 82.92V78.285C24.6734 77.975 24.5984 77.77 24.4484 77.67C24.2984 77.57 24.0484 77.51 23.6984 77.49C23.6084 77.48 23.5634 77.4 23.5634 77.25C23.5634 77.19 23.5934 77.155 23.6534 77.145C23.7534 77.105 24.6684 76.91 26.3984 76.56V78.255C26.6884 77.735 27.0284 77.32 27.4184 77.01C27.8184 76.7 28.2284 76.545 28.6484 76.545ZM43.8857 83.64C43.9557 83.64 43.9907 83.7 43.9907 83.82C43.9907 83.94 43.9557 84 43.8857 84H40.0757C40.0057 84 39.9707 83.94 39.9707 83.82C39.9707 83.7 40.0057 83.64 40.0757 83.64H40.2557C40.5357 83.64 40.7507 83.595 40.9007 83.505C41.0507 83.415 41.1257 83.22 41.1257 82.92L41.1407 80.58C41.1407 79.96 41.1307 79.44 41.1107 79.02C41.0807 78.5 40.9707 78.085 40.7807 77.775C40.6007 77.465 40.2857 77.31 39.8357 77.31C39.5157 77.31 39.2057 77.415 38.9057 77.625C38.6157 77.835 38.3557 78.125 38.1257 78.495C38.1457 78.655 38.1557 78.78 38.1557 78.87C38.1657 79.09 38.1707 79.525 38.1707 80.175L38.1557 82.92C38.1557 83.22 38.2307 83.415 38.3807 83.505C38.5307 83.595 38.7457 83.64 39.0257 83.64H39.1907C39.2607 83.64 39.2957 83.7 39.2957 83.82C39.2957 83.94 39.2607 84 39.1907 84H35.3957C35.3257 84 35.2907 83.94 35.2907 83.82C35.2907 83.7 35.3257 83.64 35.3957 83.64H35.5757C35.8557 83.64 36.0707 83.595 36.2207 83.505C36.3707 83.415 36.4457 83.22 36.4457 82.92V80.61C36.4457 79.97 36.4357 79.44 36.4157 79.02C36.3957 78.5 36.2907 78.085 36.1007 77.775C35.9207 77.465 35.6007 77.31 35.1407 77.31C34.8007 77.31 34.4807 77.42 34.1807 77.64C33.8807 77.86 33.6157 78.17 33.3857 78.57V82.92C33.3857 83.22 33.4607 83.415 33.6107 83.505C33.7607 83.595 33.9757 83.64 34.2557 83.64H34.4357C34.5057 83.64 34.5407 83.7 34.5407 83.82C34.5407 83.94 34.5057 84 34.4357 84H30.6407C30.5707 84 30.5357 83.94 30.5357 83.82C30.5357 83.7 30.5707 83.64 30.6407 83.64H30.7907C31.0807 83.64 31.3007 83.595 31.4507 83.505C31.6007 83.415 31.6757 83.22 31.6757 82.92L31.6607 78.315C31.6507 77.995 31.5707 77.785 31.4207 77.685C31.2807 77.585 31.0357 77.525 30.6857 77.505C30.6357 77.495 30.6007 77.465 30.5807 77.415C30.5607 77.365 30.5507 77.315 30.5507 77.265C30.5507 77.195 30.5807 77.155 30.6407 77.145C30.7407 77.105 31.6557 76.91 33.3857 76.56V77.895C33.6657 77.485 34.0007 77.16 34.3907 76.92C34.7807 76.68 35.2107 76.56 35.6807 76.56C36.2807 76.56 36.7757 76.695 37.1657 76.965C37.5557 77.235 37.8307 77.59 37.9907 78.03C38.6307 77.05 39.4207 76.56 40.3607 76.56C40.9007 76.56 41.3557 76.67 41.7257 76.89C42.1057 77.11 42.3857 77.4 42.5657 77.76C42.7457 78.11 42.8407 78.48 42.8507 78.87C42.8607 79.09 42.8657 79.525 42.8657 80.175C42.8657 80.965 42.8557 81.88 42.8357 82.92C42.8357 83.22 42.9107 83.415 43.0607 83.505C43.2107 83.595 43.4257 83.64 43.7057 83.64H43.8857ZM45.1308 81.75L45.1158 81.675C45.1158 81.595 45.1558 81.54 45.2358 81.51C45.2558 81.5 45.2858 81.495 45.3258 81.495C45.3958 81.495 45.4508 81.53 45.4908 81.6C46.3808 83.01 47.4508 83.715 48.7008 83.715C49.1608 83.715 49.5058 83.605 49.7358 83.385C49.9758 83.165 50.0958 82.885 50.0958 82.545C50.0958 82.325 50.0258 82.12 49.8858 81.93C49.7458 81.74 49.5508 81.59 49.3008 81.48C49.0508 81.37 48.6008 81.22 47.9508 81.03C47.8908 81.01 47.7108 80.955 47.4108 80.865C47.1108 80.775 46.8758 80.685 46.7058 80.595C46.2958 80.395 45.9758 80.14 45.7458 79.83C45.5158 79.52 45.4008 79.155 45.4008 78.735C45.4008 78.385 45.4908 78.045 45.6708 77.715C45.8608 77.375 46.1358 77.1 46.4958 76.89C46.8558 76.67 47.2858 76.56 47.7858 76.56C48.0758 76.56 48.3308 76.585 48.5508 76.635C48.7808 76.675 49.0608 76.74 49.3908 76.83C49.6208 76.9 49.7608 76.935 49.8108 76.935C49.9608 76.935 50.1058 76.89 50.2458 76.8C50.3958 76.7 50.5108 76.575 50.5908 76.425L51.2508 78.645L51.2658 78.735C51.2658 78.795 51.2258 78.845 51.1458 78.885C51.1058 78.905 51.0658 78.915 51.0258 78.915C50.9658 78.915 50.9158 78.885 50.8758 78.825C50.4858 78.245 50.0008 77.8 49.4208 77.49C48.8408 77.18 48.3008 77.025 47.8008 77.025C47.3608 77.025 47.0408 77.135 46.8408 77.355C46.6508 77.575 46.5558 77.8 46.5558 78.03C46.5558 78.22 46.6208 78.39 46.7508 78.54C46.8908 78.69 47.1108 78.84 47.4108 78.99C47.6008 79.08 47.9708 79.21 48.5208 79.38C49.2508 79.61 49.7758 79.8 50.0958 79.95C50.5258 80.16 50.8658 80.43 51.1158 80.76C51.3758 81.09 51.5058 81.48 51.5058 81.93C51.5058 82.63 51.2508 83.185 50.7408 83.595C50.2408 83.995 49.5858 84.195 48.7758 84.195C48.4958 84.195 48.2308 84.17 47.9808 84.12C47.7308 84.07 47.4358 84 47.0958 83.91C46.7858 83.82 46.5908 83.775 46.5108 83.775C46.3708 83.775 46.2408 83.815 46.1208 83.895C46.0008 83.975 45.8758 84.09 45.7458 84.24L45.1308 81.75Z" fill="#C02739"/>
<path d="M68.4219 82.44C68.4719 82.44 68.5169 82.46 68.5569 82.5C68.6069 82.54 68.6319 82.58 68.6319 82.62C68.6319 82.65 68.6119 82.69 68.5719 82.74C67.8319 83.72 66.9169 84.21 65.8269 84.21C65.0469 84.21 64.3119 83.965 63.6219 83.475C62.7419 83.955 61.7069 84.195 60.5169 84.195C59.7369 84.195 59.0769 84.075 58.5369 83.835C58.0069 83.585 57.6069 83.255 57.3369 82.845C57.0769 82.435 56.9469 81.985 56.9469 81.495C56.9469 80.755 57.2069 80.125 57.7269 79.605C58.2569 79.075 59.0019 78.56 59.9619 78.06C59.5819 77.13 59.3919 76.325 59.3919 75.645C59.3919 75.115 59.5069 74.635 59.7369 74.205C59.9769 73.765 60.3119 73.42 60.7419 73.17C61.1719 72.92 61.6619 72.795 62.2119 72.795C62.7119 72.795 63.1769 72.88 63.6069 73.05C64.0469 73.21 64.3969 73.445 64.6569 73.755C64.9169 74.065 65.0469 74.42 65.0469 74.82C65.0469 75.38 64.7869 75.875 64.2669 76.305C63.7569 76.725 63.0169 77.165 62.0469 77.625L62.7369 78.96C63.3369 80.11 63.9919 81.095 64.7019 81.915C65.0719 81.495 65.3569 81.04 65.5569 80.55C65.7669 80.05 65.8719 79.6 65.8719 79.2C65.8719 78.81 65.7519 78.515 65.5119 78.315C65.2719 78.115 64.9269 78.015 64.4769 78.015C64.3969 78.015 64.3569 77.95 64.3569 77.82C64.3569 77.7 64.3969 77.64 64.4769 77.64H68.2419C68.3119 77.64 68.3469 77.7 68.3469 77.82C68.3469 77.95 68.3119 78.015 68.2419 78.015C67.8419 78.015 67.4919 78.12 67.1919 78.33C66.9019 78.53 66.7019 78.87 66.5919 79.35C66.3219 80.54 65.8219 81.53 65.0919 82.32C65.7519 82.98 66.3069 83.31 66.7569 83.31C67.0469 83.31 67.3069 83.245 67.5369 83.115C67.7769 82.975 68.0219 82.775 68.2719 82.515C68.3219 82.465 68.3719 82.44 68.4219 82.44ZM62.3469 73.305C61.9769 73.305 61.6819 73.45 61.4619 73.74C61.2419 74.03 61.1319 74.395 61.1319 74.835C61.1319 75.355 61.3569 76.11 61.8069 77.1C62.4369 76.73 62.8969 76.365 63.1869 76.005C63.4869 75.635 63.6369 75.22 63.6369 74.76C63.6369 74.34 63.5269 73.995 63.3069 73.725C63.0969 73.445 62.7769 73.305 62.3469 73.305ZM61.5519 83.31C62.0719 83.31 62.5769 83.22 63.0669 83.04C62.2669 82.33 61.5119 81.27 60.8019 79.86L60.6219 79.485L60.1869 78.57C59.6969 78.87 59.3519 79.19 59.1519 79.53C58.9519 79.87 58.8519 80.265 58.8519 80.715C58.8519 81.215 58.9669 81.665 59.1969 82.065C59.4269 82.455 59.7469 82.76 60.1569 82.98C60.5669 83.2 61.0319 83.31 61.5519 83.31Z" fill="black"/>
<path d="M85.1869 83.64C85.2569 83.64 85.2919 83.695 85.2919 83.805C85.2919 83.935 85.2569 84 85.1869 84H81.8119C81.4519 83.29 80.9669 82.385 80.3569 81.285C79.7469 80.175 79.2219 79.315 78.7819 78.705H78.7219H77.7319V82.425C77.7319 82.895 77.8469 83.215 78.0769 83.385C78.3169 83.555 78.6219 83.64 78.9919 83.64H79.1719C79.2419 83.64 79.2769 83.695 79.2769 83.805C79.2769 83.935 79.2419 84 79.1719 84H74.3569C74.2869 84 74.2519 83.935 74.2519 83.805C74.2519 83.695 74.2869 83.64 74.3569 83.64H74.5519C74.9219 83.64 75.2219 83.555 75.4519 83.385C75.6919 83.215 75.8119 82.895 75.8119 82.425V74.52C75.8119 74.05 75.6919 73.735 75.4519 73.575C75.2219 73.405 74.9219 73.32 74.5519 73.32H74.3569C74.2869 73.32 74.2519 73.255 74.2519 73.125C74.2519 73.005 74.2869 72.945 74.3569 72.945C75.6369 72.925 76.8619 72.915 78.0319 72.915L79.8319 72.93C80.5019 72.95 81.1269 73.075 81.7069 73.305C82.2969 73.535 82.7669 73.865 83.1169 74.295C83.4769 74.715 83.6569 75.21 83.6569 75.78C83.6569 76.47 83.3869 77.035 82.8469 77.475C82.3069 77.905 81.6219 78.225 80.7919 78.435C81.0219 78.735 81.4619 79.425 82.1119 80.505C82.7719 81.615 83.2419 82.365 83.5219 82.755C83.6819 82.995 83.8119 83.17 83.9119 83.28C84.0219 83.39 84.1719 83.48 84.3619 83.55C84.5619 83.61 84.8369 83.64 85.1869 83.64ZM77.7319 78.285H78.1819C80.4219 78.285 81.5419 77.425 81.5419 75.705C81.5419 75.265 81.4369 74.87 81.2269 74.52C81.0169 74.16 80.7169 73.88 80.3269 73.68C79.9469 73.48 79.5019 73.38 78.9919 73.38C78.5919 73.38 78.2819 73.45 78.0619 73.59C77.8419 73.73 77.7319 73.975 77.7319 74.325V78.285ZM92.8814 82.08C92.9314 82.11 92.9564 82.16 92.9564 82.23L92.9414 82.335C92.7114 82.825 92.3414 83.26 91.8314 83.64C91.3314 84.01 90.7014 84.195 89.9414 84.195C89.2114 84.195 88.5514 84.03 87.9614 83.7C87.3714 83.37 86.9064 82.92 86.5664 82.35C86.2364 81.77 86.0714 81.14 86.0714 80.46C86.0714 79.84 86.2114 79.23 86.4914 78.63C86.7814 78.03 87.2064 77.535 87.7664 77.145C88.3264 76.755 88.9914 76.56 89.7614 76.56C90.3214 76.56 90.8364 76.69 91.3064 76.95C91.7764 77.21 92.1614 77.58 92.4614 78.06C92.7714 78.54 92.9614 79.11 93.0314 79.77L87.9614 79.8C87.9514 79.91 87.9464 80.085 87.9464 80.325C87.9464 81.205 88.1514 81.945 88.5614 82.545C88.9714 83.145 89.5614 83.445 90.3314 83.445C91.2714 83.445 92.0414 83.005 92.6414 82.125C92.6714 82.075 92.7164 82.05 92.7764 82.05C92.7864 82.05 92.8214 82.06 92.8814 82.08ZM89.7014 76.98C89.3514 76.98 89.0064 77.15 88.6664 77.49C88.3364 77.82 88.1164 78.415 88.0064 79.275L91.1864 79.245V78.99C91.1764 78.36 91.0264 77.87 90.7364 77.52C90.4564 77.16 90.1114 76.98 89.7014 76.98ZM100.932 77.25C100.722 77.25 100.537 77.35 100.377 77.55C100.837 78.01 101.067 78.55 101.067 79.17C101.067 79.6 100.942 80.01 100.692 80.4C100.452 80.79 100.087 81.11 99.5971 81.36C99.1171 81.6 98.5371 81.72 97.8571 81.72C97.5171 81.72 97.1771 81.68 96.8371 81.6C96.6771 81.67 96.5471 81.745 96.4471 81.825C96.3571 81.905 96.3121 81.975 96.3121 82.035C96.3121 82.125 96.3721 82.2 96.4921 82.26C96.6221 82.32 96.8821 82.385 97.2721 82.455C97.6821 82.515 98.1971 82.615 98.8171 82.755C99.4471 82.885 99.9621 83.005 100.362 83.115C100.842 83.235 101.232 83.43 101.532 83.7C101.842 83.96 101.997 84.285 101.997 84.675C101.997 85.205 101.772 85.635 101.322 85.965C100.882 86.305 100.337 86.55 99.6871 86.7C99.0471 86.85 98.4121 86.925 97.7821 86.925C96.9321 86.925 96.2321 86.83 95.6821 86.64C95.1421 86.46 94.7521 86.23 94.5121 85.95C94.2721 85.68 94.1521 85.405 94.1521 85.125C94.1521 84.825 94.3071 84.56 94.6171 84.33C94.9271 84.11 95.3971 83.89 96.0271 83.67C95.6071 83.56 95.2921 83.42 95.0821 83.25C94.8721 83.08 94.7671 82.905 94.7671 82.725C94.7671 82.505 94.9071 82.295 95.1871 82.095C95.4771 81.885 95.8671 81.67 96.3571 81.45C95.8171 81.25 95.3821 80.95 95.0521 80.55C94.7321 80.15 94.5721 79.695 94.5721 79.185C94.5721 78.685 94.7271 78.235 95.0371 77.835C95.3471 77.425 95.7471 77.11 96.2371 76.89C96.7271 76.67 97.2421 76.56 97.7821 76.56C98.2121 76.56 98.6271 76.625 99.0271 76.755C99.4271 76.885 99.7771 77.065 100.077 77.295C100.277 76.885 100.522 76.55 100.812 76.29C101.112 76.02 101.452 75.885 101.832 75.885C102.112 75.885 102.332 75.98 102.492 76.17C102.662 76.35 102.747 76.545 102.747 76.755C102.747 76.965 102.677 77.15 102.537 77.31C102.407 77.46 102.212 77.535 101.952 77.535C101.822 77.535 101.647 77.485 101.427 77.385C101.397 77.375 101.327 77.35 101.217 77.31C101.117 77.27 101.022 77.25 100.932 77.25ZM97.7971 81.33C98.3471 81.33 98.7471 81.09 98.9971 80.61C99.2471 80.13 99.3721 79.6 99.3721 79.02C99.3721 78.5 99.2421 78.03 98.9821 77.61C98.7221 77.19 98.3371 76.98 97.8271 76.98C97.4671 76.98 97.1721 77.1 96.9421 77.34C96.7121 77.58 96.5421 77.875 96.4321 78.225C96.3321 78.565 96.2821 78.895 96.2821 79.215C96.2821 79.775 96.4121 80.27 96.6721 80.7C96.9421 81.12 97.3171 81.33 97.7971 81.33ZM100.437 85.215C100.437 85.045 100.357 84.895 100.197 84.765C100.037 84.635 99.8221 84.53 99.5521 84.45C99.0021 84.27 98.0621 84.06 96.7321 83.82C95.9421 84.26 95.5471 84.68 95.5471 85.08C95.5471 85.33 95.6571 85.56 95.8771 85.77C96.1071 85.99 96.4171 86.16 96.8071 86.28C97.2071 86.41 97.6421 86.475 98.1121 86.475C98.6221 86.475 99.0521 86.405 99.4021 86.265C99.7521 86.135 100.012 85.97 100.182 85.77C100.352 85.57 100.437 85.385 100.437 85.215ZM111.869 83.445C112.039 83.445 112.124 83.515 112.124 83.655C112.124 83.735 112.089 83.785 112.019 83.805C111.929 83.825 110.984 83.945 109.184 84.165L109.169 82.86C108.909 83.24 108.589 83.555 108.209 83.805C107.829 84.045 107.389 84.165 106.889 84.165C106.069 84.165 105.464 83.94 105.074 83.49C104.684 83.04 104.479 82.5 104.459 81.87C104.439 81.07 104.429 79.875 104.429 78.285C104.419 77.965 104.339 77.755 104.189 77.655C104.049 77.555 103.809 77.5 103.469 77.49C103.379 77.48 103.334 77.41 103.334 77.28C103.334 77.2 103.364 77.155 103.424 77.145C103.524 77.105 104.439 76.91 106.169 76.56C106.139 77.79 106.124 78.855 106.124 79.755C106.124 80.695 106.134 81.355 106.154 81.735C106.194 82.235 106.304 82.64 106.484 82.95C106.674 83.26 106.994 83.415 107.444 83.415C107.764 83.415 108.074 83.31 108.374 83.1C108.674 82.88 108.939 82.58 109.169 82.2L109.139 78.3C109.129 77.98 109.049 77.77 108.899 77.67C108.759 77.57 108.519 77.51 108.179 77.49C108.089 77.48 108.044 77.4 108.044 77.25C108.044 77.19 108.074 77.155 108.134 77.145C108.234 77.105 109.149 76.91 110.879 76.56V82.74C110.879 83.18 111.129 83.42 111.629 83.46L111.869 83.445ZM113.274 84C113.194 84 113.154 83.935 113.154 83.805C113.154 83.695 113.194 83.64 113.274 83.64H113.424C113.714 83.64 113.944 83.595 114.114 83.505C114.284 83.415 114.369 83.22 114.369 82.92L114.339 74.505C114.339 74.185 114.264 73.975 114.114 73.875C113.974 73.775 113.734 73.715 113.394 73.695C113.294 73.695 113.244 73.62 113.244 73.47C113.244 73.41 113.274 73.375 113.334 73.365C113.624 73.295 114.049 73.2 114.609 73.08C115.169 72.96 115.664 72.86 116.094 72.78V82.92C116.094 83.22 116.174 83.415 116.334 83.505C116.504 83.595 116.734 83.64 117.024 83.64H117.189C117.259 83.64 117.294 83.695 117.294 83.805C117.294 83.935 117.259 84 117.189 84H113.274ZM126.126 82.68C126.206 82.68 126.246 82.715 126.246 82.785L126.231 82.875C126.111 83.255 125.886 83.565 125.556 83.805C125.236 84.045 124.901 84.165 124.551 84.165C123.831 84.165 123.366 83.83 123.156 83.16C122.766 83.5 122.331 83.76 121.851 83.94C121.371 84.12 120.896 84.21 120.426 84.21C119.806 84.21 119.321 84.07 118.971 83.79C118.621 83.5 118.446 83.095 118.446 82.575C118.446 81.815 118.861 81.21 119.691 80.76C119.921 80.64 120.181 80.545 120.471 80.475C120.761 80.395 121.151 80.305 121.641 80.205C121.791 80.175 122.006 80.13 122.286 80.07C122.576 80 122.831 79.935 123.051 79.875V79.2C123.051 78.63 123.031 78.225 122.991 77.985C122.961 77.735 122.881 77.53 122.751 77.37C122.561 77.12 122.266 76.995 121.866 76.995C121.596 76.995 121.366 77.08 121.176 77.25C120.986 77.41 120.831 77.725 120.711 78.195C120.621 78.535 120.486 78.79 120.306 78.96C120.136 79.12 119.936 79.2 119.706 79.2C119.476 79.2 119.271 79.135 119.091 79.005C118.911 78.865 118.821 78.67 118.821 78.42C118.821 78.23 118.896 77.995 119.046 77.715C119.206 77.425 119.511 77.16 119.961 76.92C120.411 76.68 121.046 76.56 121.866 76.56C122.466 76.56 122.971 76.64 123.381 76.8C123.791 76.96 124.111 77.175 124.341 77.445C124.521 77.645 124.641 77.865 124.701 78.105C124.761 78.345 124.791 78.64 124.791 78.99C124.791 79.67 124.786 80.19 124.776 80.55L124.761 82.23C124.761 82.66 124.811 82.94 124.911 83.07C125.021 83.2 125.151 83.265 125.301 83.265C125.421 83.265 125.546 83.225 125.676 83.145C125.806 83.055 125.921 82.925 126.021 82.755C126.051 82.705 126.086 82.68 126.126 82.68ZM121.431 83.385C121.701 83.385 121.976 83.33 122.256 83.22C122.546 83.11 122.811 82.95 123.051 82.74C123.021 82.51 123.006 82.28 123.006 82.05L123.036 80.295C122.076 80.535 121.371 80.83 120.921 81.18C120.471 81.52 120.246 81.945 120.246 82.455C120.246 82.725 120.351 82.95 120.561 83.13C120.771 83.3 121.061 83.385 121.431 83.385ZM129.85 84.195C129.2 84.195 128.705 84.01 128.365 83.64C128.025 83.27 127.845 82.73 127.825 82.02V77.235H126.52V76.725C127.23 76.565 127.815 76.26 128.275 75.81C128.745 75.35 129.07 74.63 129.25 73.65H129.55V76.725H131.455V77.235H129.55L129.52 80.7L129.535 81.945C129.585 82.875 129.935 83.34 130.585 83.34C130.795 83.34 130.975 83.3 131.125 83.22C131.275 83.14 131.445 83 131.635 82.8C131.685 82.74 131.73 82.71 131.77 82.71C131.81 82.71 131.85 82.735 131.89 82.785C131.94 82.825 131.965 82.865 131.965 82.905C131.965 82.925 131.955 82.955 131.935 82.995C131.655 83.425 131.345 83.735 131.005 83.925C130.665 84.105 130.28 84.195 129.85 84.195ZM134.454 75C134.144 75 133.879 74.895 133.659 74.685C133.449 74.465 133.344 74.205 133.344 73.905C133.344 73.595 133.449 73.335 133.659 73.125C133.879 72.905 134.144 72.795 134.454 72.795C134.754 72.795 135.014 72.905 135.234 73.125C135.454 73.335 135.564 73.595 135.564 73.905C135.564 74.205 135.454 74.465 135.234 74.685C135.014 74.895 134.754 75 134.454 75ZM132.579 84C132.509 84 132.474 83.935 132.474 83.805C132.474 83.695 132.509 83.64 132.579 83.64H132.759C133.049 83.64 133.274 83.595 133.434 83.505C133.604 83.415 133.689 83.22 133.689 82.92L133.674 78.3C133.674 77.99 133.599 77.785 133.449 77.685C133.299 77.585 133.049 77.525 132.699 77.505C132.609 77.495 132.564 77.42 132.564 77.28C132.564 77.2 132.594 77.155 132.654 77.145C132.764 77.105 133.684 76.91 135.414 76.56L135.399 82.92C135.399 83.22 135.484 83.415 135.654 83.505C135.824 83.595 136.054 83.64 136.344 83.64H136.524C136.594 83.64 136.629 83.695 136.629 83.805C136.629 83.935 136.594 84 136.524 84H132.579ZM141.472 84.195C140.732 84.195 140.077 84.015 139.507 83.655C138.937 83.285 138.497 82.805 138.187 82.215C137.877 81.625 137.722 81.01 137.722 80.37C137.722 79.71 137.877 79.09 138.187 78.51C138.497 77.92 138.937 77.45 139.507 77.1C140.077 76.74 140.732 76.56 141.472 76.56C142.212 76.56 142.867 76.74 143.437 77.1C144.017 77.45 144.462 77.92 144.772 78.51C145.092 79.09 145.252 79.71 145.252 80.37C145.252 81.01 145.092 81.625 144.772 82.215C144.462 82.805 144.017 83.285 143.437 83.655C142.867 84.015 142.212 84.195 141.472 84.195ZM141.472 83.79C142.082 83.79 142.557 83.46 142.897 82.8C143.247 82.13 143.422 81.32 143.422 80.37C143.422 79.4 143.252 78.595 142.912 77.955C142.572 77.305 142.092 76.98 141.472 76.98C140.872 76.98 140.402 77.305 140.062 77.955C139.722 78.605 139.552 79.41 139.552 80.37C139.552 81.32 139.722 82.13 140.062 82.8C140.402 83.46 140.872 83.79 141.472 83.79ZM155.001 83.64C155.081 83.64 155.121 83.7 155.121 83.82C155.121 83.94 155.081 84 155.001 84H151.221C151.151 84 151.116 83.94 151.116 83.82C151.116 83.7 151.151 83.64 151.221 83.64H151.401C151.681 83.64 151.891 83.595 152.031 83.505C152.181 83.415 152.256 83.22 152.256 82.92L152.271 80.28C152.271 79.8 152.261 79.38 152.241 79.02C152.221 78.5 152.116 78.085 151.926 77.775C151.736 77.465 151.411 77.31 150.951 77.31C150.621 77.31 150.306 77.42 150.006 77.64C149.706 77.86 149.441 78.17 149.211 78.57V82.92C149.211 83.22 149.286 83.415 149.436 83.505C149.586 83.595 149.801 83.64 150.081 83.64H150.261C150.331 83.64 150.366 83.7 150.366 83.82C150.366 83.94 150.331 84 150.261 84H146.466C146.386 84 146.346 83.94 146.346 83.82C146.346 83.7 146.386 83.64 146.466 83.64H146.616C146.906 83.64 147.126 83.595 147.276 83.505C147.426 83.415 147.501 83.22 147.501 82.92L147.486 78.3C147.486 77.99 147.406 77.785 147.246 77.685C147.096 77.575 146.851 77.51 146.511 77.49C146.421 77.48 146.376 77.4 146.376 77.25C146.376 77.19 146.406 77.155 146.466 77.145C146.566 77.105 147.481 76.91 149.211 76.56V77.895C149.491 77.485 149.826 77.16 150.216 76.92C150.606 76.68 151.036 76.56 151.506 76.56C152.046 76.56 152.501 76.67 152.871 76.89C153.241 77.11 153.516 77.395 153.696 77.745C153.876 78.095 153.971 78.465 153.981 78.855V80.235V82.92C153.981 83.22 154.056 83.415 154.206 83.505C154.356 83.595 154.571 83.64 154.851 83.64H155.001ZM156.254 81.75L156.239 81.675C156.239 81.595 156.279 81.54 156.359 81.51C156.379 81.5 156.409 81.495 156.449 81.495C156.519 81.495 156.574 81.53 156.614 81.6C157.504 83.01 158.574 83.715 159.824 83.715C160.284 83.715 160.629 83.605 160.859 83.385C161.099 83.165 161.219 82.885 161.219 82.545C161.219 82.325 161.149 82.12 161.009 81.93C160.869 81.74 160.674 81.59 160.424 81.48C160.174 81.37 159.724 81.22 159.074 81.03C159.014 81.01 158.834 80.955 158.534 80.865C158.234 80.775 157.999 80.685 157.829 80.595C157.419 80.395 157.099 80.14 156.869 79.83C156.639 79.52 156.524 79.155 156.524 78.735C156.524 78.385 156.614 78.045 156.794 77.715C156.984 77.375 157.259 77.1 157.619 76.89C157.979 76.67 158.409 76.56 158.909 76.56C159.199 76.56 159.454 76.585 159.674 76.635C159.904 76.675 160.184 76.74 160.514 76.83C160.744 76.9 160.884 76.935 160.934 76.935C161.084 76.935 161.229 76.89 161.369 76.8C161.519 76.7 161.634 76.575 161.714 76.425L162.374 78.645L162.389 78.735C162.389 78.795 162.349 78.845 162.269 78.885C162.229 78.905 162.189 78.915 162.149 78.915C162.089 78.915 162.039 78.885 161.999 78.825C161.609 78.245 161.124 77.8 160.544 77.49C159.964 77.18 159.424 77.025 158.924 77.025C158.484 77.025 158.164 77.135 157.964 77.355C157.774 77.575 157.679 77.8 157.679 78.03C157.679 78.22 157.744 78.39 157.874 78.54C158.014 78.69 158.234 78.84 158.534 78.99C158.724 79.08 159.094 79.21 159.644 79.38C160.374 79.61 160.899 79.8 161.219 79.95C161.649 80.16 161.989 80.43 162.239 80.76C162.499 81.09 162.629 81.48 162.629 81.93C162.629 82.63 162.374 83.185 161.864 83.595C161.364 83.995 160.709 84.195 159.899 84.195C159.619 84.195 159.354 84.17 159.104 84.12C158.854 84.07 158.559 84 158.219 83.91C157.909 83.82 157.714 83.775 157.634 83.775C157.494 83.775 157.364 83.815 157.244 83.895C157.124 83.975 156.999 84.09 156.869 84.24L156.254 81.75Z" fill="#29C7AC"/>
</svg>
