<svg width="369" height="13" viewBox="0 0 369 13" fill="none" xmlns="http://www.w3.org/2000/svg">
<path d="M9.81 12.105C8.85 12.105 7.68 12 6.075 12H4.5C2.505 12 0.735 12.105 0.39 12.105C0.3 12.105 0.27 12.06 0.27 11.79C0.27 11.52 0.3 11.475 0.39 11.46L1.05 11.355C1.2 11.325 1.23 11.295 1.23 11.145V2.055C1.23 1.905 1.2 1.875 1.05 1.845L0.39 1.74C0.3 1.725 0.27 1.68 0.27 1.41C0.27 1.14 0.3 1.095 0.39 1.095C0.735 1.095 1.935 1.2 3.18 1.2C4.425 1.2 5.91 1.095 6.255 1.095C6.345 1.095 6.375 1.14 6.375 1.41C6.375 1.68 6.345 1.725 6.255 1.74L5.295 1.845C5.145 1.86 5.115 1.905 5.115 2.055V10.53C5.115 10.77 5.205 10.965 5.37 11.13C5.52 11.28 5.745 11.37 5.985 11.37C6.555 11.37 7.17 11.28 7.905 11.13C8.205 11.07 8.31 11.01 8.475 10.71C8.97 9.81 9.48 8.805 9.99 7.83C10.05 7.725 10.08 7.71 10.17 7.71C10.41 7.71 10.86 7.83 10.845 7.98C10.695 9.15 10.425 10.68 10.2 11.775C10.14 12.075 10.11 12.105 9.81 12.105ZM27.0234 11.79C27.0234 12.06 26.9934 12.105 26.9034 12.105C26.5584 12.105 25.3734 12 24.1284 12C22.8834 12 21.6834 12.105 21.3384 12.105C21.2484 12.105 21.2184 12.06 21.2184 11.79C21.2184 11.52 21.2484 11.475 21.3384 11.46L21.9984 11.355C22.1484 11.325 22.1784 11.295 22.1784 11.145V2.055C22.1784 1.905 22.1484 1.875 21.9984 1.845L21.3384 1.74C21.2484 1.725 21.2184 1.68 21.2184 1.41C21.2184 1.14 21.2484 1.095 21.3384 1.095C21.6834 1.095 22.8684 1.2 24.1134 1.2C25.3584 1.2 26.5584 1.095 26.9034 1.095C26.9934 1.095 27.0234 1.14 27.0234 1.41C27.0234 1.68 26.9934 1.725 26.9034 1.74L26.2434 1.845C26.0934 1.875 26.0634 1.905 26.0634 2.055V11.145C26.0634 11.295 26.0934 11.325 26.2434 11.355L26.9034 11.46C26.9934 11.475 27.0234 11.52 27.0234 11.79ZM50.1512 1.095C50.2412 1.095 50.2712 1.14 50.2712 1.41C50.2712 1.68 50.2412 1.71 50.1512 1.74L49.4912 1.98C49.0412 2.145 49.0262 2.19 48.9212 4.29L48.7862 7.185C48.7562 7.71 48.7562 7.935 48.7562 8.31C48.7412 9.18 48.8312 10.98 48.8312 11.49V11.79C48.8312 12.09 48.8012 12.12 48.5012 12.12H48.2912C47.9912 12.12 47.9312 12.09 47.6312 11.82L40.0262 4.995L40.3562 8.925C40.4912 11.025 40.5512 11.085 40.9862 11.22L41.7962 11.46C41.8862 11.49 41.9162 11.52 41.9162 11.79C41.9162 12.06 41.8862 12.105 41.7962 12.105C41.4512 12.105 40.6562 12 39.6812 12C38.7362 12 37.9862 12.105 37.6412 12.105C37.5512 12.105 37.5212 12.06 37.5212 11.79C37.5212 11.52 37.5512 11.49 37.6412 11.46L38.3012 11.22C38.7512 11.055 38.7962 11.025 38.8712 8.925L39.0962 2.64C39.1112 2.19 38.9162 1.92 38.4662 1.845L37.8062 1.74C37.7162 1.725 37.6862 1.68 37.6862 1.41C37.6862 1.14 37.7162 1.095 37.8062 1.095C38.0012 1.095 39.1862 1.2 39.6812 1.2C40.1762 1.2 40.8512 1.17 41.4062 1.17C41.5562 1.17 41.6012 1.185 41.7512 1.32L47.6462 6.555L47.4362 4.29C47.3012 2.19 47.2412 2.115 46.8062 1.98L45.9962 1.74C45.9062 1.71 45.8762 1.68 45.8762 1.41C45.8762 1.14 45.9062 1.095 45.9962 1.095C46.3412 1.095 47.1362 1.2 48.1112 1.2C49.0562 1.2 49.8062 1.095 50.1512 1.095ZM60.6732 6.705C60.6732 3.06 64.1832 1.02 68.0382 1.02C69.3282 1.02 70.4532 1.065 71.3232 1.245C71.6232 1.305 71.6532 1.335 71.6682 1.635C71.7432 2.715 71.7732 3.48 71.7732 4.575C71.7732 4.695 71.7132 4.725 71.3682 4.725C71.0232 4.725 70.9782 4.695 70.9332 4.575C70.6182 3.675 70.3032 3.075 69.6732 2.445C69.1332 1.905 68.5782 1.68 67.6182 1.68C66.1182 1.68 64.8582 2.685 64.8582 5.055C64.8582 7.83 65.6832 10.065 66.7332 11.115C67.0332 11.415 67.4232 11.58 67.6932 11.58C68.2932 11.58 68.4282 11.415 68.4282 11.04V7.695C68.4282 7.545 68.3982 7.515 68.2482 7.485L67.5882 7.38C67.4982 7.365 67.4682 7.32 67.4682 7.05C67.4682 6.78 67.4982 6.735 67.5882 6.735C67.9332 6.735 69.1182 6.84 70.3632 6.84C71.6082 6.84 72.8082 6.735 73.1532 6.735C73.2432 6.735 73.2732 6.78 73.2732 7.05C73.2732 7.32 73.2432 7.365 73.1532 7.38L72.4932 7.485C72.3432 7.515 72.3132 7.545 72.3132 7.695V10.755C72.5232 10.74 72.6732 10.71 72.7332 10.71C72.8532 10.71 72.8832 10.74 72.8832 11.025C72.8832 11.265 72.8682 11.295 72.7632 11.34C71.2482 11.925 69.3582 12.24 67.0332 12.24C63.4182 12.24 60.6732 10.155 60.6732 6.705ZM96.2815 1.095C96.3715 1.095 96.4015 1.14 96.4015 1.41C96.4015 1.68 96.3715 1.71 96.2815 1.74L95.6215 1.98C95.1715 2.145 95.1565 2.19 95.0515 4.29L94.9165 7.185C94.8865 7.71 94.8865 7.935 94.8865 8.31C94.8715 9.18 94.9615 10.98 94.9615 11.49V11.79C94.9615 12.09 94.9315 12.12 94.6315 12.12H94.4215C94.1215 12.12 94.0615 12.09 93.7615 11.82L86.1565 4.995L86.4865 8.925C86.6215 11.025 86.6815 11.085 87.1165 11.22L87.9265 11.46C88.0165 11.49 88.0465 11.52 88.0465 11.79C88.0465 12.06 88.0165 12.105 87.9265 12.105C87.5815 12.105 86.7865 12 85.8115 12C84.8665 12 84.1165 12.105 83.7715 12.105C83.6815 12.105 83.6515 12.06 83.6515 11.79C83.6515 11.52 83.6815 11.49 83.7715 11.46L84.4315 11.22C84.8815 11.055 84.9265 11.025 85.0015 8.925L85.2265 2.64C85.2415 2.19 85.0465 1.92 84.5965 1.845L83.9365 1.74C83.8465 1.725 83.8165 1.68 83.8165 1.41C83.8165 1.14 83.8465 1.095 83.9365 1.095C84.1315 1.095 85.3165 1.2 85.8115 1.2C86.3065 1.2 86.9815 1.17 87.5365 1.17C87.6865 1.17 87.7315 1.185 87.8815 1.32L93.7765 6.555L93.5665 4.29C93.4315 2.19 93.3715 2.115 92.9365 1.98L92.1265 1.74C92.0365 1.71 92.0065 1.68 92.0065 1.41C92.0065 1.14 92.0365 1.095 92.1265 1.095C92.4715 1.095 93.2665 1.2 94.2415 1.2C95.1865 1.2 95.9365 1.095 96.2815 1.095ZM118.049 11.46C118.139 11.49 118.169 11.52 118.169 11.79C118.169 12.06 118.139 12.105 118.049 12.105C117.704 12.105 116.729 12 115.634 12C114.839 12 112.619 12.105 112.274 12.105C112.184 12.105 112.154 12.06 112.154 11.79C112.154 11.52 112.184 11.475 112.274 11.46L113.159 11.34C113.309 11.325 113.339 11.28 113.264 11.13L112.484 9.495H109.199C108.704 10.935 108.824 11.025 109.214 11.175L109.994 11.46C110.084 11.49 110.114 11.535 110.114 11.805C110.114 12.075 110.084 12.105 109.994 12.105C109.649 12.105 108.689 12 107.894 12C107.099 12 106.349 12.105 106.004 12.105C105.914 12.105 105.884 12.075 105.884 11.805C105.884 11.535 105.914 11.505 106.004 11.46L106.499 11.235C106.949 11.025 107.009 10.935 108.014 8.91L109.544 5.85C110.324 4.29 111.269 2.265 111.689 1.245C111.764 1.065 111.839 1.02 112.229 1.02C112.619 1.02 112.694 1.065 112.769 1.245C113.189 2.265 114.074 4.29 114.824 5.85L117.359 11.13C117.434 11.28 117.434 11.295 117.584 11.34L118.049 11.46ZM109.454 8.745H112.124L110.609 5.58L109.454 8.745ZM144.41 11.46C144.5 11.475 144.53 11.52 144.53 11.79C144.53 12.06 144.5 12.105 144.41 12.105C144.065 12.105 142.88 12 141.635 12C140.39 12 139.19 12.105 138.845 12.105C138.755 12.105 138.725 12.06 138.725 11.79C138.725 11.52 138.755 11.475 138.845 11.46L139.505 11.355C139.655 11.325 139.7 11.295 139.685 11.145L139.205 3.915L135.875 11.79C135.74 12.09 135.695 12.12 135.395 12.12H135.335C135.035 12.12 134.915 12.105 134.78 11.79L131.435 3.81L131.39 8.925C131.375 11.025 131.42 11.085 131.855 11.22L132.665 11.46C132.755 11.49 132.785 11.52 132.785 11.79C132.785 12.06 132.755 12.105 132.665 12.105C132.32 12.105 131.45 12 130.475 12C129.53 12 128.855 12.105 128.51 12.105C128.42 12.105 128.39 12.06 128.39 11.79C128.39 11.52 128.42 11.49 128.51 11.46L129.17 11.22C129.62 11.055 129.65 11.025 129.905 8.925L130.685 2.49C130.745 2.04 130.55 1.92 130.1 1.845L129.44 1.74C129.35 1.725 129.32 1.68 129.32 1.41C129.32 1.14 129.35 1.095 129.44 1.095C129.635 1.095 131.57 1.2 132.515 1.2C133.16 1.2 133.76 1.17 134.21 1.17C134.36 1.17 134.405 1.2 134.465 1.35L136.835 7.305L138.995 1.35C139.055 1.2 139.085 1.17 139.235 1.17C139.58 1.17 140.375 1.2 141.17 1.2C142.265 1.2 143.465 1.095 143.81 1.095C143.9 1.095 143.93 1.14 143.93 1.41C143.93 1.68 143.9 1.725 143.81 1.74L143.15 1.845C143 1.875 142.955 1.905 142.97 2.055L143.57 11.145C143.585 11.295 143.6 11.325 143.75 11.355L144.41 11.46ZM174.439 12.24C170.974 12.24 169.444 10.74 169.444 8.505V2.055C169.444 1.905 169.414 1.875 169.264 1.845L168.604 1.74C168.514 1.725 168.484 1.68 168.484 1.41C168.484 1.14 168.514 1.095 168.604 1.095C168.949 1.095 170.134 1.2 171.379 1.2C172.624 1.2 173.824 1.095 174.169 1.095C174.259 1.095 174.289 1.14 174.289 1.41C174.289 1.68 174.259 1.725 174.169 1.74L173.509 1.845C173.359 1.875 173.329 1.905 173.329 2.055V8.19C173.329 10.23 174.289 10.95 175.819 10.95C177.469 10.95 178.429 10.065 178.324 7.845L178.159 4.29C178.069 2.19 177.964 2.115 177.529 1.98L176.719 1.74C176.629 1.71 176.599 1.68 176.599 1.41C176.599 1.14 176.629 1.095 176.719 1.095C177.064 1.095 177.784 1.2 178.759 1.2C179.704 1.2 180.379 1.095 180.724 1.095C180.814 1.095 180.844 1.14 180.844 1.41C180.844 1.68 180.814 1.71 180.724 1.74L180.064 1.98C179.614 2.145 179.539 2.19 179.494 4.29L179.449 6.765C179.434 7.29 179.449 7.995 179.449 8.37C179.449 10.695 178.414 12.24 174.439 12.24ZM203.822 1.095C203.912 1.095 203.942 1.14 203.942 1.41C203.942 1.68 203.912 1.71 203.822 1.74L203.162 1.98C202.712 2.145 202.697 2.19 202.592 4.29L202.457 7.185C202.427 7.71 202.427 7.935 202.427 8.31C202.412 9.18 202.502 10.98 202.502 11.49V11.79C202.502 12.09 202.472 12.12 202.172 12.12H201.962C201.662 12.12 201.602 12.09 201.302 11.82L193.697 4.995L194.027 8.925C194.162 11.025 194.222 11.085 194.657 11.22L195.467 11.46C195.557 11.49 195.587 11.52 195.587 11.79C195.587 12.06 195.557 12.105 195.467 12.105C195.122 12.105 194.327 12 193.352 12C192.407 12 191.657 12.105 191.312 12.105C191.222 12.105 191.192 12.06 191.192 11.79C191.192 11.52 191.222 11.49 191.312 11.46L191.972 11.22C192.422 11.055 192.467 11.025 192.542 8.925L192.767 2.64C192.782 2.19 192.587 1.92 192.137 1.845L191.477 1.74C191.387 1.725 191.357 1.68 191.357 1.41C191.357 1.14 191.387 1.095 191.477 1.095C191.672 1.095 192.857 1.2 193.352 1.2C193.847 1.2 194.522 1.17 195.077 1.17C195.227 1.17 195.272 1.185 195.422 1.32L201.317 6.555L201.107 4.29C200.972 2.19 200.912 2.115 200.477 1.98L199.667 1.74C199.577 1.71 199.547 1.68 199.547 1.41C199.547 1.14 199.577 1.095 199.667 1.095C200.012 1.095 200.807 1.2 201.782 1.2C202.727 1.2 203.477 1.095 203.822 1.095ZM219.969 11.79C219.969 12.06 219.939 12.105 219.849 12.105C219.504 12.105 218.319 12 217.074 12C215.829 12 214.629 12.105 214.284 12.105C214.194 12.105 214.164 12.06 214.164 11.79C214.164 11.52 214.194 11.475 214.284 11.46L214.944 11.355C215.094 11.325 215.124 11.295 215.124 11.145V2.055C215.124 1.905 215.094 1.875 214.944 1.845L214.284 1.74C214.194 1.725 214.164 1.68 214.164 1.41C214.164 1.14 214.194 1.095 214.284 1.095C214.629 1.095 215.814 1.2 217.059 1.2C218.304 1.2 219.504 1.095 219.849 1.095C219.939 1.095 219.969 1.14 219.969 1.41C219.969 1.68 219.939 1.725 219.849 1.74L219.189 1.845C219.039 1.875 219.009 1.905 219.009 2.055V11.145C219.009 11.295 219.039 11.325 219.189 11.355L219.849 11.46C219.939 11.475 219.969 11.52 219.969 11.79ZM242.436 1.095C242.526 1.095 242.556 1.125 242.556 1.395C242.556 1.665 242.526 1.695 242.436 1.74L241.941 1.965C241.491 2.175 241.431 2.265 240.426 4.29L238.896 7.35C238.116 8.91 237.171 10.935 236.751 11.955C236.676 12.135 236.601 12.18 236.211 12.18C235.821 12.18 235.746 12.135 235.671 11.955C235.251 10.935 234.366 8.91 233.616 7.35L231.081 2.07C231.006 1.92 231.006 1.905 230.856 1.86L230.391 1.74C230.301 1.71 230.271 1.68 230.271 1.41C230.271 1.14 230.301 1.095 230.391 1.095C230.736 1.095 231.711 1.2 232.806 1.2C233.601 1.2 235.821 1.095 236.166 1.095C236.256 1.095 236.286 1.14 236.286 1.41C236.286 1.68 236.256 1.725 236.166 1.74L235.281 1.86C235.131 1.875 235.101 1.92 235.176 2.07L237.831 7.62L239.016 4.365C239.766 2.28 239.661 2.19 239.226 2.025L238.446 1.74C238.356 1.71 238.326 1.665 238.326 1.395C238.326 1.125 238.356 1.095 238.446 1.095C238.791 1.095 239.751 1.2 240.546 1.2C241.341 1.2 242.091 1.095 242.436 1.095ZM263.112 7.71C263.352 7.71 263.817 7.83 263.787 7.98C263.577 9.21 263.292 10.665 263.052 11.775C262.992 12.075 262.962 12.105 262.662 12.105C261.642 12.105 260.307 12 258.672 12H257.097C255.102 12 253.332 12.105 252.987 12.105C252.897 12.105 252.867 12.06 252.867 11.79C252.867 11.52 252.897 11.475 252.987 11.46L253.647 11.355C253.797 11.325 253.827 11.295 253.827 11.145V2.055C253.827 1.905 253.797 1.875 253.647 1.845L252.987 1.74C252.897 1.725 252.867 1.68 252.867 1.41C252.867 1.14 252.897 1.095 252.987 1.095C253.332 1.095 254.892 1.2 257.637 1.2H257.952C259.647 1.2 262.257 1.11 263.097 1.11C263.397 1.11 263.427 1.14 263.427 1.44C263.427 2.505 263.352 3.63 263.202 4.905C263.187 5.025 263.142 5.055 262.797 5.055C262.452 5.055 262.407 5.025 262.362 4.905C261.957 3.735 261.852 3.33 261.477 2.445C261.357 2.16 261.252 2.1 260.952 2.055C260.202 1.95 258.522 1.83 257.952 1.83H257.892C257.742 1.83 257.712 1.86 257.712 2.01V6.045H258.822C259.122 6.045 259.182 6 259.317 5.7L260.022 4.125C260.067 4.035 260.082 4.02 260.427 4.02C260.772 4.02 260.802 4.05 260.802 4.17C260.802 5.04 260.787 5.565 260.787 6.42C260.787 7.275 260.802 7.8 260.802 8.67C260.802 8.79 260.772 8.82 260.427 8.82C260.082 8.82 260.067 8.805 260.022 8.715L259.317 7.14C259.182 6.84 259.122 6.795 258.822 6.795H257.712V10.575C257.712 10.815 257.787 10.995 257.952 11.16C258.102 11.31 258.282 11.37 258.477 11.37C259.047 11.37 260.022 11.28 260.757 11.13C261.057 11.07 261.147 11.01 261.327 10.71C261.852 9.81 262.377 8.805 262.932 7.83C262.992 7.725 263.022 7.71 263.112 7.71ZM287.276 11.445C287.366 11.46 287.396 11.505 287.396 11.775C287.396 12.045 287.366 12.09 287.276 12.09C287.156 12.09 285.731 12.015 284.636 12.015C283.796 12.015 282.881 12.09 282.686 12.09C282.506 12.09 282.416 12.03 282.326 11.865C281.651 10.62 280.886 9.18 280.001 7.785C279.671 7.26 279.581 7.2 279.116 7.17H279.056V11.145C279.056 11.295 279.086 11.325 279.236 11.355L279.896 11.46C279.986 11.475 280.016 11.52 280.016 11.79C280.016 12.06 279.986 12.105 279.896 12.105C279.551 12.105 278.366 12 277.121 12C275.876 12 274.676 12.105 274.331 12.105C274.241 12.105 274.211 12.06 274.211 11.79C274.211 11.52 274.241 11.475 274.331 11.46L274.991 11.355C275.141 11.325 275.171 11.295 275.171 11.145V2.055C275.171 1.905 275.141 1.875 274.991 1.845L274.331 1.74C274.241 1.725 274.211 1.68 274.211 1.41C274.211 1.14 274.241 1.095 274.331 1.095C275.201 1.095 276.371 1.2 277.796 1.2H278.606C279.146 1.2 280.811 1.14 281.831 1.14C284.351 1.14 285.491 2.175 285.491 3.765C285.491 4.965 284.786 5.97 283.316 6.465C283.646 7.095 283.991 7.635 284.801 8.91C286.106 10.935 286.406 11.34 286.916 11.4L287.276 11.445ZM279.056 6.465C279.176 6.495 279.371 6.525 279.641 6.525C280.436 6.525 281.396 6.075 281.396 4.23C281.396 2.835 280.706 1.8 279.326 1.8H279.236C279.086 1.8 279.056 1.83 279.056 1.98V6.465ZM297.963 8.04C297.978 7.92 298.023 7.89 298.368 7.89C298.713 7.89 298.758 7.92 298.803 8.04C299.193 9.075 299.778 10.41 300.258 10.89C300.678 11.31 301.113 11.58 301.833 11.58C302.913 11.58 303.438 11.025 303.438 10.185C303.438 9.375 303.123 8.82 301.473 8.22C298.818 7.26 297.903 6.195 297.903 4.41C297.903 2.34 300.108 1.02 303.783 1.02C304.398 1.02 304.983 1.065 305.658 1.2C305.958 1.26 305.988 1.29 305.988 1.59V4.26C305.988 4.38 305.928 4.41 305.583 4.41C305.238 4.41 305.193 4.38 305.148 4.26C304.878 3.54 304.608 2.655 304.218 2.265C303.798 1.845 303.408 1.68 302.838 1.68C302.073 1.68 301.518 2.1 301.518 2.94C301.518 3.84 301.893 4.32 303.273 4.845C305.883 5.835 306.858 6.9 306.858 8.49C306.858 10.665 304.923 12.24 301.728 12.24C300.333 12.24 299.163 12.075 298.083 11.79C297.783 11.715 297.753 11.67 297.753 11.37C297.753 10.425 297.903 8.4 297.963 8.04ZM323.29 11.79C323.29 12.06 323.26 12.105 323.17 12.105C322.825 12.105 321.64 12 320.395 12C319.15 12 317.95 12.105 317.605 12.105C317.515 12.105 317.485 12.06 317.485 11.79C317.485 11.52 317.515 11.475 317.605 11.46L318.265 11.355C318.415 11.325 318.445 11.295 318.445 11.145V2.055C318.445 1.905 318.415 1.875 318.265 1.845L317.605 1.74C317.515 1.725 317.485 1.68 317.485 1.41C317.485 1.14 317.515 1.095 317.605 1.095C317.95 1.095 319.135 1.2 320.38 1.2C321.625 1.2 322.825 1.095 323.17 1.095C323.26 1.095 323.29 1.14 323.29 1.41C323.29 1.68 323.26 1.725 323.17 1.74L322.51 1.845C322.36 1.875 322.33 1.905 322.33 2.055V11.145C322.33 11.295 322.36 11.325 322.51 11.355L323.17 11.46C323.26 11.475 323.29 11.52 323.29 11.79ZM343.028 11.79C343.028 12.06 342.998 12.105 342.908 12.105C342.563 12.105 341.378 12 339.833 12C338.588 12 337.088 12.105 336.743 12.105C336.653 12.105 336.623 12.06 336.623 11.79C336.623 11.52 336.653 11.475 336.743 11.46L337.703 11.355C337.853 11.34 337.883 11.295 337.883 11.145V2.01C337.883 1.86 337.853 1.83 337.703 1.83H337.643C337.418 1.83 336.818 1.89 336.218 2.025C335.918 2.085 335.858 2.145 335.693 2.415C335.183 3.3 334.883 3.81 334.238 4.905C334.163 5.025 334.148 5.055 334.028 5.055C333.788 5.055 333.398 4.905 333.398 4.785C333.398 4.08 334.058 1.515 334.358 0.404999C334.403 0.254999 334.703 0.164999 334.898 0.164999C334.988 0.164999 335.018 0.21 335.063 0.285C335.213 0.524999 335.363 0.765 335.513 0.975C335.603 1.095 335.618 1.11 335.738 1.125C336.608 1.185 336.983 1.2 337.643 1.2H342.008C343.268 1.2 343.898 1.185 344.768 1.125C344.888 1.11 344.903 1.095 344.993 0.975C345.143 0.765 345.293 0.524999 345.443 0.285C345.488 0.21 345.518 0.164999 345.608 0.164999C345.803 0.164999 346.148 0.254999 346.148 0.404999C346.148 1.515 346.073 3.6 345.908 4.905C345.893 5.025 345.848 5.055 345.503 5.055C345.158 5.055 345.113 5.025 345.068 4.905C344.663 3.735 344.558 3.3 344.183 2.415C344.063 2.13 343.958 2.085 343.658 2.025C343.058 1.89 342.233 1.83 342.008 1.83H341.948C341.798 1.83 341.768 1.86 341.768 2.01V11.145C341.768 11.295 341.798 11.34 341.948 11.355L342.908 11.46C342.998 11.475 343.028 11.52 343.028 11.79ZM368.493 1.095C368.583 1.095 368.613 1.125 368.613 1.395C368.613 1.665 368.583 1.695 368.493 1.74L367.998 1.965C367.548 2.175 367.518 2.22 366.108 4.41L364.278 7.26V11.145C364.278 11.295 364.308 11.34 364.458 11.355L365.418 11.46C365.508 11.475 365.538 11.52 365.538 11.79C365.538 12.06 365.508 12.105 365.418 12.105C365.073 12.105 363.888 12 362.343 12C361.098 12 359.598 12.105 359.253 12.105C359.163 12.105 359.133 12.06 359.133 11.79C359.133 11.52 359.163 11.475 359.253 11.46L360.213 11.355C360.363 11.34 360.393 11.295 360.393 11.145V7.23L357.213 2.07C357.123 1.92 357.063 1.905 356.913 1.86L356.448 1.74C356.358 1.71 356.328 1.68 356.328 1.41C356.328 1.14 356.358 1.095 356.448 1.095C356.793 1.095 357.768 1.2 358.863 1.2C359.658 1.2 361.803 1.095 362.148 1.095C362.238 1.095 362.268 1.14 362.268 1.41C362.268 1.68 362.238 1.725 362.148 1.74L361.263 1.86C361.113 1.875 361.143 1.92 361.233 2.07L363.903 6.6L364.923 4.35C365.868 2.25 365.763 2.175 365.313 2.025L364.503 1.74C364.413 1.71 364.383 1.665 364.383 1.395C364.383 1.125 364.413 1.095 364.503 1.095C364.848 1.095 365.808 1.2 366.603 1.2C367.398 1.2 368.148 1.095 368.493 1.095Z" fill="black"/>
</svg>
