<svg width="135" height="19" viewBox="0 0 135 19" fill="none" xmlns="http://www.w3.org/2000/svg">
<path d="M9.76562 9.52539H7.02148C6.31185 8.23633 5.78125 7.34115 5.42969 6.83984C5.01953 7.39323 4.4401 7.95312 3.69141 8.51953H5.0293C5.52409 8.95573 5.87891 9.31706 6.09375 9.60352C6.25651 9.82487 6.45508 10.1504 6.68945 10.5801H4.08203C3.92578 9.86393 3.6849 9.25195 3.35938 8.74414C2.64323 9.23242 1.75781 9.6849 0.703125 10.1016V8.64648C1.66667 8.02148 2.40234 7.35417 2.91016 6.64453C3.3138 6.08464 3.63607 5.43685 3.87695 4.70117H6.5332C6.42904 4.98112 6.30859 5.28385 6.17188 5.60938C6.9987 6.26693 7.69857 6.91146 8.27148 7.54297C8.75326 8.0638 9.2513 8.72461 9.76562 9.52539V7.36719H12.1191L12.5098 6.41016H9.08203V4.80859H18.7207V6.41016H15.0781L14.707 7.36719H16.4551C17.0215 7.36719 17.4349 7.4974 17.6953 7.75781C17.9557 8.01823 18.0859 8.43164 18.0859 8.99805V15.9023H9.76562V9.52539ZM12.2949 12.084H15.0098L15.4883 13.4219H12.2949V14.4375H15.5566V8.83203H12.2949V9.79883H15.0098L15.4883 11.1465H12.2949V12.084ZM8.54492 2.52344V0.287109H11.4746V2.52344H15V0.716797H17.8027V4.125H3.85742C3.29102 4.125 2.8776 3.99479 2.61719 3.73438C2.35677 3.47396 2.22656 3.06055 2.22656 2.49414V0.716797H5.0293V2.52344H8.54492ZM5.72266 16.0879C6.53646 16.8757 7.22331 17.6829 7.7832 18.5098H4.74609C4.08203 17.097 3.04688 15.6745 1.64062 14.2422H3.4082C3.87044 14.5612 4.24805 14.8314 4.54102 15.0527C5.25065 14.3431 5.8431 13.5749 6.31836 12.748H1.19141V11.1465H8.99414V12.748C7.98503 14.1608 6.89453 15.2741 5.72266 16.0879ZM16.0938 16.1758C17.2917 16.8138 18.4408 17.6081 19.541 18.5586H16.748C16.1947 17.875 15.332 17.0807 14.1602 16.1758H16.0938ZM11.0352 16.1758H13.7793C13.1283 16.8529 12.4023 17.3672 11.6016 17.7188C10.8138 18.0638 9.81771 18.3503 8.61328 18.5781V17.4941C9.29036 17.2728 9.77865 17.0775 10.0781 16.9082C10.3776 16.7454 10.6966 16.5013 11.0352 16.1758Z" fill="#C02739"/>
<path d="M37.5035 14.4277H33.9781V12.6992H37.5035V11.3125H34.2906V9.57422H35.6871C35.5699 9.05339 35.3421 8.41536 35.0035 7.66016H37.0641C37.5589 8.40234 37.9299 9.04036 38.1773 9.57422H39.2125C39.6292 9.13151 40.023 8.49349 40.3941 7.66016H42.3082C42.2431 8.38932 42.152 9.02734 42.0348 9.57422H43.5094V11.3125H40.1695V12.6992H43.9V14.4277H40.1695V18.0996H37.5035V14.4277ZM40.3941 5.3457H45.1012C45.5243 5.3457 45.8336 5.38477 46.0289 5.46289C46.4195 5.61914 46.693 5.89258 46.8492 6.2832C46.9273 6.47852 46.9664 6.78776 46.9664 7.21094V16.8008C46.9664 17.224 46.9273 17.5332 46.8492 17.7285C46.693 18.1191 46.4195 18.3926 46.0289 18.5488C45.8336 18.627 45.5243 18.666 45.1012 18.666H42.318L41.7906 16.8008H44.3004V7.21094H33.5484V18.666H30.8824V5.3457H37.4547V3.83203H29.9156V1.9668H37.4547V0.267578H40.3941V1.9668H47.8844V3.83203H40.3941V5.3457Z" fill="#29C7AC"/>
<path d="M61.4133 9.7793V11.5957H59.0207V8.17773H60.3488V0.736328H62.1359C62.4875 0.736328 62.6828 0.593099 62.7219 0.306641H65.0168C65.0103 0.938151 64.8964 1.38737 64.675 1.6543C64.3299 2.07096 63.7342 2.29232 62.8879 2.31836V3.08984H64.8215V4.69141H62.8879V5.59961H64.8215V7.20117H62.8879V8.17773H64.9973V7.07422C65.8306 6.65755 66.4068 6.32878 66.7258 6.08789C66.3156 5.86003 65.772 5.57357 65.0949 5.22852V4.02734C66.078 4.33333 66.9797 4.66536 67.8 5.02344C68.0018 4.77604 68.2102 4.44401 68.425 4.02734H70.0949C69.5676 3.6888 68.884 3.29167 68.0441 2.83594C67.341 3.22656 66.3482 3.59766 65.0656 3.94922V2.75781C65.6451 2.51042 66.1268 2.2793 66.5109 2.06445C66.4654 2.04492 66.4263 2.02865 66.3937 2.01562C66.1333 1.88542 65.7687 1.70638 65.3 1.47852V0.150391C66.4068 0.541016 67.2759 0.863281 67.9074 1.11719C68.1548 0.902344 68.4055 0.615885 68.6594 0.257812H70.9445C70.5799 0.817708 70.1177 1.33203 69.5578 1.80078C69.8182 1.92448 70.1014 2.07422 70.4074 2.25V4.02734H70.7785C70.3033 4.83464 69.8736 5.43359 69.4895 5.82422L69.7141 5.94141L69.9094 6.0293L70.4562 6.3125V8.17773H72.7316V7.15234H70.8371V5.55078H72.7316V4.80859H70.8371V3.20703H72.7316V2.40625H70.7297V0.804688H73.6301C74.1965 0.804688 74.6099 0.934896 74.8703 1.19531C75.1307 1.45573 75.2609 1.86914 75.2609 2.43555V8.17773H75.3586C75.8143 8.17773 76.1464 8.2819 76.3547 8.49023C76.563 8.69857 76.6672 9.0306 76.6672 9.48633V11.5957H74.2648V9.7793H61.4133ZM65.6027 8.17773H70.1828L69.5676 7.78711L69.2941 7.62109L68.6398 7.2207L68.1711 6.9375C67.4029 7.45182 66.5467 7.86523 65.6027 8.17773ZM69.5383 15.1211V16.3418C69.5383 16.7845 69.4992 17.1068 69.4211 17.3086C69.2518 17.7188 68.9621 18.0052 68.552 18.168C68.3566 18.2461 68.0344 18.2852 67.5852 18.2852H63.9426L63.4836 16.6836H66.4719V15.1211H58.6594V13.3926H66.4719V12.9141L68.8937 11.8398H62.4582V10.2383H73.1516V11.8398L69.7922 13.3926H76.9699V15.1211H69.5383ZM98.5359 6.17578V9.87695H104.063V11.7422H98.5359V16.2344H105.704V18.0996H87.8523V16.2344H95.6062V11.7422H90.2645V9.87695H95.6062V6.17578H92.032C91.8693 6.46224 91.6805 6.75521 91.4656 7.05469C91.0685 7.60156 90.6388 8.06706 90.1766 8.45117C89.7078 8.83529 88.9786 9.32031 87.9891 9.90625V8.10938C88.7508 7.28255 89.2814 6.58919 89.5809 6.0293C89.8999 5.43034 90.1408 4.79883 90.3035 4.13477C90.4663 3.4707 90.603 2.54297 90.7137 1.35156H93.6238C93.4415 2.56901 93.2104 3.55534 92.9305 4.31055H95.6062V0.277344H98.5359V4.31055H105.059V6.17578H98.5359ZM127.133 0.326172L127.153 0.306641L127.162 0.326172H127.172C127.901 1.12044 128.78 1.80729 129.809 2.38672C130.675 2.875 131.603 3.2819 132.592 3.60742C133.126 3.7832 133.894 3.99479 134.897 4.24219V5.84375C132.957 5.47266 131.573 5.15365 130.746 4.88672C130.401 4.77604 129.887 4.59049 129.204 4.33008L129.389 4.95508H121.987L121.801 4.33008C120.297 4.93555 118.491 5.4401 116.381 5.84375V4.24219C118.172 3.77344 119.702 3.22982 120.971 2.61133C121.811 2.20768 122.478 1.78125 122.973 1.33203C123.22 1.10417 123.536 0.76888 123.92 0.326172H127.133ZM125.414 2.20117C124.881 2.68945 124.275 3.11914 123.598 3.49023H127.377C126.746 3.15169 126.092 2.72201 125.414 2.20117ZM130.161 7.31836C130.05 8.02148 129.851 8.64974 129.565 9.20312H126.948C127.638 8.61719 128.175 7.98893 128.559 7.31836H130.161ZM122.534 7.31836C123.133 7.8457 123.614 8.47396 123.979 9.20312H121.489C121.391 8.53255 121.189 7.9043 120.883 7.31836H122.534ZM118.149 10.9902V5.54102H131.44C132.006 5.54102 132.42 5.67122 132.68 5.93164C132.94 6.19206 133.071 6.60547 133.071 7.17188V10.9902H118.149ZM124.321 6.87891H120.678V9.65234H124.321V6.87891ZM126.723 6.87891V9.65234H130.541V6.87891H126.723ZM118.901 18.0996V11.5957H130.659C131.225 11.5957 131.638 11.7259 131.899 11.9863C132.159 12.2467 132.289 12.6602 132.289 13.2266V18.0996H118.901ZM121.704 16.6445H129.487V13.0605H121.704V14.1055H128.774L129.35 15.4434H121.704V16.6445Z" fill="black"/>
</svg>
