<svg width="267" height="13" viewBox="0 0 267 13" fill="none" xmlns="http://www.w3.org/2000/svg">
<path d="M0.51 8.04C0.525 7.92 0.57 7.89 0.915 7.89C1.26 7.89 1.305 7.92 1.35 8.04C1.74 9.075 2.325 10.41 2.805 10.89C3.225 11.31 3.66 11.58 4.38 11.58C5.46 11.58 5.985 11.025 5.985 10.185C5.985 9.375 5.67 8.82 4.02 8.22C1.365 7.26 0.45 6.195 0.45 4.41C0.45 2.34 2.655 1.02 6.33 1.02C6.945 1.02 7.53 1.065 8.205 1.2C8.505 1.26 8.535 1.29 8.535 1.59V4.26C8.535 4.38 8.475 4.41 8.13 4.41C7.785 4.41 7.74 4.38 7.695 4.26C7.425 3.54 7.155 2.655 6.765 2.265C6.345 1.845 5.955 1.68 5.385 1.68C4.62 1.68 4.065 2.1 4.065 2.94C4.065 3.84 4.44 4.32 5.82 4.845C8.43 5.835 9.405 6.9 9.405 8.49C9.405 10.665 7.47 12.24 4.275 12.24C2.88 12.24 1.71 12.075 0.63 11.79C0.33 11.715 0.3 11.67 0.3 11.37C0.3 10.425 0.45 8.4 0.51 8.04ZM28.8889 11.79C28.8889 12.06 28.8589 12.105 28.7689 12.105C28.4239 12.105 27.2389 12 25.6939 12C24.4489 12 22.9489 12.105 22.6039 12.105C22.5139 12.105 22.4839 12.06 22.4839 11.79C22.4839 11.52 22.5139 11.475 22.6039 11.46L23.5639 11.355C23.7139 11.34 23.7439 11.295 23.7439 11.145V2.01C23.7439 1.86 23.7139 1.83 23.5639 1.83H23.5039C23.2789 1.83 22.6789 1.89 22.0789 2.025C21.7789 2.085 21.7189 2.145 21.5539 2.415C21.0439 3.3 20.7439 3.81 20.0989 4.905C20.0239 5.025 20.0089 5.055 19.8889 5.055C19.6489 5.055 19.2589 4.905 19.2589 4.785C19.2589 4.08 19.9189 1.515 20.2189 0.404999C20.2639 0.254999 20.5639 0.164999 20.7589 0.164999C20.8489 0.164999 20.8789 0.21 20.9239 0.285C21.0739 0.524999 21.2239 0.765 21.3739 0.975C21.4639 1.095 21.4789 1.11 21.5989 1.125C22.4689 1.185 22.8439 1.2 23.5039 1.2H27.8689C29.1289 1.2 29.7589 1.185 30.6289 1.125C30.7489 1.11 30.7639 1.095 30.8539 0.975C31.0039 0.765 31.1539 0.524999 31.3039 0.285C31.3489 0.21 31.3789 0.164999 31.4689 0.164999C31.6639 0.164999 32.0089 0.254999 32.0089 0.404999C32.0089 1.515 31.9339 3.6 31.7689 4.905C31.7539 5.025 31.7089 5.055 31.3639 5.055C31.0189 5.055 30.9739 5.025 30.9289 4.905C30.5239 3.735 30.4189 3.3 30.0439 2.415C29.9239 2.13 29.8189 2.085 29.5189 2.025C28.9189 1.89 28.0939 1.83 27.8689 1.83H27.8089C27.6589 1.83 27.6289 1.86 27.6289 2.01V11.145C27.6289 11.295 27.6589 11.34 27.8089 11.355L28.7689 11.46C28.8589 11.475 28.8889 11.52 28.8889 11.79ZM48.133 12.24C44.668 12.24 43.138 10.74 43.138 8.505V2.055C43.138 1.905 43.108 1.875 42.958 1.845L42.298 1.74C42.208 1.725 42.178 1.68 42.178 1.41C42.178 1.14 42.208 1.095 42.298 1.095C42.643 1.095 43.828 1.2 45.073 1.2C46.318 1.2 47.518 1.095 47.863 1.095C47.953 1.095 47.983 1.14 47.983 1.41C47.983 1.68 47.953 1.725 47.863 1.74L47.203 1.845C47.053 1.875 47.023 1.905 47.023 2.055V8.19C47.023 10.23 47.983 10.95 49.513 10.95C51.163 10.95 52.123 10.065 52.018 7.845L51.853 4.29C51.763 2.19 51.658 2.115 51.223 1.98L50.413 1.74C50.323 1.71 50.293 1.68 50.293 1.41C50.293 1.14 50.323 1.095 50.413 1.095C50.758 1.095 51.478 1.2 52.453 1.2C53.398 1.2 54.073 1.095 54.418 1.095C54.508 1.095 54.538 1.14 54.538 1.41C54.538 1.68 54.508 1.71 54.418 1.74L53.758 1.98C53.308 2.145 53.233 2.19 53.188 4.29L53.143 6.765C53.128 7.29 53.143 7.995 53.143 8.37C53.143 10.695 52.108 12.24 48.133 12.24ZM77.5007 6.585C77.5007 10.29 74.4407 12.105 71.4857 12.105C70.6007 12.105 69.5807 12 68.5307 12H68.3057C66.3107 12 65.4407 12.105 65.0957 12.105C65.0057 12.105 64.9757 12.06 64.9757 11.79C64.9757 11.52 65.0057 11.475 65.0957 11.46L65.7557 11.355C65.9057 11.325 65.9357 11.295 65.9357 11.145V2.055C65.9357 1.905 65.9057 1.875 65.7557 1.845L65.0957 1.74C65.0057 1.725 64.9757 1.68 64.9757 1.41C64.9757 1.14 65.0057 1.095 65.0957 1.095C65.4407 1.095 66.8507 1.2 68.2457 1.2H68.5607C69.1607 1.2 70.8707 1.095 71.4857 1.095C75.2957 1.095 77.5007 3.465 77.5007 6.585ZM70.6457 11.37C72.4007 11.37 73.3007 9.63 73.3007 7.725C73.3007 5.37 72.7307 3.645 71.6807 2.595C71.0807 1.995 70.6157 1.83 70.0607 1.83H70.0007C69.8507 1.83 69.8207 1.86 69.8207 2.01V10.425C69.8207 10.845 69.8807 10.965 70.0457 11.13C70.1957 11.28 70.4057 11.37 70.6457 11.37ZM98.5128 7.71C98.7528 7.71 99.2178 7.83 99.1878 7.98C98.9778 9.21 98.6928 10.665 98.4528 11.775C98.3928 12.075 98.3628 12.105 98.0628 12.105C97.0428 12.105 95.7078 12 94.0728 12H92.4978C90.5028 12 88.7328 12.105 88.3878 12.105C88.2978 12.105 88.2678 12.06 88.2678 11.79C88.2678 11.52 88.2978 11.475 88.3878 11.46L89.0478 11.355C89.1978 11.325 89.2278 11.295 89.2278 11.145V2.055C89.2278 1.905 89.1978 1.875 89.0478 1.845L88.3878 1.74C88.2978 1.725 88.2678 1.68 88.2678 1.41C88.2678 1.14 88.2978 1.095 88.3878 1.095C88.7328 1.095 90.2928 1.2 93.0378 1.2H93.3528C95.0478 1.2 97.6578 1.11 98.4978 1.11C98.7978 1.11 98.8278 1.14 98.8278 1.44C98.8278 2.505 98.7528 3.63 98.6028 4.905C98.5878 5.025 98.5428 5.055 98.1978 5.055C97.8528 5.055 97.8078 5.025 97.7628 4.905C97.3578 3.735 97.2528 3.33 96.8778 2.445C96.7578 2.16 96.6528 2.1 96.3528 2.055C95.6028 1.95 93.9228 1.83 93.3528 1.83H93.2928C93.1428 1.83 93.1128 1.86 93.1128 2.01V6.045H94.2228C94.5228 6.045 94.5828 6 94.7178 5.7L95.4228 4.125C95.4678 4.035 95.4828 4.02 95.8278 4.02C96.1728 4.02 96.2028 4.05 96.2028 4.17C96.2028 5.04 96.1878 5.565 96.1878 6.42C96.1878 7.275 96.2028 7.8 96.2028 8.67C96.2028 8.79 96.1728 8.82 95.8278 8.82C95.4828 8.82 95.4678 8.805 95.4228 8.715L94.7178 7.14C94.5828 6.84 94.5228 6.795 94.2228 6.795H93.1128V10.575C93.1128 10.815 93.1878 10.995 93.3528 11.16C93.5028 11.31 93.6828 11.37 93.8778 11.37C94.4478 11.37 95.4228 11.28 96.1578 11.13C96.4578 11.07 96.5478 11.01 96.7278 10.71C97.2528 9.81 97.7778 8.805 98.3328 7.83C98.3928 7.725 98.4228 7.71 98.5128 7.71ZM122.152 1.095C122.242 1.095 122.272 1.14 122.272 1.41C122.272 1.68 122.242 1.71 122.152 1.74L121.492 1.98C121.042 2.145 121.027 2.19 120.922 4.29L120.787 7.185C120.757 7.71 120.757 7.935 120.757 8.31C120.742 9.18 120.832 10.98 120.832 11.49V11.79C120.832 12.09 120.802 12.12 120.502 12.12H120.292C119.992 12.12 119.932 12.09 119.632 11.82L112.027 4.995L112.357 8.925C112.492 11.025 112.552 11.085 112.987 11.22L113.797 11.46C113.887 11.49 113.917 11.52 113.917 11.79C113.917 12.06 113.887 12.105 113.797 12.105C113.452 12.105 112.657 12 111.682 12C110.737 12 109.987 12.105 109.642 12.105C109.552 12.105 109.522 12.06 109.522 11.79C109.522 11.52 109.552 11.49 109.642 11.46L110.302 11.22C110.752 11.055 110.797 11.025 110.872 8.925L111.097 2.64C111.112 2.19 110.917 1.92 110.467 1.845L109.807 1.74C109.717 1.725 109.687 1.68 109.687 1.41C109.687 1.14 109.717 1.095 109.807 1.095C110.002 1.095 111.187 1.2 111.682 1.2C112.177 1.2 112.852 1.17 113.407 1.17C113.557 1.17 113.602 1.185 113.752 1.32L119.647 6.555L119.437 4.29C119.302 2.19 119.242 2.115 118.807 1.98L117.997 1.74C117.907 1.71 117.877 1.68 117.877 1.41C117.877 1.14 117.907 1.095 117.997 1.095C118.342 1.095 119.137 1.2 120.112 1.2C121.057 1.2 121.807 1.095 122.152 1.095ZM141.644 11.79C141.644 12.06 141.614 12.105 141.524 12.105C141.179 12.105 139.994 12 138.449 12C137.204 12 135.704 12.105 135.359 12.105C135.269 12.105 135.239 12.06 135.239 11.79C135.239 11.52 135.269 11.475 135.359 11.46L136.319 11.355C136.469 11.34 136.499 11.295 136.499 11.145V2.01C136.499 1.86 136.469 1.83 136.319 1.83H136.259C136.034 1.83 135.434 1.89 134.834 2.025C134.534 2.085 134.474 2.145 134.309 2.415C133.799 3.3 133.499 3.81 132.854 4.905C132.779 5.025 132.764 5.055 132.644 5.055C132.404 5.055 132.014 4.905 132.014 4.785C132.014 4.08 132.674 1.515 132.974 0.404999C133.019 0.254999 133.319 0.164999 133.514 0.164999C133.604 0.164999 133.634 0.21 133.679 0.285C133.829 0.524999 133.979 0.765 134.129 0.975C134.219 1.095 134.234 1.11 134.354 1.125C135.224 1.185 135.599 1.2 136.259 1.2H140.624C141.884 1.2 142.514 1.185 143.384 1.125C143.504 1.11 143.519 1.095 143.609 0.975C143.759 0.765 143.909 0.524999 144.059 0.285C144.104 0.21 144.134 0.164999 144.224 0.164999C144.419 0.164999 144.764 0.254999 144.764 0.404999C144.764 1.515 144.689 3.6 144.524 4.905C144.509 5.025 144.464 5.055 144.119 5.055C143.774 5.055 143.729 5.025 143.684 4.905C143.279 3.735 143.174 3.3 142.799 2.415C142.679 2.13 142.574 2.085 142.274 2.025C141.674 1.89 140.849 1.83 140.624 1.83H140.564C140.414 1.83 140.384 1.86 140.384 2.01V11.145C140.384 11.295 140.414 11.34 140.564 11.355L141.524 11.46C141.614 11.475 141.644 11.52 141.644 11.79ZM174.395 12.24C170.93 12.24 169.4 10.74 169.4 8.505V2.055C169.4 1.905 169.37 1.875 169.22 1.845L168.56 1.74C168.47 1.725 168.44 1.68 168.44 1.41C168.44 1.14 168.47 1.095 168.56 1.095C168.905 1.095 170.09 1.2 171.335 1.2C172.58 1.2 173.78 1.095 174.125 1.095C174.215 1.095 174.245 1.14 174.245 1.41C174.245 1.68 174.215 1.725 174.125 1.74L173.465 1.845C173.315 1.875 173.285 1.905 173.285 2.055V8.19C173.285 10.23 174.245 10.95 175.775 10.95C177.425 10.95 178.385 10.065 178.28 7.845L178.115 4.29C178.025 2.19 177.92 2.115 177.485 1.98L176.675 1.74C176.585 1.71 176.555 1.68 176.555 1.41C176.555 1.14 176.585 1.095 176.675 1.095C177.02 1.095 177.74 1.2 178.715 1.2C179.66 1.2 180.335 1.095 180.68 1.095C180.77 1.095 180.8 1.14 180.8 1.41C180.8 1.68 180.77 1.71 180.68 1.74L180.02 1.98C179.57 2.145 179.495 2.19 179.45 4.29L179.405 6.765C179.39 7.29 179.405 7.995 179.405 8.37C179.405 10.695 178.37 12.24 174.395 12.24ZM203.778 1.095C203.868 1.095 203.898 1.14 203.898 1.41C203.898 1.68 203.868 1.71 203.778 1.74L203.118 1.98C202.668 2.145 202.653 2.19 202.548 4.29L202.413 7.185C202.383 7.71 202.383 7.935 202.383 8.31C202.368 9.18 202.458 10.98 202.458 11.49V11.79C202.458 12.09 202.428 12.12 202.128 12.12H201.918C201.618 12.12 201.558 12.09 201.258 11.82L193.653 4.995L193.983 8.925C194.118 11.025 194.178 11.085 194.613 11.22L195.423 11.46C195.513 11.49 195.543 11.52 195.543 11.79C195.543 12.06 195.513 12.105 195.423 12.105C195.078 12.105 194.283 12 193.308 12C192.363 12 191.613 12.105 191.268 12.105C191.178 12.105 191.148 12.06 191.148 11.79C191.148 11.52 191.178 11.49 191.268 11.46L191.928 11.22C192.378 11.055 192.423 11.025 192.498 8.925L192.723 2.64C192.738 2.19 192.543 1.92 192.093 1.845L191.433 1.74C191.343 1.725 191.313 1.68 191.313 1.41C191.313 1.14 191.343 1.095 191.433 1.095C191.628 1.095 192.813 1.2 193.308 1.2C193.803 1.2 194.478 1.17 195.033 1.17C195.183 1.17 195.228 1.185 195.378 1.32L201.273 6.555L201.063 4.29C200.928 2.19 200.868 2.115 200.433 1.98L199.623 1.74C199.533 1.71 199.503 1.68 199.503 1.41C199.503 1.14 199.533 1.095 199.623 1.095C199.968 1.095 200.763 1.2 201.738 1.2C202.683 1.2 203.433 1.095 203.778 1.095ZM219.925 11.79C219.925 12.06 219.895 12.105 219.805 12.105C219.46 12.105 218.275 12 217.03 12C215.785 12 214.585 12.105 214.24 12.105C214.15 12.105 214.12 12.06 214.12 11.79C214.12 11.52 214.15 11.475 214.24 11.46L214.9 11.355C215.05 11.325 215.08 11.295 215.08 11.145V2.055C215.08 1.905 215.05 1.875 214.9 1.845L214.24 1.74C214.15 1.725 214.12 1.68 214.12 1.41C214.12 1.14 214.15 1.095 214.24 1.095C214.585 1.095 215.77 1.2 217.015 1.2C218.26 1.2 219.46 1.095 219.805 1.095C219.895 1.095 219.925 1.14 219.925 1.41C219.925 1.68 219.895 1.725 219.805 1.74L219.145 1.845C218.995 1.875 218.965 1.905 218.965 2.055V11.145C218.965 11.295 218.995 11.325 219.145 11.355L219.805 11.46C219.895 11.475 219.925 11.52 219.925 11.79ZM230.692 6.735C230.692 3.21 233.152 1.02 237.007 1.02C240.337 1.02 242.782 3.06 242.782 6.54C242.782 10.065 240.322 12.24 236.452 12.24C233.137 12.24 230.692 10.185 230.692 6.735ZM234.727 3.855C234.727 6.78 235.702 10.08 236.752 11.13C237.052 11.43 237.367 11.52 237.637 11.52C238.387 11.52 238.747 10.995 238.747 9.42C238.747 6.48 237.772 3.18 236.722 2.13C236.422 1.83 236.107 1.74 235.837 1.74C235.087 1.74 234.727 2.265 234.727 3.855ZM266.096 1.095C266.186 1.095 266.216 1.14 266.216 1.41C266.216 1.68 266.186 1.71 266.096 1.74L265.436 1.98C264.986 2.145 264.971 2.19 264.866 4.29L264.731 7.185C264.701 7.71 264.701 7.935 264.701 8.31C264.686 9.18 264.776 10.98 264.776 11.49V11.79C264.776 12.09 264.746 12.12 264.446 12.12H264.236C263.936 12.12 263.876 12.09 263.576 11.82L255.971 4.995L256.301 8.925C256.436 11.025 256.496 11.085 256.931 11.22L257.741 11.46C257.831 11.49 257.861 11.52 257.861 11.79C257.861 12.06 257.831 12.105 257.741 12.105C257.396 12.105 256.601 12 255.626 12C254.681 12 253.931 12.105 253.586 12.105C253.496 12.105 253.466 12.06 253.466 11.79C253.466 11.52 253.496 11.49 253.586 11.46L254.246 11.22C254.696 11.055 254.741 11.025 254.816 8.925L255.041 2.64C255.056 2.19 254.861 1.92 254.411 1.845L253.751 1.74C253.661 1.725 253.631 1.68 253.631 1.41C253.631 1.14 253.661 1.095 253.751 1.095C253.946 1.095 255.131 1.2 255.626 1.2C256.121 1.2 256.796 1.17 257.351 1.17C257.501 1.17 257.546 1.185 257.696 1.32L263.591 6.555L263.381 4.29C263.246 2.19 263.186 2.115 262.751 1.98L261.941 1.74C261.851 1.71 261.821 1.68 261.821 1.41C261.821 1.14 261.851 1.095 261.941 1.095C262.286 1.095 263.081 1.2 264.056 1.2C265.001 1.2 265.751 1.095 266.096 1.095Z" fill="black"/>
</svg>
